<?xml version="1.0" encoding="utf-8"?>
<!-- Generator: Adobe Illustrator 23.0.1, SVG Export Plug-In . SVG Version: 6.00 Build 0)  -->
<svg version="1.1" id="Layer_1" xmlns="http://www.w3.org/2000/svg" xmlns:xlink="http://www.w3.org/1999/xlink" x="0px" y="0px"
	 viewBox="0 0 1022 212.5" style="enable-background:new 0 0 1022 212.5;" xml:space="preserve">
<style type="text/css">
	.st0{fill:#00C0F2;}
</style>
<g>
	<path class="st0" d="M265.7,123.7h-5.3V92.6h5.3V123.7z"/>
	<path class="st0" d="M299.7,123.7H294l-14.8-22.8c-0.4-0.6-0.7-1.2-0.9-1.8h-0.1c0.1,0.7,0.2,2.1,0.2,4.3v20.4h-5V92.6h6l14.3,22.3
		c0.6,0.9,1,1.6,1.2,1.9h0.1c-0.1-0.8-0.2-2.2-0.2-4.2v-20h5V123.7z"/>
	<path class="st0" d="M324.2,97h-11.6v9.3h10.7v4.4h-10.7v13h-5.2V92.6h16.8V97z"/>
	<path class="st0" d="M353.7,123.7h-6l-5-8.3c-0.4-0.8-0.9-1.4-1.3-2c-0.4-0.5-0.9-1-1.3-1.3c-0.4-0.3-0.9-0.6-1.4-0.8
		c-0.5-0.2-1.1-0.2-1.8-0.2h-2.1v12.6h-5.1V92.6h10.2c1.5,0,2.8,0.2,4,0.5c1.2,0.3,2.3,0.9,3.2,1.6c0.9,0.7,1.6,1.6,2.1,2.6
		c0.5,1,0.8,2.3,0.8,3.7c0,1.1-0.2,2.1-0.5,3c-0.3,0.9-0.8,1.7-1.4,2.4c-0.6,0.7-1.3,1.3-2.2,1.8c-0.8,0.5-1.8,0.9-2.9,1.2v0.1
		c0.6,0.3,1.1,0.7,1.5,1.1c0.4,0.4,0.8,0.8,1.2,1.2c0.4,0.4,0.7,0.9,1.1,1.4c0.4,0.5,0.8,1.1,1.2,1.8L353.7,123.7z M334.8,96.8v10.1
		h4.3c0.8,0,1.5-0.1,2.2-0.4c0.7-0.2,1.3-0.6,1.7-1.1c0.5-0.5,0.9-1,1.1-1.7c0.3-0.7,0.4-1.4,0.4-2.2c0-1.5-0.5-2.7-1.4-3.5
		c-0.9-0.8-2.3-1.3-4.1-1.3H334.8z"/>
	<path class="st0" d="M382.9,123.7h-5.7l-2.8-7.9h-12.2l-2.7,7.9h-5.6l11.6-31.1h5.8L382.9,123.7z M373,111.5l-4.3-12.4
		c-0.1-0.4-0.3-1.1-0.4-2h-0.1c-0.1,0.8-0.3,1.5-0.4,2l-4.3,12.4H373z"/>
	<path class="st0" d="M385.7,122.4v-5.3c0.5,0.4,1,0.8,1.7,1.2s1.4,0.6,2.1,0.9s1.5,0.4,2.2,0.6s1.4,0.2,2,0.2
		c2.2,0,3.8-0.4,4.8-1.1c1.1-0.7,1.6-1.8,1.6-3.1c0-0.7-0.2-1.4-0.5-1.9s-0.8-1-1.5-1.5c-0.6-0.4-1.4-0.9-2.2-1.3
		c-0.9-0.4-1.8-0.8-2.8-1.3c-1.1-0.6-2-1.1-2.9-1.7c-0.9-0.6-1.7-1.2-2.4-1.9c-0.7-0.7-1.2-1.5-1.6-2.4c-0.4-0.9-0.6-1.9-0.6-3.1
		c0-1.5,0.3-2.7,1-3.8c0.7-1.1,1.5-2,2.6-2.7c1.1-0.7,2.3-1.2,3.7-1.6s2.8-0.5,4.2-0.5c3.3,0,5.6,0.4,7.1,1.1v5.1
		c-1.8-1.3-4-1.9-6.8-1.9c-0.8,0-1.5,0.1-2.3,0.2c-0.8,0.1-1.4,0.4-2,0.7c-0.6,0.3-1.1,0.8-1.5,1.3c-0.4,0.5-0.6,1.1-0.6,1.9
		c0,0.7,0.1,1.3,0.4,1.8c0.3,0.5,0.7,1,1.3,1.4c0.6,0.4,1.2,0.8,2,1.2c0.8,0.4,1.7,0.8,2.8,1.3c1.1,0.6,2.1,1.2,3.1,1.8
		c1,0.6,1.8,1.3,2.5,2.1c0.7,0.8,1.3,1.6,1.7,2.5c0.4,0.9,0.6,2,0.6,3.1c0,1.6-0.3,2.9-1,4c-0.6,1.1-1.5,2-2.6,2.6
		c-1.1,0.7-2.3,1.2-3.7,1.5c-1.4,0.3-2.9,0.5-4.4,0.5c-0.5,0-1.2,0-1.9-0.1c-0.8-0.1-1.5-0.2-2.3-0.3c-0.8-0.2-1.5-0.3-2.3-0.6
		C386.7,122.9,386.1,122.7,385.7,122.4z"/>
	<path class="st0" d="M431.2,97h-8.9v26.7h-5.2V97h-8.9v-4.4h23V97z"/>
	<path class="st0" d="M459.8,123.7h-6l-5-8.3c-0.4-0.8-0.9-1.4-1.3-2s-0.9-1-1.3-1.3c-0.4-0.3-0.9-0.6-1.4-0.8
		c-0.5-0.2-1.1-0.2-1.8-0.2h-2.1v12.6h-5.1V92.6H446c1.5,0,2.8,0.2,4,0.5s2.3,0.9,3.2,1.6c0.9,0.7,1.6,1.6,2.1,2.6
		c0.5,1,0.8,2.3,0.8,3.7c0,1.1-0.2,2.1-0.5,3c-0.3,0.9-0.8,1.7-1.4,2.4c-0.6,0.7-1.3,1.3-2.2,1.8c-0.8,0.5-1.8,0.9-2.9,1.2v0.1
		c0.6,0.3,1.1,0.7,1.5,1.1c0.4,0.4,0.8,0.8,1.2,1.2s0.7,0.9,1.1,1.4c0.4,0.5,0.8,1.1,1.2,1.8L459.8,123.7z M440.9,96.8v10.1h4.3
		c0.8,0,1.5-0.1,2.2-0.4c0.7-0.2,1.3-0.6,1.7-1.1c0.5-0.5,0.9-1,1.1-1.7c0.3-0.7,0.4-1.4,0.4-2.2c0-1.5-0.5-2.7-1.4-3.5
		c-0.9-0.8-2.3-1.3-4.1-1.3H440.9z"/>
	<path class="st0" d="M487.3,111.1c0,8.7-4.1,13.1-12.4,13.1c-7.9,0-11.9-4.2-11.9-12.6v-19h5.2v17.9c0,6.1,2.4,9.1,7.1,9.1
		c4.6,0,6.8-2.9,6.8-8.8V92.6h5.2V111.1z"/>
	<path class="st0" d="M516.3,122.4c-2.3,1.2-5.3,1.8-8.7,1.8c-4.5,0-8.1-1.4-10.8-4.3s-4.1-6.6-4.1-11.2c0-5,1.5-9,4.6-12.1
		c3.1-3.1,6.9-4.6,11.6-4.6c3,0,5.5,0.4,7.5,1.3v5.1c-2.1-1.2-4.4-1.9-6.9-1.9c-3.4,0-6.1,1.1-8.2,3.2c-2.1,2.2-3.1,5-3.1,8.6
		c0,3.4,1,6.2,2.9,8.2c2,2,4.5,3,7.7,3c2.9,0,5.5-0.7,7.6-2.1V122.4z"/>
	<path class="st0" d="M542.2,97h-8.9v26.7h-5.2V97h-8.9v-4.4h23V97z"/>
	<path class="st0" d="M570.6,111.1c0,8.7-4.1,13.1-12.4,13.1c-7.9,0-11.9-4.2-11.9-12.6v-19h5.2v17.9c0,6.1,2.4,9.1,7.1,9.1
		c4.6,0,6.8-2.9,6.8-8.8V92.6h5.2V111.1z"/>
	<path class="st0" d="M601.9,123.7h-6l-5-8.3c-0.4-0.8-0.9-1.4-1.3-2s-0.9-1-1.3-1.3c-0.4-0.3-0.9-0.6-1.4-0.8
		c-0.5-0.2-1.1-0.2-1.8-0.2h-2.1v12.6h-5.1V92.6h10.2c1.5,0,2.8,0.2,4,0.5s2.3,0.9,3.2,1.6c0.9,0.7,1.6,1.6,2.1,2.6
		c0.5,1,0.8,2.3,0.8,3.7c0,1.1-0.2,2.1-0.5,3c-0.3,0.9-0.8,1.7-1.4,2.4c-0.6,0.7-1.3,1.3-2.2,1.8c-0.8,0.5-1.8,0.9-2.9,1.2v0.1
		c0.6,0.3,1.1,0.7,1.5,1.1c0.4,0.4,0.8,0.8,1.2,1.2s0.7,0.9,1.1,1.4c0.4,0.5,0.8,1.1,1.2,1.8L601.9,123.7z M583.1,96.8v10.1h4.3
		c0.8,0,1.5-0.1,2.2-0.4c0.7-0.2,1.3-0.6,1.7-1.1c0.5-0.5,0.9-1,1.1-1.7c0.3-0.7,0.4-1.4,0.4-2.2c0-1.5-0.5-2.7-1.4-3.5
		c-0.9-0.8-2.3-1.3-4.1-1.3H583.1z"/>
	<path class="st0" d="M623,123.7h-17.4V92.6h16.8V97h-11.6v8.8h10.7v4.4h-10.7v9.2H623V123.7z"/>
	<path class="st0" d="M662.4,122.4c-2.3,1.2-5.3,1.8-8.7,1.8c-4.5,0-8.1-1.4-10.8-4.3s-4.1-6.6-4.1-11.2c0-5,1.5-9,4.6-12.1
		c3.1-3.1,6.9-4.6,11.6-4.6c3,0,5.5,0.4,7.5,1.3v5.1c-2.1-1.2-4.4-1.9-6.9-1.9c-3.4,0-6.1,1.1-8.2,3.2c-2.1,2.2-3.1,5-3.1,8.6
		c0,3.4,1,6.2,2.9,8.2c2,2,4.5,3,7.7,3c2.9,0,5.5-0.7,7.6-2.1V122.4z"/>
	<path class="st0" d="M685.5,123.7h-17.2V92.6h5.2v26.7h12.1V123.7z"/>
	<path class="st0" d="M716.7,123.7H711l-2.8-7.9H696l-2.7,7.9h-5.6l11.6-31.1h5.8L716.7,123.7z M706.9,111.5l-4.3-12.4
		c-0.1-0.4-0.3-1.1-0.4-2h-0.1c-0.1,0.8-0.3,1.5-0.4,2l-4.3,12.4H706.9z"/>
	<path class="st0" d="M719.5,122.4v-5.3c0.5,0.4,1,0.8,1.7,1.2s1.4,0.6,2.1,0.9c0.7,0.2,1.5,0.4,2.2,0.6c0.7,0.1,1.4,0.2,2,0.2
		c2.2,0,3.8-0.4,4.8-1.1c1.1-0.7,1.6-1.8,1.6-3.1c0-0.7-0.2-1.4-0.5-1.9c-0.4-0.5-0.8-1-1.5-1.5s-1.4-0.9-2.2-1.3
		c-0.9-0.4-1.8-0.8-2.8-1.3c-1.1-0.6-2-1.1-2.9-1.7c-0.9-0.6-1.7-1.2-2.4-1.9c-0.7-0.7-1.2-1.5-1.6-2.4s-0.6-1.9-0.6-3.1
		c0-1.5,0.3-2.7,1-3.8c0.7-1.1,1.5-2,2.6-2.7c1.1-0.7,2.3-1.2,3.7-1.6c1.4-0.3,2.8-0.5,4.2-0.5c3.3,0,5.6,0.4,7.1,1.1v5.1
		c-1.8-1.3-4-1.9-6.8-1.9c-0.8,0-1.5,0.1-2.3,0.2c-0.8,0.1-1.4,0.4-2,0.7c-0.6,0.3-1.1,0.8-1.5,1.3c-0.4,0.5-0.6,1.1-0.6,1.9
		c0,0.7,0.1,1.3,0.4,1.8c0.3,0.5,0.7,1,1.3,1.4c0.6,0.4,1.2,0.8,2,1.2c0.8,0.4,1.7,0.8,2.8,1.3c1.1,0.6,2.1,1.2,3.1,1.8
		c1,0.6,1.8,1.3,2.5,2.1c0.7,0.8,1.3,1.6,1.7,2.5c0.4,0.9,0.6,2,0.6,3.1c0,1.6-0.3,2.9-1,4c-0.6,1.1-1.5,2-2.6,2.6
		c-1.1,0.7-2.3,1.2-3.7,1.5c-1.4,0.3-2.9,0.5-4.4,0.5c-0.5,0-1.2,0-1.9-0.1c-0.8-0.1-1.5-0.2-2.3-0.3c-0.8-0.2-1.5-0.3-2.3-0.6
		C720.5,122.9,720,122.7,719.5,122.4z"/>
	<path class="st0" d="M743.7,122.4v-5.3c0.5,0.4,1,0.8,1.7,1.2s1.4,0.6,2.1,0.9c0.7,0.2,1.5,0.4,2.2,0.6c0.7,0.1,1.4,0.2,2,0.2
		c2.2,0,3.8-0.4,4.8-1.1c1.1-0.7,1.6-1.8,1.6-3.1c0-0.7-0.2-1.4-0.5-1.9c-0.4-0.5-0.8-1-1.5-1.5s-1.4-0.9-2.2-1.3
		c-0.9-0.4-1.8-0.8-2.8-1.3c-1.1-0.6-2-1.1-2.9-1.7c-0.9-0.6-1.7-1.2-2.4-1.9c-0.7-0.7-1.2-1.5-1.6-2.4s-0.6-1.9-0.6-3.1
		c0-1.5,0.3-2.7,1-3.8c0.7-1.1,1.5-2,2.6-2.7c1.1-0.7,2.3-1.2,3.7-1.6c1.4-0.3,2.8-0.5,4.2-0.5c3.3,0,5.6,0.4,7.1,1.1v5.1
		c-1.8-1.3-4-1.9-6.8-1.9c-0.8,0-1.5,0.1-2.3,0.2c-0.8,0.1-1.4,0.4-2,0.7c-0.6,0.3-1.1,0.8-1.5,1.3c-0.4,0.5-0.6,1.1-0.6,1.9
		c0,0.7,0.1,1.3,0.4,1.8c0.3,0.5,0.7,1,1.3,1.4c0.6,0.4,1.2,0.8,2,1.2c0.8,0.4,1.7,0.8,2.8,1.3c1.1,0.6,2.1,1.2,3.1,1.8
		c1,0.6,1.8,1.3,2.5,2.1c0.7,0.8,1.3,1.6,1.7,2.5c0.4,0.9,0.6,2,0.6,3.1c0,1.6-0.3,2.9-1,4c-0.6,1.1-1.5,2-2.6,2.6
		c-1.1,0.7-2.3,1.2-3.7,1.5c-1.4,0.3-2.9,0.5-4.4,0.5c-0.5,0-1.2,0-1.9-0.1c-0.8-0.1-1.5-0.2-2.3-0.3c-0.8-0.2-1.5-0.3-2.3-0.6
		C744.7,122.9,744.1,122.7,743.7,122.4z"/>
</g>
</svg>
