<?xml version="1.0" encoding="utf-8"?>
<!-- Generator: Adobe Illustrator 23.0.1, SVG Export Plug-In . SVG Version: 6.00 Build 0)  -->
<svg version="1.1" id="Layer_1" xmlns="http://www.w3.org/2000/svg" xmlns:xlink="http://www.w3.org/1999/xlink" x="0px" y="0px"
	 viewBox="0 0 302.8 30.7" style="enable-background:new 0 0 302.8 30.7;" xml:space="preserve">
<style type="text/css">
	.st0{fill:#00C0F2;}
</style>
<title>IP_sc4_assetBtn1</title>
<g>
	<path class="st0" d="M3.6,25.1h-3.7V7.3h3.7V25.1z"/>
	<path class="st0" d="M22.1,25.1h-3.7l-6.8-11.2c-0.4-0.7-0.7-1.1-0.8-1.5h0c0.1,0.6,0.1,1.6,0.1,2.9v9.8H7.3V7.3h4l6.5,10.9
		c0.3,0.5,0.6,1,0.8,1.5h0c-0.1-0.4-0.1-1.2-0.1-2.4V7.3h3.5V25.1z"/>
	<path class="st0" d="M35.4,10.6h-5.8v4.4h5.3v3.3h-5.3v6.9h-3.7V7.3h9.5V10.6z"/>
	<path class="st0" d="M51.9,25.1h-4.3l-2.6-4.6c-0.2-0.3-0.4-0.7-0.6-0.9s-0.4-0.5-0.5-0.7c-0.2-0.2-0.4-0.3-0.6-0.4
		c-0.2-0.1-0.4-0.2-0.6-0.2h-1v6.8h-3.7V7.3H44c4,0,6,1.6,6,4.8c0,0.6-0.1,1.2-0.3,1.7c-0.2,0.5-0.4,1-0.7,1.4
		c-0.3,0.4-0.7,0.8-1.2,1.1s-1,0.5-1.5,0.7v0c0.2,0.1,0.5,0.2,0.7,0.4s0.5,0.4,0.7,0.7c0.2,0.2,0.4,0.5,0.6,0.8
		c0.2,0.3,0.4,0.6,0.5,0.8L51.9,25.1z M41.8,10.3v5h1.6c0.8,0,1.4-0.2,1.9-0.7c0.5-0.5,0.7-1.1,0.7-1.9c0-1.6-0.9-2.3-2.6-2.3H41.8z
		"/>
	<path class="st0" d="M67.9,25.1h-4l-1.2-4h-5.9l-1.2,4h-4l6-17.8H62L67.9,25.1z M61.8,18.1l-1.8-6c-0.1-0.4-0.2-1-0.3-1.6h-0.1
		c0,0.5-0.1,1-0.3,1.6l-1.8,6H61.8z"/>
	<path class="st0" d="M69.2,24.4v-4c0.7,0.6,1.4,1.1,2.2,1.4c0.8,0.3,1.6,0.5,2.4,0.5c0.5,0,0.9,0,1.2-0.1c0.3-0.1,0.6-0.2,0.9-0.4
		c0.2-0.2,0.4-0.4,0.5-0.6s0.2-0.5,0.2-0.7c0-0.3-0.1-0.7-0.3-0.9s-0.4-0.5-0.8-0.8c-0.3-0.2-0.7-0.5-1.1-0.7
		c-0.4-0.2-0.9-0.4-1.4-0.7c-1.3-0.6-2.2-1.3-2.9-2.1c-0.6-0.8-0.9-1.8-0.9-3c0-0.9,0.2-1.7,0.5-2.4C70,9.2,70.5,8.7,71,8.2
		c0.6-0.4,1.3-0.7,2.1-1C73.9,7.1,74.7,7,75.6,7c0.9,0,1.6,0.1,2.3,0.2c0.7,0.1,1.3,0.3,1.8,0.5v3.7c-0.3-0.2-0.6-0.4-0.9-0.5
		c-0.3-0.2-0.7-0.3-1-0.4c-0.3-0.1-0.7-0.2-1-0.2c-0.3,0-0.7-0.1-1-0.1c-0.4,0-0.8,0-1.1,0.1s-0.6,0.2-0.9,0.4
		c-0.2,0.2-0.4,0.3-0.6,0.6C73.1,11.4,73,11.7,73,12c0,0.3,0.1,0.6,0.2,0.8c0.1,0.2,0.4,0.5,0.6,0.7c0.3,0.2,0.6,0.4,1,0.6
		c0.4,0.2,0.8,0.4,1.3,0.6c0.7,0.3,1.2,0.6,1.8,1c0.5,0.3,1,0.7,1.3,1.1s0.7,0.9,0.9,1.4c0.2,0.5,0.3,1.2,0.3,1.9
		c0,1-0.2,1.8-0.5,2.5s-0.8,1.2-1.4,1.6c-0.6,0.4-1.3,0.7-2.1,0.9c-0.8,0.2-1.6,0.3-2.5,0.3c-0.9,0-1.8-0.1-2.6-0.2
		C70.5,25,69.8,24.8,69.2,24.4z"/>
	<path class="st0" d="M94.7,10.6H90v14.6h-3.7V10.6h-4.7V7.3h13.1V10.6z"/>
	<path class="st0" d="M110.7,25.1h-4.3l-2.6-4.6c-0.2-0.3-0.4-0.7-0.6-0.9s-0.4-0.5-0.5-0.7c-0.2-0.2-0.4-0.3-0.6-0.4
		c-0.2-0.1-0.4-0.2-0.6-0.2h-1v6.8h-3.7V7.3h5.9c4,0,6,1.6,6,4.8c0,0.6-0.1,1.2-0.3,1.7c-0.2,0.5-0.4,1-0.7,1.4
		c-0.3,0.4-0.7,0.8-1.2,1.1s-1,0.5-1.5,0.7v0c0.2,0.1,0.5,0.2,0.7,0.4s0.5,0.4,0.7,0.7c0.2,0.2,0.4,0.5,0.6,0.8
		c0.2,0.3,0.4,0.6,0.5,0.8L110.7,25.1z M100.6,10.3v5h1.6c0.8,0,1.4-0.2,1.9-0.7c0.5-0.5,0.7-1.1,0.7-1.9c0-1.6-0.9-2.3-2.6-2.3
		H100.6z"/>
	<path class="st0" d="M125.6,17.4c0,5.4-2.3,8-6.9,8c-4.5,0-6.7-2.6-6.7-7.8V7.3h3.7v10.3c0,2.9,1,4.3,3.1,4.3c2,0,3.1-1.4,3.1-4.2
		V7.3h3.7V17.4z"/>
	<path class="st0" d="M141,24.5c-1.2,0.6-2.8,0.9-4.7,0.9c-2.5,0-4.5-0.8-6-2.4c-1.4-1.6-2.2-3.8-2.2-6.4c0-2.9,0.8-5.2,2.4-6.9
		c1.6-1.8,3.7-2.7,6.3-2.7c1.6,0,3,0.2,4.1,0.7v3.9c-1.1-0.7-2.4-1.1-3.8-1.1c-1.5,0-2.8,0.5-3.7,1.6c-0.9,1.1-1.4,2.5-1.4,4.3
		c0,1.7,0.4,3.1,1.3,4.1c0.9,1,2.1,1.5,3.6,1.5c1.4,0,2.8-0.4,4-1.1V24.5z"/>
	<path class="st0" d="M155.4,10.6h-4.7v14.6H147V10.6h-4.7V7.3h13.1V10.6z"/>
	<path class="st0" d="M171,17.4c0,5.4-2.3,8-6.9,8c-4.5,0-6.7-2.6-6.7-7.8V7.3h3.7v10.3c0,2.9,1,4.3,3.1,4.3c2,0,3.1-1.4,3.1-4.2
		V7.3h3.7V17.4z"/>
	<path class="st0" d="M188.4,25.1h-4.3l-2.6-4.6c-0.2-0.3-0.4-0.7-0.6-0.9s-0.4-0.5-0.5-0.7c-0.2-0.2-0.4-0.3-0.6-0.4
		c-0.2-0.1-0.4-0.2-0.6-0.2h-1v6.8h-3.7V7.3h5.9c4,0,6,1.6,6,4.8c0,0.6-0.1,1.2-0.3,1.7c-0.2,0.5-0.4,1-0.7,1.4
		c-0.3,0.4-0.7,0.8-1.2,1.1s-1,0.5-1.5,0.7v0c0.2,0.1,0.5,0.2,0.7,0.4s0.5,0.4,0.7,0.7s0.4,0.5,0.6,0.8c0.2,0.3,0.4,0.6,0.5,0.8
		L188.4,25.1z M178.3,10.3v5h1.6c0.8,0,1.4-0.2,1.9-0.7c0.5-0.5,0.7-1.1,0.7-1.9c0-1.6-0.9-2.3-2.6-2.3H178.3z"/>
	<path class="st0" d="M199.8,25.1H190V7.3h9.5v3.3h-5.8v4h5.4v3.3h-5.4v4.1h6.2V25.1z"/>
	<path class="st0" d="M220.7,24.5c-1.2,0.6-2.8,0.9-4.7,0.9c-2.5,0-4.5-0.8-6-2.4c-1.4-1.6-2.2-3.8-2.2-6.4c0-2.9,0.8-5.2,2.4-6.9
		c1.6-1.8,3.7-2.7,6.3-2.7c1.6,0,3,0.2,4.1,0.7v3.9c-1.1-0.7-2.4-1.1-3.8-1.1c-1.5,0-2.8,0.5-3.7,1.6c-0.9,1.1-1.4,2.5-1.4,4.3
		c0,1.7,0.4,3.1,1.3,4.1c0.9,1,2.1,1.5,3.6,1.5c1.4,0,2.8-0.4,4-1.1V24.5z"/>
	<path class="st0" d="M233.4,25.1h-9.8V7.3h3.7v14.6h6.1V25.1z"/>
	<path class="st0" d="M250.6,25.1h-4l-1.2-4h-5.9l-1.2,4h-4l6-17.8h4.4L250.6,25.1z M244.5,18.1l-1.8-6c-0.1-0.4-0.2-1-0.3-1.6h-0.1
		c0,0.5-0.1,1-0.3,1.6l-1.8,6H244.5z"/>
	<path class="st0" d="M251.9,24.4v-4c0.7,0.6,1.4,1.1,2.2,1.4s1.6,0.5,2.4,0.5c0.5,0,0.9,0,1.2-0.1c0.3-0.1,0.6-0.2,0.9-0.4
		c0.2-0.2,0.4-0.4,0.5-0.6c0.1-0.2,0.2-0.5,0.2-0.7c0-0.3-0.1-0.7-0.3-0.9s-0.4-0.5-0.8-0.8c-0.3-0.2-0.7-0.5-1.1-0.7
		c-0.4-0.2-0.9-0.4-1.4-0.7c-1.3-0.6-2.2-1.3-2.9-2.1c-0.6-0.8-0.9-1.8-0.9-3c0-0.9,0.2-1.7,0.5-2.4c0.3-0.7,0.8-1.2,1.4-1.6
		c0.6-0.4,1.3-0.7,2.1-1c0.8-0.2,1.6-0.3,2.5-0.3c0.9,0,1.6,0.1,2.3,0.2c0.7,0.1,1.3,0.3,1.8,0.5v3.7c-0.3-0.2-0.6-0.4-0.9-0.5
		c-0.3-0.2-0.7-0.3-1-0.4c-0.3-0.1-0.7-0.2-1-0.2c-0.3,0-0.7-0.1-1-0.1c-0.4,0-0.8,0-1.1,0.1c-0.3,0.1-0.6,0.2-0.9,0.4
		c-0.2,0.2-0.4,0.3-0.6,0.6c-0.1,0.2-0.2,0.5-0.2,0.7c0,0.3,0.1,0.6,0.2,0.8c0.1,0.2,0.4,0.5,0.6,0.7c0.3,0.2,0.6,0.4,1,0.6
		c0.4,0.2,0.8,0.4,1.3,0.6c0.7,0.3,1.2,0.6,1.8,1c0.5,0.3,1,0.7,1.3,1.1c0.4,0.4,0.7,0.9,0.9,1.4c0.2,0.5,0.3,1.2,0.3,1.9
		c0,1-0.2,1.8-0.5,2.5c-0.3,0.7-0.8,1.2-1.4,1.6c-0.6,0.4-1.3,0.7-2.1,0.9c-0.8,0.2-1.6,0.3-2.5,0.3c-0.9,0-1.8-0.1-2.6-0.2
		C253.2,25,252.5,24.8,251.9,24.4z"/>
	<path class="st0" d="M265.1,24.4v-4c0.7,0.6,1.4,1.1,2.2,1.4s1.6,0.5,2.4,0.5c0.5,0,0.9,0,1.2-0.1c0.3-0.1,0.6-0.2,0.9-0.4
		c0.2-0.2,0.4-0.4,0.5-0.6c0.1-0.2,0.2-0.5,0.2-0.7c0-0.3-0.1-0.7-0.3-0.9s-0.4-0.5-0.8-0.8c-0.3-0.2-0.7-0.5-1.1-0.7
		c-0.4-0.2-0.9-0.4-1.4-0.7c-1.3-0.6-2.2-1.3-2.9-2.1c-0.6-0.8-0.9-1.8-0.9-3c0-0.9,0.2-1.7,0.5-2.4c0.3-0.7,0.8-1.2,1.4-1.6
		c0.6-0.4,1.3-0.7,2.1-1c0.8-0.2,1.6-0.3,2.5-0.3c0.9,0,1.6,0.1,2.3,0.2c0.7,0.1,1.3,0.3,1.8,0.5v3.7c-0.3-0.2-0.6-0.4-0.9-0.5
		c-0.3-0.2-0.7-0.3-1-0.4c-0.3-0.1-0.7-0.2-1-0.2c-0.3,0-0.7-0.1-1-0.1c-0.4,0-0.8,0-1.1,0.1c-0.3,0.1-0.6,0.2-0.9,0.4
		c-0.2,0.2-0.4,0.3-0.6,0.6c-0.1,0.2-0.2,0.5-0.2,0.7c0,0.3,0.1,0.6,0.2,0.8c0.1,0.2,0.4,0.5,0.6,0.7c0.3,0.2,0.6,0.4,1,0.6
		c0.4,0.2,0.8,0.4,1.3,0.6c0.7,0.3,1.2,0.6,1.8,1c0.5,0.3,1,0.7,1.3,1.1c0.4,0.4,0.7,0.9,0.9,1.4c0.2,0.5,0.3,1.2,0.3,1.9
		c0,1-0.2,1.8-0.5,2.5c-0.3,0.7-0.8,1.2-1.4,1.6c-0.6,0.4-1.3,0.7-2.1,0.9c-0.8,0.2-1.6,0.3-2.5,0.3c-0.9,0-1.8-0.1-2.6-0.2
		C266.4,25,265.7,24.8,265.1,24.4z"/>
	<path class="st0" d="M288.9,25.1H279V7.3h9.5v3.3h-5.8v4h5.4v3.3h-5.4v4.1h6.2V25.1z"/>
	<path class="st0" d="M290.7,24.4v-4c0.7,0.6,1.4,1.1,2.2,1.4s1.6,0.5,2.4,0.5c0.5,0,0.9,0,1.2-0.1c0.3-0.1,0.6-0.2,0.9-0.4
		c0.2-0.2,0.4-0.4,0.5-0.6c0.1-0.2,0.2-0.5,0.2-0.7c0-0.3-0.1-0.7-0.3-0.9s-0.4-0.5-0.8-0.8c-0.3-0.2-0.7-0.5-1.1-0.7
		c-0.4-0.2-0.9-0.4-1.4-0.7c-1.3-0.6-2.2-1.3-2.9-2.1c-0.6-0.8-0.9-1.8-0.9-3c0-0.9,0.2-1.7,0.5-2.4c0.3-0.7,0.8-1.2,1.4-1.6
		c0.6-0.4,1.3-0.7,2.1-1c0.8-0.2,1.6-0.3,2.5-0.3c0.9,0,1.6,0.1,2.3,0.2c0.7,0.1,1.3,0.3,1.8,0.5v3.7c-0.3-0.2-0.6-0.4-0.9-0.5
		c-0.3-0.2-0.7-0.3-1-0.4c-0.3-0.1-0.7-0.2-1-0.2c-0.3,0-0.7-0.1-1-0.1c-0.4,0-0.8,0-1.1,0.1c-0.3,0.1-0.6,0.2-0.9,0.4
		c-0.2,0.2-0.4,0.3-0.6,0.6c-0.1,0.2-0.2,0.5-0.2,0.7c0,0.3,0.1,0.6,0.2,0.8c0.1,0.2,0.4,0.5,0.6,0.7c0.3,0.2,0.6,0.4,1,0.6
		c0.4,0.2,0.8,0.4,1.3,0.6c0.7,0.3,1.2,0.6,1.8,1c0.5,0.3,1,0.7,1.3,1.1c0.4,0.4,0.7,0.9,0.9,1.4c0.2,0.5,0.3,1.2,0.3,1.9
		c0,1-0.2,1.8-0.5,2.5c-0.3,0.7-0.8,1.2-1.4,1.6c-0.6,0.4-1.3,0.7-2.1,0.9c-0.8,0.2-1.6,0.3-2.5,0.3c-0.9,0-1.8-0.1-2.6-0.2
		C292,25,291.3,24.8,290.7,24.4z"/>
</g>
</svg>
