<svg xmlns="http://www.w3.org/2000/svg" viewBox="0 0 318.61 385.93"><defs><style>.cls-1,.cls-3{fill:#7cb5ab;}.cls-1,.cls-2,.cls-3,.cls-4,.cls-5{stroke:#fff;stroke-miterlimit:10;stroke-width:1.5px;}.cls-1,.cls-2{opacity:0.5;isolation:isolate;}.cls-2,.cls-4{fill:none;}.cls-5{fill:#009786;}</style></defs><title>Caims</title><g id="Layer_2" data-name="Layer 2"><g id="Layer_1-2" data-name="Layer 1"><polygon class="cls-1" points="218.35 266.44 217.35 267.34 217.75 267.24 218.35 266.44"/><polygon class="cls-1" points="224.35 260.24 223.75 261.14 224.65 259.74 224.35 260.24"/><polygon class="cls-1" points="295.05 358.64 295.25 357.64 294.95 356.74 294.15 355.94 293.75 355.04 293.75 353.44 294.45 351.84 294.55 350.74 294.65 349.64 294.45 348.64 293.25 347.84 292.15 347.14 291.75 346.64 291.35 347.44 291.25 348.24 289.95 347.84 288.25 347.14 287.65 346.44 286.25 346.64 285.25 347.34 284.25 348.14 283.85 349.24 283.85 350.84 283.55 352.54 283.25 353.54 283.05 354.84 283.65 355.84 284.35 356.34 285.45 355.44 286.35 354.64 287.35 354.44 288.55 354.54 289.45 356.04 289.95 357.64 292.55 359.54 293.25 359.44 294.25 359.14 294.95 359.04 295.45 359.44 295.05 358.64"/><polygon class="cls-1" points="225.05 259.14 224.65 259.74 225.15 259.04 225.05 259.14"/><polygon class="cls-1" points="233.65 249.34 233.55 249.54 234.15 251.34 234.15 250.04 233.65 249.34"/><polygon class="cls-1" points="225.75 258.14 225.15 259.04 226.65 257.54 225.75 258.14"/><polygon class="cls-1" points="234.15 251.34 232.55 253.04 233.85 251.94 234.15 251.34"/><polygon class="cls-1" points="144.35 108.74 143.65 111.44 143.65 113.34 142.05 115.34 144.95 118.24 146.55 120.84 150.45 121.84 151.45 128.34 150.15 130.94 148.25 132.24 148.85 136.44 149.85 138.44 145.65 140.74 143.95 142.34 140.05 145.54 139.45 150.74 137.85 154.34 136.15 155.34 134.85 157.64 136.15 159.84 139.45 161.24 143.35 162.84 145.65 162.84 145.95 161.54 145.95 159.54 147.55 159.54 148.55 161.54 150.15 162.14 151.75 162.14 155.75 161.24 157.95 160.84 159.65 159.84 160.95 158.94 163.15 159.04 162.75 155.24 163.65 151.94 164.65 148.64 164.15 142.84 160.75 138.14 160.75 133.34 159.35 130.94 158.85 128.54 156.05 126.64 151.75 122.84 150.75 119.54 151.25 117.64 150.75 112.34 148.95 108.54 146.25 108.14 144.35 108.74"/><line class="cls-2" x1="188.75" y1="265.24" x2="187.95" y2="264.34"/><polyline class="cls-1" points="187.95 264.34 187.25 263.74 184.35 262.14 180.75 261.74 179.75 259.14 178.85 256.94 175.25 254.94 172.35 252.04 171.65 249.04 170.05 247.14 166.75 245.84 163.55 243.54 164.15 241.24 163.55 237.04"/><polygon class="cls-1" points="159.65 159.84 157.95 160.84 155.75 161.24 151.75 162.14 150.15 162.14 148.55 161.54 147.55 159.54 145.95 159.54 145.95 161.54 145.65 162.84 143.35 162.84 139.45 161.24 136.15 159.84 134.85 157.64 134.55 161.24 135.25 165.44 136.15 169.04 135.85 172.94 135.25 175.24 132.95 177.44 129.05 181.74 126.75 182.64 127.05 186.94 128.35 190.54 130.35 192.14 132.25 191.84 134.85 194.44 138.45 199.64 141.75 205.14 143.65 207.04 145.65 211.04 145.65 216.54 147.55 220.74 149.55 222.34 151.75 226.64 153.75 230.54 155.75 233.14 156.65 236.34 160.55 237.04 163.55 237.04 163.55 234.74 165.75 232.84 164.85 231.54 164.45 229.84 164.45 227.64 164.45 225.94 165.45 225.04 167.45 225.94 169.05 227.24 170.35 228.24 172.35 228.24 173.95 226.64 176.25 227.24 178.45 226.94 179.75 225.64 181.15 224.34 181.15 222.74 180.45 221.04 180.75 218.84 181.45 216.54 181.45 214.54 181.45 212.34 181.75 210.04 182.75 208.04 184.35 207.04 185.95 207.04 187.95 206.14 188.55 204.54 188.95 202.24 189.25 199.94 188.55 197.64 187.65 196.04 189.85 194.74 190.55 196.34 192.85 195.34 192.85 192.74 192.85 191.44 195.15 190.04 193.25 184.34 190.35 182.44 185.15 181.54 177.05 177.24 172.75 174.34 170.35 170.04 169.85 167.24 168.95 164.34 165.55 162.94 163.15 159.04 160.95 158.94 159.65 159.84"/><polygon class="cls-1" points="316.25 353.14 316.25 353.14 314.75 353.54 313.25 354.44 311.95 355.24 311.05 356.04 309.95 357.24 309.65 358.74 309.05 361.34 309.95 362.34 310.35 363.44 310.55 365.04 310.95 365.94 310.95 365.94 316.15 364.04 317.15 360.24 317.15 355.44 316.25 353.14"/><path class="cls-1" d="M310.35,363.44l-.4-1.1-.9-1,.6-2.6.3-1.5,1.1-1.2.9-.8,1.3-.8,1.5-.9,1.4-.4h0l-.6-1.5-3.3-7.6-2.9-3.8s-1.3.2-1.5.2a8.47,8.47,0,0,1-1.4-1l-.7-1.2-.4-1.3-.7-1.4-3-.4-1.4-.6-.3-1.6-.4-.8.1-1.2-1.9-.5-2-1.6-2.3-.6-3.6.6-.3,1.3.3,2.9v1.6l-.8,1.3.7,1.2.4,1.7.4,2.1.5,1.3-.3,1.1-.3,1.8,1,1.2-.1.3.5.5,1.1.7,1.2.8.2,1-.1,1.1-.1,1.1-.7,1.6V355l.4.9.8.8.3.9-.2,1,.4.8.6,1.8.8,1.7.4,1.3,1,1.1.7.6.4.5.8.6.4.5v.2l7.5-.4,2.9-1.4-.4-.9Z"/><polyline class="cls-1" points="291.75 346.64 291.85 346.34 290.85 345.14 291.15 343.34 291.45 342.24 290.95 341.04 290.45 338.94 290.05 337.24 289.35 336.04 288.85 336.94 287.55 335.34 285.55 335.64 283.35 337.34 281.05 337.34 278.15 335.34 276.75 334.04 273.25 332.04 270.65 330.14 268.05 325.24 267.65 321.64 269.35 320.04 263.45 318.74 260.85 318.74 260.55 315.84 260.15 314.24 259.55 312.24 256.95 311.24 255.65 311.14 255.35 314.84 253.05 314.84 251.05 314.84 248.15 315.44 244.85 316.44 241.95 316.44 238.05 316.44 233.55 317.74 228.65 318.74 225.35 315.84 222.75 313.24 224.75 311.94 224.75 309.94 223.75 308.64 219.85 307.04 218.85 304.44 216.25 303.44 211.75 303.44 208.75 301.14 207.15 298.24 205.85 296.64 203.85 296.94 200.65 298.54 198.65 299.84 196.35 302.14 193.45 303.74 191.85 306.04 190.85 308.04 187.95 310.94 188.25 313.24 188.95 315.14 190.55 316.44 193.45 318.04 193.45 320.04 192.45 321.64 191.55 323.94 190.55 328.54 187.95 329.84 187.65 338.64 185.65 338.64 183.75 340.84 185.65 342.84 184.05 345.44 183.75 348.74 184.05 351.34 186.35 351.64 186.35 353.24 186.35 356.14 185.95 359.74 183.35 359.74 182.75 362.04 182.05 363.64 181.75 368.54 181.15 372.44 180.45 377.94 181.15 379.34 181.15 381.64 223.25 381.64 226.55 380.24 230.85 376.44 234.15 373.04 238.45 374.94 244.25 373.04 251.85 371.14 257.55 372.54 265.15 376.44 271.85 379.24 271.85 382.14 275.15 384.94 279.45 381.14 286.15 378.34 287.05 373.04 289.45 370.74 292.85 366.84 298.05 367.84 300.55 367.74 300.55 367.54 300.25 367.04 299.45 366.44 298.95 365.94 298.25 365.34 297.25 364.24 296.85 362.94 296.05 361.24 295.45 359.44 295.45 359.44 294.95 359.04 294.25 359.14 293.25 359.44 292.55 359.54 289.95 357.64 289.45 356.04 288.55 354.54 287.35 354.44 286.35 354.64 285.45 355.44 284.35 356.34 283.65 355.84 283.05 354.84 283.25 353.54 283.55 352.54 283.85 350.84 283.85 349.24 284.25 348.14 285.25 347.34 286.25 346.64 287.65 346.44 288.25 347.14 289.95 347.84 291.25 348.24 291.35 347.44 291.75 346.64"/><path class="cls-1" d="M238,241.54l-2.9-2.4-1.4-4.3-1-1.9-1-4.8-2.4-3.3.5-2.9-1.9-3.8-2.8-1.4-6.2-5.2-.5-4.3,1.4-2.9-.5-4.3h-3.8l-5.7-4.7-5.2-2.4-7.7-1L195,190l-2.3,1.4v3.9l-2.3,1-.6-1.6-2.3,1.3,1,1.6.7,2.3-.3,2.3-.3,2.3-.6,1.6-2,1h-1.6l-1.6,1-1,2-.3,2.2v4.2l-.6,2.3-.3,2.3.6,1.6v1.6l-1.3,1.3-1.3,1.3-2.3.3-2.3-.6-1.6,1.6h-2l-1.3-1-1.6-1.3-2-1-1,1v3.9l.3,1.6,1,1.3-2.3,2V237l.6,4.2-.6,2.3,3.3,2.3,3.3,1.3,1.6,2,.7,2.9,2.9,2.9,3.6,2,1,2.3,1,2.6,3.6.3,2.9,1.6.6.6.8.8.3-1.5-.2-1.3.3-1.6.3-.5,1.1-.8,1.6-.9,1.6-1.5.9-1.6.6-1.2.9-.4h1.6l2.5-2,2.5-1.9,1.4-.6h2l.9.6s.2,1.8.6,1.6a4.19,4.19,0,0,0,1.4-.9h2l.8,1-1.3.7.4,1.5h1.1l2.9.6,1.3.3v1.6l-.7,2.6v2.3l-.1,1.3-.2,1.6.9,2.5.2.6.9-.1,1-.9,1.2-1,1.9-2.1,1-.1.9-1.2.4-.9.6-.9.3-.5.4-.6.1-.1.6-.9.9-.6h1.3l2.6-1.3,2-3.3,1.6-1.8-.6-1.8.2-.3.7-1.2,1.5-.1h1.3l2-1.2,1.6-1.9,1-1Z"/><path class="cls-1" d="M287.15,287.34l-1.9-6.2-6.7-.5-1.9-2.4-2.4-2.9-3.8-1-5.2-5.2-3.3-4.3-1.4-2.9,2.4-9.5v-5.7l-2.4,1-2.4-.5-5.2-.5-2.8-4.3-5.2-1-1.4,5.7-1.4-3.3-1,1-1.6,1.9-2,1.2h-1.3l-1.5.1-.7,1.2.5.8v1.3l-.3.5-1.3,1.1-2,3.3-2.6,1.3h-1.3l-1.6,1.5-.5.7-.9,1.4-.4.9-.9,1.2-1,.1-1.9,2.1-1.2,1-.6.8-.4.1-.9.1-.2-.6-.9-2.5.2-1.6.1-1.3v-2.3l.6-2.6v-1.6l-1.3-.3-3-.7h-1.2l-.4-1.5,1.3-.7-.8-1h-1.8c-.5.3-.9.6-1.4.9-.4.1-.6-1.6-.6-1.6l-.9-.6h-2l-1.4.6-2.5,1.9-2.5,2h-1.6l-.9.4-.6,1.2-.9,1.6-1.6,1.5-1.6.9-1.1.8-.3.5-.3,1.6.2,1.3-.3,1.5.5.5-1,4.2-1,2.6.3,2.9-1.5,3.3-2,2.3-3.3,2-1.3,2.3-2.6,1.3,1.6,5.5,3.6,1,2.9,2.6,2,1.3,3.9-1.3,3.3-1.4,3.6-1.6L203,295l3.3,1.6,1.3,1.6,1.6,2.9,2.9,2.3h4.6l2.6,1,1,2.6,3.9,1.6,1,1.3v2l-2,1.3,2.6,2.6,3.3,2.9,4.9-1,4.6-1.3h6.8l3.3-1,2.9-.6h4.2l.3-3.7v-.2l-.3-6.5,2-3.6v-4.6l2.3-3.6,2.6-1,2.9-1.6.3-2.6,3.3-2,1.6,1.3,1,2,2.6,1.3,1.6-1.6h1.3l1.3,2.3,2,1.6,2.3.3h3.9l1-3.3Z"/><path class="cls-1" d="M305.15,322.64l-1.3,2.3-.3,2.6-1.3,2-2,1.6-.4-.1-.1,1.2.4.8.3,1.6,1.4.6,3,.4.7,1.4.4,1.3.7,1.2s1.1,1,1.4,1,1.5-.2,1.5-.2l1.9-7.6.5-3.8-.5-4.8-2.2-2.4-1.8,1.4Z"/><polygon class="cls-1" points="307.45 316.14 308.05 311.54 307.55 307.74 302.85 307.74 300.45 304.44 299.45 300.14 296.65 294.44 293.55 293.54 289.15 286.54 287.05 287.24 287.25 289.44 286.25 292.74 282.35 292.74 280.05 292.34 278.15 290.74 276.75 288.44 275.45 288.44 273.85 290.14 271.25 288.84 270.25 286.84 268.65 285.54 265.45 287.44 265.05 290.14 262.15 291.74 259.55 292.74 257.25 296.24 257.25 300.84 255.35 304.44 255.65 310.94 255.65 311.14 256.95 311.24 259.55 312.24 260.15 314.24 260.55 315.84 260.85 318.74 263.45 318.74 269.35 320.04 267.65 321.64 268.05 325.24 270.65 330.14 273.25 332.04 276.75 334.04 278.15 335.34 281.05 337.34 283.35 337.34 285.55 335.64 287.55 335.34 288.85 336.94 289.35 336.04 290.15 334.74 290.15 333.04 289.85 330.14 290.15 328.84 293.75 328.24 295.95 328.84 297.95 330.44 299.85 330.94 300.25 331.14 302.15 329.44 303.45 327.54 303.85 324.94 305.15 322.64 307.45 322.94 309.25 321.54 310.35 320.74 307.45 316.14"/><polygon class="cls-3" points="25.95 124.74 27.85 123.34 29.75 122.84 32.65 119.54 30.25 120.54 26.85 120.54 22.15 121.94 20.75 124.54 19.75 126.64 22.55 124.74 25.95 124.74"/><polygon class="cls-3" points="24.05 131.94 29.25 135.74 28.75 133.34 26.85 131.94 24.05 131.94"/><path class="cls-1" d="M314.55,343s.5-5.2,1.1-6.3c.5-1.3.9-2.6,1.3-4l.9,4.5-1.8,9.4Z"/><polygon class="cls-3" points="218.15 266.24 217.15 267.14 217.55 267.04 218.15 266.24"/><polygon class="cls-3" points="224.15 260.04 223.55 260.94 224.45 259.54 224.15 260.04"/><polygon class="cls-3" points="294.95 358.44 295.15 357.44 294.85 356.54 294.05 355.74 293.55 354.84 293.55 353.24 294.25 351.64 294.35 350.54 294.45 349.44 294.25 348.44 293.15 347.64 292.05 346.94 291.55 346.44 291.25 347.24 291.05 348.04 289.75 347.64 288.05 346.94 287.55 346.24 286.15 346.44 285.15 347.14 284.15 347.94 283.65 349.14 283.65 350.64 283.45 352.34 283.15 353.34 282.85 354.64 283.55 355.64 284.25 356.24 285.25 355.34 286.15 354.54 287.15 354.34 288.35 354.44 289.35 355.84 289.75 357.44 292.45 359.34 293.15 359.24 294.15 359.04 294.85 358.94 295.25 359.24 294.95 358.44"/><polygon class="cls-3" points="224.85 259.04 224.45 259.54 224.95 258.94 224.85 259.04"/><polygon class="cls-3" points="233.55 249.14 233.35 249.34 234.05 251.14 234.05 249.84 233.55 249.14"/><polygon class="cls-3" points="225.65 258.04 224.95 258.94 226.55 257.34 225.65 258.04"/><polygon class="cls-3" points="234.05 251.14 232.35 252.84 233.65 251.74 234.05 251.14"/><polygon class="cls-3" points="144.15 108.64 143.55 111.24 143.55 113.14 141.85 115.14 144.85 118.04 146.45 120.64 150.35 121.64 151.35 128.14 150.05 130.74 148.05 132.04 148.75 136.24 149.75 138.24 145.45 140.54 143.85 142.14 139.95 145.34 139.25 150.64 137.65 154.14 136.05 155.14 134.75 157.44 136.05 159.74 139.25 161.04 143.15 162.64 145.45 162.64 145.75 161.34 145.75 159.34 147.45 159.34 148.35 161.34 150.05 162.04 151.65 162.04 155.55 161.04 157.85 160.64 159.45 159.74 160.75 158.74 163.05 158.94 162.55 155.04 163.55 151.74 164.45 148.44 163.95 142.74 160.65 137.94 160.65 133.14 159.25 130.84 158.75 128.44 155.85 126.54 151.55 122.74 150.65 119.34 151.15 117.44 150.65 112.24 148.75 108.44 146.15 107.94 144.15 108.64"/><line class="cls-4" x1="188.65" y1="265.04" x2="187.75" y2="264.24"/><polyline class="cls-3" points="187.55 264.94 186.85 264.34 183.95 262.64 180.35 262.34 179.35 259.74 178.45 257.44 174.85 255.54 171.85 252.54 171.25 249.64 169.65 247.74 166.35 246.44 163.15 244.14 163.75 241.84 163.15 237.64 160.15 237.64 156.25 236.94 155.25 233.74 153.35 231.04 151.35 227.24 149.15 222.94 147.15 221.34 145.15 217.14 145.15 211.54 143.25 207.64 141.25 205.74 138.05 200.14 134.45 194.94 131.85 192.34 129.95 192.74 127.95 191.04 126.65 187.44 126.35 183.24 128.65 182.24 132.55 178.04 134.75 175.74 135.45 173.44 135.75 169.54 134.75 166.04 134.15 161.74 134.45 158.14 135.75 155.94 137.35 154.94 139.05 151.34 139.65 146.14 143.55 142.84 145.15 141.24 149.45 138.94 148.45 137.04 147.85 132.84 149.75 131.54 151.05 128.84 150.05 122.34 146.15 121.44 144.55 118.84 141.65 115.84 143.25 113.94 143.25 111.94 143.85 109.34 145.85 108.74 148.55 109.14 148.45 109.04 148.15 106.74 147.95 103.44 144.65 98.64 145.15 92.94 146.55 90.04 144.65 88.14 139.85 84.84 137.05 82.94 133.65 79.14 130.85 75.34 128.95 75.74 127.55 77.24 122.75 80.54 119.85 81.04 116.05 79.64 114.15 77.74 113.25 75.74 112.25 71.94 111.25 68.64 109.85 65.34 110.35 60.04 107.45 55.74 107.95 52.44 106.55 49.14 103.65 48.14 104.65 43.84 104.65 40.54 103.15 37.64 99.85 36.24 99.85 33.84 100.35 28.64 101.25 24.34 97.95 25.24 95.55 19.54 95.55 16.74 95.55 13.34 94.65 10.54 94.15 6.64 90.85 6.64 88.85 6.24 88.45 1.94 86.95 3.84 82.75 5.24 83.15 7.64 83.15 10.54 82.75 12.84 82.25 15.74 81.25 18.64 77.95 24.84 79.35 26.74 78.45 29.54 77.45 31.44 76.55 27.14 75.05 29.54 73.65 33.34 73.15 35.24 75.05 37.64 78.85 40.54 71.75 45.24 70.75 48.64 75.05 51.44 70.75 56.24 67.45 66.24 71.25 70.04 71.25 76.24 69.35 78.14 69.85 81.04 70.35 85.34 71.75 88.14 73.15 90.54 70.75 92.94 67.45 109.64 66.05 114.34 63.65 122.54 60.35 127.74 57.45 130.54 55.55 138.24 54.55 140.54 52.65 141.54 49.35 142.94 44.15 144.84 41.25 144.84 36.45 144.84 34.05 144.84 30.75 143.44 27.85 141.54 25.05 140.54 21.25 139.14 18.85 136.74 15.55 132.04 13.15 129.64 10.75 129.14 0.75 127.24 0.75 318.34 57.95 318.84 57.95 382.24 180.65 382.24 180.65 379.84 180.05 378.54 180.65 373.04 181.35 369.14 181.65 364.24 182.35 362.64 182.95 360.34 185.55 360.34 185.85 356.74 185.85 353.84 185.85 352.24 183.65 351.84 183.25 349.24 183.65 346.04 185.25 343.44 183.25 341.44 185.25 339.14 187.15 339.14 187.55 330.34 190.15 329.04 191.05 324.54 192.05 322.24 193.05 320.64 193.05 318.64 190.15 317.04 188.45 315.74 187.85 313.74 187.55 311.54 190.45 308.54 191.45 306.64 193.05 304.34 195.95 302.74 198.25 300.44 200.25 299.14 203.45 297.54 205.45 297.14 202.15 295.54 197.25 293.24 193.65 294.94 190.45 296.24 186.55 297.54 184.55 296.24 181.65 293.54 178.05 292.64 176.45 287.04 179.05 285.74 180.35 283.54 183.65 281.54 185.55 279.24 187.15 276.04 186.85 273.04 187.85 270.44 188.85 266.24 188.35 265.84"/><polygon class="cls-3" points="159.45 159.74 157.85 160.64 155.55 161.04 151.65 162.04 150.05 162.04 148.35 161.34 147.45 159.34 145.75 159.34 145.75 161.34 145.45 162.64 143.15 162.64 139.25 161.04 136.05 159.74 134.75 157.44 134.35 161.04 135.05 165.24 136.05 168.84 135.75 172.74 135.05 175.04 132.75 177.34 128.85 181.54 126.55 182.54 126.95 186.74 128.25 190.34 130.15 191.94 132.15 191.64 134.75 194.24 138.25 199.44 141.55 204.94 143.55 206.94 145.45 210.84 145.45 216.34 147.45 220.54 149.35 222.24 151.65 226.44 153.65 230.34 155.55 232.94 156.55 236.24 160.45 236.84 163.35 236.84 163.35 234.54 165.65 232.64 164.65 231.34 164.35 229.74 164.35 227.44 164.35 225.84 165.35 224.84 167.25 225.84 168.95 227.04 170.25 228.04 172.15 228.04 173.75 226.44 176.05 227.04 178.35 226.74 179.65 225.44 180.95 224.14 180.95 222.54 180.25 220.94 180.65 218.64 181.25 216.34 181.25 214.44 181.25 212.14 181.65 209.84 182.55 207.84 184.25 206.94 185.85 206.94 187.75 205.94 188.45 204.34 188.75 202.04 189.05 199.74 188.45 197.44 187.45 195.84 189.75 194.54 190.35 196.14 192.65 195.24 192.65 192.54 192.65 191.34 194.95 189.84 193.05 184.14 190.25 182.24 184.95 181.34 176.85 177.04 172.55 174.14 170.15 169.84 169.75 167.04 168.75 164.14 165.45 162.74 163.05 158.94 160.75 158.74 159.45 159.74"/><polygon class="cls-3" points="316.15 352.94 316.05 352.94 314.65 353.34 313.15 354.24 311.75 355.04 310.85 355.84 309.75 357.04 309.55 358.54 308.85 361.14 309.75 362.14 310.25 363.24 310.45 364.84 310.75 365.74 310.75 365.74 316.05 363.84 316.95 360.04 316.95 355.24 316.15 352.94"/><path class="cls-3" d="M310.25,363.24l-.5-1.1-.9-1,.6-2.6.3-1.5,1.1-1.2.9-.8,1.4-.8,1.5-.9,1.4-.4h0l-.6-1.5-3.3-7.6-2.9-3.8s-1.3.2-1.5.2a7.34,7.34,0,0,1-1.3-1l-.7-1.2-.5-1.3-.7-1.4-3-.4-1.4-.6-.3-1.6-.5-.8.1-1.2-1.9-.5-2-1.6-2.3-.6-3.6.6-.3,1.3.3,2.9v1.6l-.8,1.3.6,1.2.4,1.7.5,2.1.5,1.3-.4,1.1-.3,1.8,1,1.2-.1.3.5.5,1.1.7,1.2.8.2,1-.1,1.1-.1,1.1-.7,1.6v1.6l.4.9.8.8.3.9-.2,1,.4.8.6,1.8.8,1.7.4,1.3,1,1.1.7.6.4.5.8.6.4.5v.2l7.5-.4,2.9-1.4-.4-.9Z"/><polyline class="cls-3" points="291.55 346.44 291.65 346.14 290.65 344.94 290.95 343.14 291.35 342.04 290.75 340.84 290.35 338.74 289.85 337.04 289.25 335.84 288.65 336.84 287.35 335.14 285.45 335.44 283.15 337.14 280.85 337.14 277.95 335.14 276.65 333.84 273.05 331.94 270.45 329.94 267.85 325.04 267.55 321.44 269.15 319.84 263.25 318.54 260.65 318.54 260.35 315.64 260.05 314.04 259.35 312.04 256.75 311.04 255.45 310.94 255.15 314.64 252.85 314.64 250.95 314.64 247.95 315.34 244.75 316.34 241.85 316.34 237.95 316.34 233.35 317.54 228.45 318.54 225.25 315.64 222.65 313.04 224.55 311.74 224.55 309.74 223.55 308.44 219.65 306.84 218.75 304.24 216.15 303.24 211.55 303.24 208.65 300.94 206.95 298.04 205.65 296.44 203.75 296.74 200.45 298.34 198.55 299.74 196.25 301.94 193.35 303.54 191.65 305.84 190.75 307.84 187.75 310.74 188.15 313.04 188.75 314.94 190.35 316.34 193.35 317.94 193.35 319.84 192.35 321.44 191.35 323.74 190.35 328.34 187.75 329.64 187.45 338.44 185.45 338.44 183.55 340.74 185.45 342.64 183.85 345.24 183.55 348.54 183.85 351.14 186.15 351.44 186.15 353.04 186.15 355.94 185.85 359.54 183.25 359.54 182.55 361.84 181.95 363.44 181.65 368.34 180.95 372.24 180.25 377.84 180.95 379.14 180.95 381.44 223.05 381.44 226.45 380.04 230.75 376.24 234.05 372.94 238.35 374.84 244.05 372.94 251.65 370.94 257.35 372.44 265.05 376.24 271.65 379.04 271.65 381.94 275.05 384.84 279.35 380.94 285.95 378.14 286.95 372.94 289.35 370.54 292.65 366.74 297.95 367.64 300.45 367.54 300.45 367.34 300.05 366.94 299.25 366.24 298.75 365.74 298.05 365.14 297.05 364.04 296.75 362.74 295.95 361.04 295.25 359.24 295.25 359.24 294.85 358.94 294.15 359.04 293.15 359.24 292.45 359.34 289.75 357.44 289.35 355.84 288.35 354.44 287.15 354.34 286.15 354.54 285.25 355.34 284.25 356.24 283.55 355.64 282.85 354.64 283.15 353.34 283.45 352.34 283.65 350.64 283.65 349.14 284.15 347.94 285.15 347.14 286.15 346.44 287.55 346.24 288.05 346.94 289.75 347.64 291.05 348.04 291.25 347.24 291.55 346.44"/><path class="cls-3" d="M237.85,241.34l-2.9-2.4-1.4-4.3-1-1.9-1-4.8-2.4-3.3.5-2.9-1.9-3.8-2.9-1.4-6.2-5.2-.5-4.3,1.4-2.9-.5-4.3h-3.8l-5.7-4.8-5.2-2.4-7.6-1-1.9-1.9-2.3,1.4V195l-2.3,1-.6-1.6-2.3,1.3,1,1.6.6,2.3-.3,2.3-.3,2.3-.6,1.6-2,1h-1.6l-1.6,1-1,2-.3,2.3v4.2l-.7,2.3-.3,2.3.6,1.6v1.6l-1.3,1.3-1.3,1.3-2.3.3-2.3-.6-1.5,1.6h-2l-1.3-1-1.6-1.3-2-1-1,1v3.9l.3,1.6,1,1.3-2.3,2v2.3l.7,4.2-.7,2.3,3.3,2.3,3.3,1.3,1.6,2,.6,3,3,2.9,3.6,2,1,2.3,1,2.6,3.6.3,2.9,1.6.7.6.8.8.3-1.5-.2-1.3.3-1.6.3-.5,1.1-.8,1.6-.9,1.6-1.5.9-1.6.6-1.2.9-.4h1.6l2.5-2,2.5-1.9,1.4-.6h2l.9.6s.1,1.8.6,1.6a4.19,4.19,0,0,0,1.4-.9h1.9l.8,1-1.3.7.4,1.5H212l2.9.6,1.3.3v1.6l-.6,2.6v2.3l-.1,1.3-.2,1.6.9,2.5.2.6.9-.1,1-.9,1.2-1,1.9-2.1,1-.1.9-1.2.4-.9.6-.9.3-.5.4-.6.1-.1.6-.9.9-.6h1.3l2.6-1.3,2-3.3,1.6-1.6-.6-1.8.2-.3.7-1.2,1.5-.1h1.3l2-1.2,1.6-1.9,1-1Z"/><path class="cls-3" d="M287,287.14l-1.9-6.2-6.7-.5-1.9-2.4-2.3-2.9-3.8-1-5.3-5.3-3.3-4.3-1.4-2.9,2.4-9.5v-5.7l-2.4,1-2.4-.5-5.2-.5-2.9-4.3-5.2-1-1.4,5.7-1.4-3.3-1,1-1.6,1.9-2,1.2h-1.4l-1.5.1-.7,1.2.5.8V251l-.3.5-1.3,1.1-2,3.3-2.6,1.3h-1.3l-1.5,1.6-.5.7-.9,1.4-.4.9-.9,1.2-1,.1-1.9,2.1-1.2,1-.6.8-.4.1-.9.1-.2-.6-.9-2.5.2-1.6.1-1.3v-2.3l.6-2.6v-1.6l-1.3-.3-2.9-.6h-1.2l-.4-1.5,1.3-.7-.8-1h-1.9c-.5.3-.9.6-1.4.9-.4.1-.6-1.6-.6-1.6l-.9-.6h-2l-1.4.6-2.5,1.9-2.5,2h-1.6l-.9.4-.6,1.2-.9,1.6-1.7,1.5-1.6.9-1.1.8-.3.5-.3,1.6.2,1.3-.3,1.5.5.5-1,4.2-.9,2.6.3,2.9-1.6,3.3-2,2.3-3.3,2-1.3,2.3-2.5,1.3,1.6,5.5,3.6,1,2.9,2.6,2,1.3,3.9-1.3,3.3-1.3,3.6-1.6,4.9,2.3,3.3,1.6,1.3,1.6,1.6,2.9,2.9,2.3h4.5l2.6,1,1,2.6,3.9,1.6,1,1.3v2l-2,1.3,2.6,2.6,3.3,2.9,4.9-1,4.6-1.3H245l3.3-1,2.9-.6h4.2l.3-3.7v-.2l-.3-6.6,2-3.6v-4.6l2.3-3.6,2.6-1,2.9-1.6.3-2.6,3.3-2,1.6,1.3,1,2,2.6,1.3,1.6-1.6h1.3l1.3,2.3,2,1.6,2.3.3h3.9l1-3.3Z"/><path class="cls-3" d="M305,322.44l-1.3,2.3-.3,2.6-1.3,2-2,1.6-.4-.1-.1,1.2.4.8.3,1.6,1.3.6,3,.4.7,1.4.5,1.3.7,1.2a7.34,7.34,0,0,0,1.3,1c.2,0,1.5-.2,1.5-.2l1.9-7.6.5-3.8-.5-4.8-2.2-2.5-1.8,1.4Z"/><polygon class="cls-3" points="307.35 315.94 307.95 311.44 307.45 307.64 302.65 307.64 300.25 304.24 299.35 299.94 296.45 294.24 293.35 293.34 289.05 286.34 286.95 287.14 287.05 289.24 286.05 292.54 282.15 292.54 279.95 292.24 277.95 290.54 276.65 288.34 275.35 288.34 273.75 289.94 271.15 288.64 270.15 286.64 268.55 285.34 265.25 287.34 264.95 289.94 261.95 291.54 259.35 292.54 257.15 296.14 257.15 300.64 255.15 304.24 255.45 310.74 255.45 310.94 256.75 311.04 259.35 312.04 260.05 314.04 260.35 315.64 260.65 318.54 263.25 318.54 269.15 319.84 267.55 321.44 267.85 325.04 270.45 329.94 273.05 331.94 276.65 333.84 277.95 335.14 280.85 337.14 283.15 337.14 285.45 335.44 287.35 335.14 288.65 336.84 289.25 335.84 289.95 334.54 289.95 332.84 289.65 329.94 289.95 328.64 293.55 328.04 295.85 328.64 297.75 330.24 299.65 330.84 300.05 330.94 302.05 329.34 303.35 327.34 303.65 324.74 304.95 322.44 307.25 322.84 309.05 321.34 310.15 320.54 307.35 315.94"/><polygon class="cls-3" points="25.75 124.64 27.65 123.14 29.55 122.74 32.45 119.34 30.05 120.34 26.75 120.34 21.95 121.74 20.65 124.44 19.55 126.54 22.45 124.64 25.75 124.64"/><polygon class="cls-3" points="23.85 131.74 29.15 135.54 28.65 133.14 26.75 131.74 23.85 131.74"/><path class="cls-5" d="M314.35,342.84s.5-5.2,1.1-6.3c.5-1.3.9-2.6,1.3-4l.9,4.5-1.8,9.4Z"/><polygon class="cls-5" points="150.65 132.34 153.05 136.54 160.75 138.14 160.75 133.34 159.35 130.94 158.85 128.54 150.95 121.94 150.05 122.34 150.95 128.54 150.15 130.94 150.65 132.34"/><polygon class="cls-3" points="170.15 169.84 168.55 172.94 169.35 176.64 169.35 180.14 172.45 180.94 176.45 179.34 176.85 177.04 172.55 174.14 170.15 169.84"/><polygon class="cls-3" points="222.65 215.04 221.85 218.34 222.65 221.44 222.25 225.04 224.15 227.54 228.05 228.64 230.75 226.94 229.15 224.64 229.65 221.84 227.75 217.94 222.65 215.04"/><polygon class="cls-3" points="305.75 338.14 304.65 343.74 305.75 348.74 307.75 347.74 309.05 352.04 313.15 354.24 316.05 352.94 312.95 343.84 309.35 340.04 305.75 338.14"/><path class="cls-3" d="M267.85,325l-2.1,4.4s1.4,6.3,2.1,6.3,2.7,7,2.7,7l-2.4,3.9,2.4,3.8,2.7,2.4-2,2.9,5.6,4.6,3.4-.9,4.3.2,2.7-5.2-1.5.3-1.5.6-1.3.4.7-3.1.1-2.8.2-1.8,2.4-1.3,1.4-.3.5.7,3,1.1-.3-2,.3-1.3-.4-2.2.7-1.5-1.4-3.1-.5-1.6-1.4-.9-1-.8-3.3,1.5-1.7.9-1.3-.1-1.8-1.6-1.7-1.1-1.7-1.1-1.9-.8-1.9-1.4-1.6-1.8Z"/><polygon class="cls-3" points="304.75 306.74 306.05 287.94 302.65 282.44 301.85 292.44 301.65 296.44 299.75 299.54 304.75 306.74"/></g></g></svg>