<svg xmlns="http://www.w3.org/2000/svg" viewBox="0 0 318.61 385.88"><defs><style>.cls-1,.cls-3{fill:#7cb5ab;}.cls-1,.cls-2,.cls-3,.cls-4,.cls-5{stroke:#fff;stroke-miterlimit:10;stroke-width:1.5px;}.cls-1,.cls-2{opacity:0.5;isolation:isolate;}.cls-2,.cls-4{fill:none;}.cls-5{fill:#009786;}</style></defs><title>Goldcoast</title><g id="Layer_2" data-name="Layer 2"><g id="Layer_1-2" data-name="Layer 1"><polygon class="cls-1" points="218.35 266.39 217.35 267.29 217.75 267.19 218.35 266.39"/><polygon class="cls-1" points="224.35 260.19 223.75 261.09 224.65 259.69 224.35 260.19"/><polygon class="cls-1" points="295.05 358.59 295.25 357.59 294.95 356.69 294.15 355.89 293.75 354.99 293.75 353.39 294.45 351.79 294.55 350.69 294.65 349.59 294.45 348.59 293.35 347.79 292.25 347.09 291.75 346.59 291.35 347.39 291.25 348.19 289.95 347.79 288.25 347.09 287.75 346.39 286.25 346.59 285.25 347.29 284.35 348.09 283.85 349.19 283.85 350.79 283.55 352.49 283.35 353.49 283.05 354.79 283.65 355.79 284.35 356.29 285.45 355.39 286.35 354.59 287.35 354.39 288.55 354.49 289.55 355.99 289.95 357.59 292.55 359.49 293.35 359.39 294.25 359.09 294.95 358.99 295.45 359.39 295.05 358.59"/><polygon class="cls-1" points="225.05 259.09 224.65 259.69 225.15 258.99 225.05 259.09"/><polygon class="cls-1" points="233.75 249.29 233.55 249.49 234.15 251.29 234.15 249.99 233.75 249.29"/><polygon class="cls-1" points="225.75 258.09 225.15 258.99 226.65 257.49 225.75 258.09"/><polygon class="cls-1" points="234.15 251.29 232.55 252.99 233.85 251.89 234.15 251.29"/><polygon class="cls-1" points="144.35 108.69 143.65 111.39 143.65 113.29 142.05 115.29 144.95 118.19 146.55 120.79 150.55 121.79 151.45 128.29 150.15 130.89 148.25 132.19 148.85 136.39 149.85 138.39 145.65 140.69 143.95 142.29 140.05 145.49 139.45 150.69 137.85 154.29 136.15 155.29 134.85 157.59 136.15 159.79 139.45 161.19 143.35 162.79 145.65 162.79 145.95 161.49 145.95 159.49 147.55 159.49 148.55 161.49 150.15 162.09 151.85 162.09 155.75 161.19 157.95 160.79 159.65 159.79 160.95 158.89 163.25 158.99 162.75 155.19 163.65 151.89 164.65 148.59 164.15 142.79 160.85 138.09 160.85 133.29 159.35 130.89 158.95 128.49 156.05 126.59 151.75 122.79 150.85 119.49 151.25 117.59 150.85 112.29 148.95 108.49 146.25 108.09 144.35 108.69"/><line class="cls-2" x1="188.75" y1="265.19" x2="187.95" y2="264.29"/><polyline class="cls-1" points="187.95 264.29 187.25 263.69 184.35 262.09 180.75 261.69 179.85 259.09 178.85 256.89 175.25 254.89 172.35 251.99 171.65 248.99 170.05 247.09 166.75 245.79 163.55 243.49 164.15 241.19 163.55 236.99"/><polygon class="cls-1" points="159.65 159.79 157.95 160.79 155.75 161.19 151.85 162.09 150.15 162.09 148.55 161.49 147.55 159.49 145.95 159.49 145.95 161.49 145.65 162.79 143.35 162.79 139.45 161.19 136.15 159.79 134.85 157.59 134.55 161.19 135.25 165.39 136.15 168.99 135.85 172.89 135.25 175.19 132.95 177.39 129.05 181.69 126.75 182.59 127.05 186.89 128.35 190.49 130.35 192.09 132.25 191.79 134.85 194.39 138.45 199.59 141.75 205.09 143.65 206.99 145.65 210.99 145.65 216.49 147.55 220.69 149.55 222.29 151.85 226.59 153.75 230.49 155.75 233.09 156.75 236.29 160.55 236.99 163.55 236.99 163.55 234.69 165.85 232.79 164.85 231.49 164.55 229.79 164.55 227.59 164.55 225.89 165.45 224.99 167.45 225.89 169.05 227.19 170.35 228.19 172.35 228.19 173.95 226.59 176.25 227.19 178.45 226.89 179.85 225.59 181.15 224.29 181.15 222.69 180.45 220.99 180.75 218.79 181.45 216.49 181.45 214.49 181.45 212.29 181.75 209.99 182.75 207.99 184.35 206.99 185.95 206.99 187.95 206.09 188.55 204.49 188.95 202.19 189.25 199.89 188.55 197.59 187.65 195.99 189.85 194.69 190.55 196.29 192.85 195.29 192.85 192.69 192.85 191.39 195.15 189.99 193.25 184.29 190.35 182.39 185.15 181.49 177.05 177.19 172.75 174.29 170.35 169.99 169.85 167.19 168.95 164.29 165.55 162.89 163.25 158.99 160.95 158.89 159.65 159.79"/><polygon class="cls-1" points="316.25 353.09 316.25 353.09 314.75 353.49 313.25 354.39 311.95 355.19 311.05 355.99 309.95 357.19 309.65 358.69 309.05 361.29 309.95 362.29 310.35 363.39 310.55 364.99 310.95 365.89 310.95 365.89 316.15 363.99 317.15 360.19 317.15 355.39 316.25 353.09"/><path class="cls-1" d="M310.35,363.39l-.4-1.1-.9-1,.6-2.6.3-1.5,1.1-1.2.9-.8,1.3-.8,1.5-.9,1.4-.4h0l-.6-1.5-3.3-7.6-2.9-3.8s-1.3.2-1.5.2a8.47,8.47,0,0,1-1.4-1l-.7-1.2-.4-1.3-.7-1.4-3-.4-1.3-.6-.3-1.6-.4-.8.2-1.2-1.9-.5-2-1.6-2.3-.6-3.6.6-.3,1.3.3,2.9v1.6l-.8,1.3.7,1.2.4,1.7.5,2.1.5,1.3-.3,1.1-.3,1.8,1,1.2-.1.3.5.5,1.1.7,1.2.8.2,1-.1,1.1-.1,1.1-.7,1.6V355l.5.9.8.8.3.9-.2,1,.4.8.6,1.8.8,1.7.4,1.3,1,1.1.7.6.5.5.8.6.4.5v.2l7.5-.4,2.8-1.4-.4-.9Z"/><polyline class="cls-1" points="291.75 346.59 291.85 346.29 290.85 345.09 291.15 343.29 291.45 342.19 290.95 340.99 290.45 338.89 290.05 337.19 289.35 335.99 288.85 336.89 287.55 335.29 285.55 335.59 283.35 337.29 281.05 337.29 278.15 335.29 276.85 333.99 273.25 331.99 270.65 330.09 268.05 325.19 267.65 321.59 269.35 319.99 263.45 318.69 260.85 318.69 260.55 315.79 260.25 314.19 259.55 312.19 256.95 311.19 255.65 311.09 255.35 314.79 253.05 314.79 251.05 314.79 248.15 315.39 244.95 316.39 241.95 316.39 238.05 316.39 233.55 317.69 228.65 318.69 225.35 315.79 222.75 313.19 224.75 311.89 224.75 309.89 223.75 308.59 219.85 306.99 218.85 304.39 216.25 303.39 211.75 303.39 208.75 301.09 207.15 298.19 205.85 296.59 203.85 296.89 200.65 298.49 198.65 299.79 196.45 302.09 193.45 303.69 191.85 305.99 190.85 307.99 187.95 310.89 188.25 313.19 188.95 315.09 190.55 316.39 193.45 317.99 193.45 319.99 192.45 321.59 191.55 323.89 190.55 328.49 187.95 329.79 187.65 338.59 185.65 338.59 183.75 340.79 185.65 342.79 184.05 345.39 183.75 348.69 184.05 351.29 186.35 351.59 186.35 353.19 186.35 356.09 185.95 359.69 183.35 359.69 182.75 361.99 182.05 363.59 181.75 368.49 181.15 372.39 180.45 377.89 181.15 379.29 181.15 381.59 223.25 381.59 226.55 380.19 230.85 376.39 234.25 372.99 238.45 374.89 244.25 372.99 251.85 371.09 257.55 372.49 265.15 376.39 271.85 379.19 271.85 382.09 275.15 384.89 279.45 381.09 286.15 378.29 287.15 372.99 289.45 370.69 292.85 366.79 298.05 367.79 300.65 367.69 300.55 367.49 300.25 366.99 299.45 366.39 298.95 365.89 298.25 365.29 297.25 364.19 296.85 362.89 296.05 361.19 295.45 359.39 295.45 359.39 294.95 358.99 294.25 359.09 293.35 359.39 292.55 359.49 289.95 357.59 289.55 355.99 288.55 354.49 287.35 354.39 286.35 354.59 285.45 355.39 284.35 356.29 283.65 355.79 283.05 354.79 283.35 353.49 283.55 352.49 283.85 350.79 283.85 349.19 284.35 348.09 285.25 347.29 286.25 346.59 287.75 346.39 288.25 347.09 289.95 347.79 291.25 348.19 291.35 347.39 291.75 346.59"/><path class="cls-1" d="M238,241.49l-2.9-2.4-1.4-4.3-1-1.9-1-4.8-2.4-3.3.5-2.9-1.9-3.8-2.8-1.4-6.2-5.2-.5-4.3,1.4-2.9-.5-4.3h-3.8l-5.7-4.7-5.2-2.4-7.7-1L195,190l-2.3,1.4v3.9l-2.3,1-.6-1.6-2.3,1.3,1,1.6.6,2.3-.3,2.3-.3,2.3-.7,1.6-2,1h-1.6l-1.6,1-1,2-.3,2.2v4.2l-.7,2.3-.3,2.3.7,1.6v1.6l-1.3,1.3-1.3,1.3-2.3.3-2.3-.6-1.6,1.6h-2l-1.3-1-1.6-1.3-2-1-1,1v3.9l.3,1.6,1,1.3-2.3,2V237l.7,4.2-.7,2.3,3.3,2.3,3.3,1.3,1.6,2,.7,2.9,2.9,2.9,3.6,2,1,2.3,1,2.6,3.6.3,2.9,1.6.6.6.8.8.3-1.5-.2-1.3.3-1.6.3-.5,1.1-.8,1.6-.9,1.6-1.5.9-1.6.6-1.2.9-.4h1.6l2.5-2,2.5-1.9,1.4-.6h2l.9.6s.2,1.8.6,1.6a4.19,4.19,0,0,0,1.4-.9h1.9l.8,1-1.3.7.4,1.5h1.1l2.9.6,1.3.3v1.6l-.7,2.6v2.3l-.1,1.3-.2,1.6.9,2.5.2.6.9-.1,1-.9,1.2-1,1.9-2.1,1-.1.9-1.2.4-.9.6-.9.3-.5.4-.6.1-.1.6-.9.9-.6h1.3l2.6-1.3,2-3.3,1.6-1.8-.6-1.8.2-.3.7-1.2,1.5-.1h1.3l2-1.2,1.6-1.9,1-1Z"/><path class="cls-1" d="M287.15,287.29l-1.9-6.2-6.7-.5-1.9-2.4-2.4-2.9-3.8-1-5.2-5.2-3.3-4.3-1.4-2.9,2.4-9.5v-5.7l-2.4,1-2.4-.5-5.2-.5-2.8-4.3-5.2-1-1.4,5.7-1.4-3.3-1,1-1.6,1.9-2,1.2h-1.3l-1.5.1-.7,1.2.5.8v1.3l-.3.5-1.3,1.1-2,3.3-2.6,1.3h-1.3l-1.6,1.5-.5.7-.9,1.4-.4.9-.9,1.2-1,.1-1.9,2.1-1.2,1-.6.8-.4.1-.9.1-.2-.6-.9-2.5.2-1.6.1-1.3v-2.3l.7-2.6v-1.6l-1.3-.3-3-.7h-1.2l-.4-1.5,1.3-.7-.8-1h-1.8c-.5.3-.9.6-1.4.9-.4.1-.6-1.6-.6-1.6l-.9-.6h-2l-1.4.6-2.5,1.9-2.5,2h-1.6l-.9.4-.6,1.2-.9,1.6-1.6,1.5-1.6.9-1.1.8-.3.5-.3,1.6.2,1.3-.3,1.5.5.5-1,4.2-1,2.6.3,2.9-1.5,3.3-2,2.3-3.3,2-1.3,2.3-2.6,1.3,1.6,5.5,3.6,1,2.9,2.6,2,1.3,3.9-1.3,3.3-1.4,3.6-1.6,4.9,2.3,3.3,1.6,1.3,1.6,1.6,2.9,2.9,2.3h4.6l2.6,1,1,2.6,3.9,1.6,1,1.3v2l-2,1.3,2.6,2.6,3.3,2.9,4.9-1,4.6-1.3h6.8l3.3-1,2.9-.6h4.2l.3-3.7v-.2l-.3-6.5,2-3.6v-4.6l2.3-3.6,2.6-1,2.9-1.6.3-2.6,3.3-2,1.6,1.3,1,2,2.6,1.3,1.6-1.6h1.3l1.3,2.3,2,1.6,2.3.3h3.9l1-3.3Z"/><path class="cls-1" d="M305.15,322.59l-1.3,2.3-.3,2.6-1.3,2-2,1.6-.4-.1-.2,1.2.5.8.3,1.6,1.4.6,3,.4.7,1.4.4,1.3.7,1.2a7.34,7.34,0,0,0,1.3,1c.2,0,1.5-.2,1.5-.2l1.9-7.6.5-3.8-.5-4.8-2.2-2.4-1.8,1.4Z"/><polygon class="cls-1" points="307.55 316.09 308.05 311.49 307.65 307.69 302.85 307.69 300.45 304.39 299.45 300.09 296.65 294.39 293.55 293.49 289.15 286.49 287.15 287.19 287.25 289.39 286.25 292.69 282.35 292.69 280.05 292.29 278.15 290.69 276.85 288.39 275.55 288.39 273.85 290.09 271.25 288.79 270.35 286.79 268.65 285.49 265.45 287.39 265.05 290.09 262.15 291.69 259.55 292.69 257.25 296.19 257.25 300.79 255.35 304.39 255.65 310.89 255.65 311.09 256.95 311.19 259.55 312.19 260.25 314.19 260.55 315.79 260.85 318.69 263.45 318.69 269.35 319.99 267.65 321.59 268.05 325.19 270.65 330.09 273.25 331.99 276.85 333.99 278.15 335.29 281.05 337.29 283.35 337.29 285.55 335.59 287.55 335.29 288.85 336.89 289.35 335.99 290.15 334.69 290.15 332.99 289.85 330.09 290.15 328.79 293.75 328.19 296.05 328.79 297.95 330.39 299.85 330.89 300.25 331.09 302.15 329.39 303.45 327.49 303.85 324.89 305.15 322.59 307.45 322.89 309.25 321.49 310.35 320.69 307.55 316.09"/><polygon class="cls-3" points="25.95 124.69 27.85 123.29 29.75 122.79 32.65 119.49 30.25 120.49 26.95 120.49 22.15 121.89 20.75 124.49 19.75 126.59 22.65 124.69 25.95 124.69"/><polygon class="cls-3" points="24.05 131.89 29.25 135.69 28.75 133.29 26.95 131.89 24.05 131.89"/><path class="cls-1" d="M314.55,343s.5-5.2,1.1-6.3c.5-1.3.9-2.6,1.3-4l.9,4.5-1.8,9.4Z"/><polygon class="cls-3" points="218.15 266.19 217.15 267.09 217.55 266.99 218.15 266.19"/><polygon class="cls-3" points="224.15 259.99 223.55 260.89 224.45 259.49 224.15 259.99"/><polygon class="cls-3" points="294.95 358.39 295.15 357.39 294.85 356.49 294.05 355.69 293.55 354.79 293.55 353.19 294.35 351.59 294.35 350.49 294.45 349.39 294.35 348.39 293.15 347.59 292.05 346.89 291.55 346.39 291.25 347.19 291.05 347.99 289.85 347.59 288.15 346.89 287.55 346.19 286.15 346.39 285.15 347.09 284.15 347.89 283.65 349.09 283.65 350.59 283.45 352.29 283.15 353.29 282.85 354.59 283.55 355.59 284.25 356.19 285.35 355.29 286.25 354.49 287.15 354.29 288.35 354.39 289.35 355.79 289.85 357.39 292.45 359.29 293.15 359.19 294.15 358.99 294.85 358.89 295.35 359.19 294.95 358.39"/><polygon class="cls-3" points="224.95 258.99 224.45 259.49 224.95 258.89 224.95 258.99"/><polygon class="cls-3" points="233.55 249.09 233.35 249.29 234.05 251.09 234.05 249.79 233.55 249.09"/><polygon class="cls-3" points="225.65 257.99 224.95 258.89 226.55 257.29 225.65 257.99"/><polygon class="cls-3" points="234.05 251.09 232.35 252.79 233.65 251.69 234.05 251.09"/><polygon class="cls-3" points="144.15 108.59 143.55 111.19 143.55 113.09 141.95 115.09 144.85 117.99 146.45 120.59 150.35 121.59 151.35 128.09 150.05 130.69 148.05 131.99 148.75 136.19 149.75 138.19 145.45 140.49 143.85 142.09 139.95 145.29 139.25 150.59 137.65 154.09 136.05 155.09 134.75 157.39 136.05 159.69 139.25 160.99 143.25 162.59 145.45 162.59 145.85 161.29 145.85 159.29 147.45 159.29 148.45 161.29 150.05 161.99 151.65 161.99 155.55 160.99 157.85 160.59 159.45 159.69 160.75 158.69 163.05 158.89 162.55 154.99 163.55 151.69 164.45 148.39 163.95 142.69 160.65 137.89 160.65 133.09 159.25 130.79 158.75 128.39 155.95 126.49 151.55 122.69 150.65 119.29 151.15 117.39 150.65 112.19 148.75 108.39 146.15 107.89 144.15 108.59"/><line class="cls-4" x1="188.65" y1="264.99" x2="187.75" y2="264.19"/><polyline class="cls-3" points="187.55 264.89 186.85 264.29 183.95 262.59 180.35 262.29 179.35 259.69 178.45 257.39 174.85 255.49 171.95 252.49 171.25 249.59 169.65 247.69 166.35 246.39 163.15 244.09 163.75 241.79 163.15 237.59 160.15 237.59 156.25 236.89 155.35 233.69 153.35 230.99 151.35 227.19 149.15 222.89 147.15 221.29 145.25 217.09 145.25 211.49 143.25 207.59 141.35 205.69 138.05 200.09 134.45 194.89 131.85 192.29 129.95 192.69 127.95 190.99 126.65 187.39 126.35 183.19 128.65 182.19 132.55 177.99 134.75 175.69 135.45 173.39 135.75 169.49 134.75 165.99 134.15 161.69 134.45 158.09 135.75 155.89 137.35 154.89 139.05 151.29 139.65 146.09 143.55 142.79 145.25 141.19 149.45 138.89 148.45 136.99 147.85 132.79 149.75 131.49 151.05 128.79 150.05 122.29 146.15 121.39 144.55 118.79 141.65 115.79 143.25 113.89 143.25 111.89 143.95 109.29 145.85 108.69 148.55 109.09 148.45 108.99 148.15 106.69 148.05 103.39 144.65 98.59 145.15 92.89 146.55 89.99 144.65 88.09 139.95 84.79 137.05 82.89 133.75 79.09 130.85 75.29 128.95 75.69 127.55 77.19 122.75 80.49 119.85 80.99 116.05 79.59 114.15 77.69 113.25 75.69 112.25 71.89 111.35 68.59 109.85 65.29 110.35 59.99 107.45 55.69 107.95 52.39 106.55 49.09 103.65 48.09 104.65 43.79 104.65 40.49 103.25 37.59 99.85 36.19 99.85 33.79 100.35 28.59 101.35 24.29 97.95 25.19 95.55 19.49 95.55 16.69 95.55 13.29 94.65 10.49 94.15 6.59 90.85 6.59 88.95 6.19 88.45 1.89 86.95 3.79 82.75 5.19 83.15 7.59 83.15 10.49 82.75 12.79 82.25 15.69 81.25 18.59 77.95 24.79 79.35 26.69 78.45 29.49 77.45 31.39 76.55 27.09 75.05 29.49 73.65 33.29 73.15 35.19 75.05 37.59 78.95 40.49 71.75 45.19 70.75 48.59 75.05 51.39 70.75 56.19 67.45 66.19 71.25 69.99 71.25 76.19 69.35 78.09 69.85 80.99 70.35 85.29 71.75 88.09 73.15 90.49 70.75 92.89 67.45 109.59 66.05 114.29 63.65 122.49 60.35 127.69 57.45 130.49 55.55 138.19 54.55 140.49 52.65 141.49 49.35 142.89 44.15 144.79 41.25 144.79 36.45 144.79 34.15 144.79 30.75 143.39 27.95 141.49 25.05 140.49 21.25 139.09 18.85 136.69 15.55 131.99 13.15 129.59 10.75 129.09 0.75 127.19 0.75 318.29 57.95 318.79 57.95 382.19 180.65 382.19 180.65 379.79 180.05 378.49 180.65 372.99 181.35 369.09 181.65 364.19 182.35 362.59 182.95 360.29 185.55 360.29 185.95 356.69 185.95 353.79 185.95 352.19 183.65 351.79 183.25 349.19 183.65 345.99 185.25 343.39 183.25 341.39 185.25 339.09 187.25 339.09 187.55 330.29 190.15 328.99 191.15 324.49 192.05 322.19 193.05 320.59 193.05 318.59 190.15 316.99 188.55 315.69 187.85 313.69 187.55 311.49 190.45 308.49 191.45 306.59 193.05 304.29 195.95 302.69 198.25 300.39 200.25 299.09 203.45 297.49 205.45 297.09 202.15 295.49 197.25 293.19 193.75 294.89 190.45 296.19 186.55 297.49 184.55 296.19 181.65 293.49 178.05 292.59 176.45 286.99 179.05 285.69 180.35 283.49 183.65 281.49 185.55 279.19 187.25 275.99 186.85 272.99 187.85 270.39 188.85 266.19 188.35 265.79"/><polygon class="cls-3" points="159.45 159.69 157.85 160.59 155.55 160.99 151.65 161.99 150.05 161.99 148.45 161.29 147.45 159.29 145.85 159.29 145.85 161.29 145.45 162.59 143.25 162.59 139.25 160.99 136.05 159.69 134.75 157.39 134.45 160.99 135.05 165.19 136.05 168.79 135.75 172.69 135.05 174.99 132.75 177.29 128.85 181.49 126.65 182.49 126.95 186.69 128.25 190.29 130.15 191.89 132.15 191.59 134.75 194.19 138.35 199.39 141.55 204.89 143.55 206.89 145.45 210.79 145.45 216.29 147.45 220.49 149.35 222.19 151.65 226.39 153.65 230.29 155.55 232.89 156.55 236.19 160.45 236.79 163.35 236.79 163.35 234.49 165.65 232.59 164.65 231.29 164.35 229.69 164.35 227.39 164.35 225.79 165.35 224.79 167.25 225.79 168.95 226.99 170.25 227.99 172.15 227.99 173.85 226.39 176.05 226.99 178.35 226.69 179.65 225.39 180.95 224.09 180.95 222.49 180.35 220.89 180.65 218.59 181.25 216.29 181.25 214.39 181.25 212.09 181.65 209.79 182.55 207.79 184.25 206.89 185.85 206.89 187.75 205.89 188.45 204.29 188.75 201.99 189.05 199.69 188.45 197.39 187.45 195.79 189.75 194.49 190.35 196.09 192.65 195.19 192.65 192.49 192.65 191.29 194.95 189.79 193.05 184.09 190.25 182.19 184.95 181.29 176.85 176.99 172.55 174.09 170.15 169.79 169.75 166.99 168.75 164.09 165.45 162.69 163.05 158.89 160.75 158.69 159.45 159.69"/><polygon class="cls-5" points="316.15 352.89 316.05 352.89 314.65 353.29 313.15 354.19 311.75 354.99 310.85 355.79 309.75 356.99 309.55 358.49 308.85 361.09 309.75 362.09 310.25 363.19 310.45 364.79 310.75 365.69 310.75 365.69 316.05 363.79 316.95 359.99 316.95 355.19 316.15 352.89"/><path class="cls-3" d="M310.25,363.19l-.4-1.1-.9-1,.6-2.6.3-1.5,1.1-1.2.9-.8,1.3-.8,1.5-.9,1.4-.4h0l-.6-1.5-3.3-7.6-2.9-3.8s-1.3.2-1.5.2a7.34,7.34,0,0,1-1.3-1l-.7-1.2-.4-1.3-.7-1.4-3-.4-1.4-.6-.3-1.6-.5-.8.2-1.2-1.9-.5-2-1.6-2.3-.6-3.6.6-.3,1.3.3,2.9v1.6l-.8,1.3.7,1.2.4,1.7.5,2.1.5,1.3-.4,1.1-.3,1.8,1,1.2-.1.3.5.5,1.1.7,1.2.8.2,1-.1,1.1-.1,1.1-.7,1.6v1.6l.5.9.8.8.3.9-.2,1,.4.8.6,1.8.8,1.7.4,1.3,1,1.1.7.6.5.5.8.6.4.5v.2l7.5-.4,2.8-1.4-.4-.9Z"/><polyline class="cls-3" points="291.55 346.39 291.65 346.09 290.75 344.89 290.95 343.09 291.35 341.99 290.85 340.79 290.35 338.69 289.85 336.99 289.25 335.79 288.65 336.79 287.35 335.09 285.45 335.39 283.15 337.09 280.85 337.09 277.95 335.09 276.65 333.79 273.05 331.89 270.45 329.89 267.85 324.99 267.55 321.39 269.15 319.79 263.35 318.49 260.75 318.49 260.35 315.59 260.05 313.99 259.35 311.99 256.85 310.99 255.45 310.89 255.15 314.59 252.95 314.59 250.95 314.59 248.05 315.29 244.75 316.29 241.85 316.29 237.95 316.29 233.35 317.49 228.45 318.49 225.25 315.59 222.65 312.99 224.55 311.69 224.55 309.69 223.55 308.39 219.65 306.79 218.75 304.19 216.15 303.19 211.55 303.19 208.65 300.89 206.95 297.99 205.65 296.39 203.75 296.69 200.45 298.29 198.55 299.69 196.25 301.89 193.35 303.49 191.65 305.79 190.75 307.79 187.75 310.69 188.15 312.99 188.75 314.89 190.35 316.29 193.35 317.89 193.35 319.79 192.35 321.39 191.35 323.69 190.35 328.29 187.75 329.59 187.45 338.39 185.55 338.39 183.55 340.69 185.55 342.59 183.85 345.19 183.55 348.49 183.85 351.09 186.15 351.39 186.15 352.99 186.15 355.89 185.85 359.49 183.25 359.49 182.55 361.79 181.95 363.39 181.65 368.29 180.95 372.19 180.35 377.79 180.95 379.09 180.95 381.39 223.05 381.39 226.45 379.99 230.75 376.19 234.05 372.89 238.35 374.79 244.05 372.89 251.65 370.89 257.35 372.39 265.05 376.19 271.65 378.99 271.65 381.89 275.05 384.79 279.35 380.89 285.95 378.09 286.95 372.89 289.35 370.49 292.65 366.69 297.95 367.59 300.45 367.49 300.45 367.29 300.05 366.89 299.25 366.19 298.85 365.69 298.05 365.09 297.15 363.99 296.75 362.69 295.95 360.99 295.35 359.19 295.35 359.19 294.85 358.89 294.15 358.99 293.15 359.19 292.45 359.29 289.85 357.39 289.35 355.79 288.35 354.39 287.15 354.29 286.25 354.49 285.35 355.29 284.25 356.19 283.55 355.59 282.85 354.59 283.15 353.29 283.45 352.29 283.65 350.59 283.65 349.09 284.15 347.89 285.15 347.09 286.15 346.39 287.55 346.19 288.15 346.89 289.85 347.59 291.05 347.99 291.25 347.19 291.55 346.39"/><path class="cls-3" d="M237.85,241.29l-2.9-2.4-1.4-4.3-1-1.9-1-4.8-2.4-3.3.5-2.9-1.9-3.8-2.9-1.4-6.2-5.2-.5-4.3,1.4-2.9-.5-4.3h-3.8l-5.7-4.8-5.2-2.4-7.6-1-1.9-1.9-2.3,1.4V195l-2.3,1-.7-1.6-2.3,1.3,1,1.6.7,2.3-.3,2.3-.3,2.3-.7,1.6-2,1h-1.6l-1.6,1-1,2-.3,2.3v4.2l-.7,2.3-.3,2.3.7,1.6v1.6l-1.3,1.3-1.3,1.3-2.3.3-2.3-.6-1.5,1.6h-2l-1.3-1-1.6-1.3-2-1-1,1v3.9l.3,1.6,1,1.3-2.3,2v2.3l.7,4.2-.7,2.3,3.3,2.3,3.3,1.3,1.6,2,.6,3,3,2.9,3.6,2,1,2.3,1,2.6,3.6.3,2.9,1.6.6.6.8.8.3-1.5-.2-1.3.3-1.6.3-.5,1.1-.8,1.6-.9,1.6-1.5.9-1.6.6-1.2.9-.4h1.6l2.5-2,2.5-1.9,1.4-.6h2l.9.6s.2,1.8.6,1.6a4.19,4.19,0,0,0,1.4-.9h1.9l.8,1-1.3.7.4,1.5h1.2l2.9.6,1.3.3v1.6l-.7,2.6v2.3l-.1,1.3-.2,1.6.9,2.5.2.6.9-.1,1-.9,1.2-1,1.9-2.1,1-.1.9-1.2.4-.9.6-.9.3-.5.4-.6.1-.1.6-.9.9-.6h1.3l2.6-1.3,2-3.3,1.6-1.6-.6-1.8.2-.3.7-1.2,1.5-.1H237l2-1.2,1.6-1.9,1-1Z"/><path class="cls-3" d="M287,287.09l-1.9-6.2-6.7-.5-1.9-2.4-2.3-2.9-3.8-1-5.3-5.3-3.3-4.3-1.4-2.9,2.4-9.5v-5.7l-2.4,1-2.4-.5-5.2-.5-2.9-4.3-5.2-1-1.4,5.7-1.4-3.3-1,1-1.6,1.9-2,1.2h-1.4l-1.5.1-.7,1.2.5.8V251l-.3.5-1.3,1.1-2,3.3-2.6,1.3h-1.3l-1.5,1.6-.5.7-.9,1.4-.4.9-.9,1.2-1,.1-1.9,2.1-1.2,1-.6.8-.4.1-.9.1-.2-.6-.9-2.5.2-1.6.1-1.3v-2.3l.7-2.6v-1.6l-1.3-.3-2.9-.6H211l-.4-1.5,1.3-.7-.8-1h-1.9c-.5.3-.9.6-1.4.9-.4.1-.6-1.6-.6-1.6l-.9-.6h-2l-1.4.6-2.5,1.9-2.5,2h-1.6l-.9.4-.6,1.2-.9,1.6-1.7,1.5-1.6.9-1.1.8-.3.5-.3,1.6.2,1.3-.3,1.5.5.5-1,4.2-.9,2.6.3,2.9-1.6,3.3-2,2.3-3.3,2-1.3,2.3-2.5,1.3,1.6,5.5,3.6,1,2.9,2.6,2,1.3,3.9-1.3,3.3-1.3,3.6-1.6,4.9,2.3,3.3,1.6,1.3,1.6,1.6,2.9,2.9,2.3h4.5l2.6,1,1,2.6,3.9,1.6,1,1.3v2l-2,1.3,2.6,2.6,3.3,2.9,4.9-1,4.6-1.3h6.8l3.3-1,2.9-.6h4.2l.3-3.7v-.2l-.3-6.6,2-3.6v-4.6l2.3-3.6,2.6-1,2.9-1.6.3-2.6,3.3-2,1.6,1.3,1,2,2.6,1.3,1.6-1.6H277l1.3,2.3,2,1.6,2.3.3h3.9l1-3.3Z"/><path class="cls-3" d="M305,322.39l-1.3,2.3-.3,2.6-1.3,2-2,1.6-.4-.1-.2,1.2.5.8.3,1.6,1.3.6,3,.4.7,1.4.5,1.3.7,1.2a7.34,7.34,0,0,0,1.3,1c.2,0,1.5-.2,1.5-.2l1.9-7.6.5-3.8-.5-4.8-2.2-2.5-1.8,1.4Z"/><polygon class="cls-3" points="307.35 315.89 307.95 311.39 307.45 307.59 302.65 307.59 300.25 304.19 299.35 299.89 296.45 294.19 293.35 293.29 289.05 286.29 286.95 287.09 287.05 289.19 286.15 292.49 282.15 292.49 279.95 292.19 277.95 290.49 276.65 288.29 275.35 288.29 273.75 289.89 271.15 288.59 270.15 286.59 268.55 285.29 265.25 287.29 264.95 289.89 262.05 291.49 259.35 292.49 257.15 296.09 257.15 300.59 255.15 304.19 255.45 310.69 255.45 310.89 256.85 310.99 259.35 311.99 260.05 313.99 260.35 315.59 260.75 318.49 263.35 318.49 269.15 319.79 267.55 321.39 267.85 324.99 270.45 329.89 273.05 331.89 276.65 333.79 277.95 335.09 280.85 337.09 283.15 337.09 285.45 335.39 287.35 335.09 288.65 336.79 289.25 335.79 289.95 334.49 289.95 332.79 289.65 329.89 289.95 328.59 293.55 327.99 295.85 328.59 297.85 330.19 299.65 330.79 300.05 330.89 302.05 329.29 303.35 327.29 303.65 324.69 304.95 322.39 307.25 322.79 309.05 321.29 310.15 320.49 307.35 315.89"/><polygon class="cls-3" points="25.75 124.59 27.65 123.09 29.65 122.69 32.45 119.29 30.05 120.29 26.75 120.29 21.95 121.69 20.65 124.39 19.65 126.49 22.45 124.59 25.75 124.59"/><polygon class="cls-3" points="23.85 131.69 29.15 135.49 28.65 133.09 26.75 131.69 23.85 131.69"/><path class="cls-5" d="M314.35,342.79s.5-5.2,1.1-6.3c.5-1.3.9-2.6,1.3-4l.9,4.5-1.8,9.4Z"/><polygon class="cls-3" points="150.65 132.29 153.15 136.49 160.85 138.09 160.85 133.29 159.35 130.89 158.95 128.49 150.95 121.89 150.05 122.29 150.95 128.49 150.15 130.89 150.65 132.29"/><polygon class="cls-3" points="170.15 169.79 168.55 172.89 169.35 176.59 169.35 180.09 172.45 180.89 176.45 179.29 176.85 176.99 172.55 174.09 170.15 169.79"/><polygon class="cls-3" points="222.65 214.99 221.85 218.29 222.65 221.39 222.25 224.99 224.15 227.49 228.15 228.59 230.75 226.89 229.15 224.59 229.65 221.79 227.75 217.89 222.65 214.99"/><polygon class="cls-3" points="305.75 338.09 304.65 343.69 305.75 348.69 307.75 347.69 309.05 351.99 313.15 354.19 316.05 352.89 312.95 343.79 309.35 339.99 305.75 338.09"/><path class="cls-3" d="M267.85,325l-2.1,4.4s1.4,6.3,2.1,6.3,2.7,7,2.7,7l-2.4,3.9,2.4,3.8,2.7,2.4-2,2.9,5.6,4.6,3.4-.9,4.3.2,2.7-5.2-1.5.3-1.5.6-1.3.4.7-3.1.1-2.8.2-1.8,2.4-1.3,1.4-.3.5.7,3,1.1-.3-2,.3-1.3-.4-2.2.7-1.5-1.4-3.1-.5-1.6-1.4-.9-1-.8-3.3,1.5-1.7.9-1.3-.1-1.8-1.6-1.7-1.1-1.7-1.1-1.9-.8-1.9-1.4-1.6-1.8Z"/><polygon class="cls-3" points="304.75 306.69 306.05 287.89 302.65 282.39 301.85 292.39 301.65 296.39 299.75 299.49 304.75 306.69"/></g></g></svg>