<svg id="Layer_1" data-name="Layer 1" xmlns="http://www.w3.org/2000/svg" viewBox="0 0 318.5 386"><defs><style>.cls-1,.cls-3,.cls-6{fill:#7cb5ab;}.cls-1,.cls-2,.cls-3,.cls-4,.cls-5{stroke:#fff;stroke-miterlimit:10;stroke-width:1.25px;}.cls-1,.cls-2{opacity:0.5;isolation:isolate;}.cls-2,.cls-4{fill:none;}.cls-5{fill:#009786;}</style></defs><title>queensland map</title><polygon class="cls-1" points="208.54 253.99 207.71 254.74 208.13 254.66 208.54 253.99"/><polygon class="cls-1" points="213.56 248.81 213.14 249.56 213.89 248.39 213.56 248.81"/><polygon class="cls-1" points="272.71 331.03 272.88 330.19 272.63 329.44 271.96 328.77 271.63 328.02 271.63 326.68 272.21 325.35 272.29 324.43 272.29 323.51 272.21 322.67 271.21 322 270.29 321.42 269.87 321 269.62 321.67 269.45 322.34 268.45 322 267.03 321.42 266.53 320.83 265.36 321 264.52 321.58 263.69 322.25 263.35 323.17 263.35 324.51 263.1 325.93 262.85 326.76 262.6 327.85 263.19 328.69 263.77 329.1 264.69 328.35 265.44 327.68 266.28 327.52 267.2 327.6 268.03 328.85 268.45 330.19 270.62 331.78 271.21 331.69 272.04 331.44 272.63 331.36 273.05 331.69 272.71 331.03"/><polygon class="cls-1" points="214.23 247.89 213.89 248.39 214.31 247.81 214.23 247.89"/><polygon class="cls-1" points="221.41 239.71 221.25 239.87 221.83 241.38 221.83 240.29 221.41 239.71"/><polygon class="cls-1" points="214.81 247.06 214.31 247.81 215.56 246.56 214.81 247.06"/><polygon class="cls-1" points="221.83 241.38 220.41 242.8 221.5 241.88 221.83 241.38"/><polygon class="cls-1" points="146.72 122.23 146.22 124.49 146.22 126.08 144.88 127.75 147.3 130.17 148.64 132.34 151.9 133.18 152.73 138.61 151.65 140.78 149.98 141.87 150.56 145.38 151.4 147.05 147.8 148.97 146.47 150.31 143.21 152.98 142.71 157.32 141.29 160.33 139.95 161.17 138.86 163.09 139.95 164.93 142.71 166.1 145.97 167.43 147.8 167.43 148.14 166.35 148.14 164.68 149.47 164.68 150.31 166.35 151.65 166.85 152.98 166.85 156.24 166.1 158.16 165.76 159.5 164.93 160.59 164.18 162.51 164.26 162.09 161.08 162.93 158.33 163.68 155.57 163.34 150.72 160.5 146.8 160.5 142.79 159.33 140.78 158.92 138.78 156.58 137.19 152.98 134.01 152.15 131.26 152.57 129.67 152.15 125.24 150.56 122.06 148.39 121.73 146.72 122.23"/><line class="cls-2" x1="183.9" y1="252.99" x2="183.15" y2="252.24"/><polyline class="cls-1" points="183.15 252.24 182.64 251.74 180.22 250.4 177.21 250.06 176.38 247.89 175.54 246.06 172.62 244.38 170.11 241.96 169.61 239.45 168.19 237.87 165.52 236.78 162.76 234.86 163.34 232.94 162.76 229.43"/><polygon class="cls-3" points="159.5 164.93 158.16 165.76 156.24 166.1 152.98 166.85 151.65 166.85 150.31 166.35 149.47 164.68 148.14 164.68 148.14 166.35 147.8 167.43 145.97 167.43 142.71 166.1 139.95 164.93 138.86 163.09 138.61 166.1 139.11 169.61 139.95 172.61 139.7 175.87 139.11 177.79 137.19 179.63 133.93 183.22 132.1 183.98 132.35 187.57 133.43 190.58 135.02 191.91 136.69 191.66 138.86 193.84 141.87 198.18 144.54 202.78 146.22 204.36 147.8 207.71 147.8 212.3 149.47 215.81 151.06 217.15 152.98 220.74 154.66 224 156.24 226.17 157.08 228.84 160.34 229.43 162.76 229.43 162.76 227.51 164.68 225.92 163.84 224.83 163.59 223.41 163.59 221.57 163.59 220.15 164.43 219.4 166.02 220.15 167.44 221.24 168.52 222.08 170.11 222.08 171.53 220.74 173.37 221.24 175.29 220.99 176.38 219.9 177.46 218.82 177.46 217.48 176.96 216.06 177.21 214.22 177.72 212.3 177.72 210.63 177.72 208.79 178.05 206.87 178.88 205.2 180.22 204.36 181.56 204.36 183.15 203.61 183.73 202.27 183.98 200.35 184.31 198.43 183.73 196.51 182.9 195.17 184.82 194.09 185.4 195.42 187.24 194.59 187.24 192.41 187.24 191.33 189.16 190.16 187.57 185.4 185.23 183.81 180.81 183.06 174.04 179.47 170.45 177.04 168.52 173.45 168.11 171.11 167.27 168.69 164.51 167.52 162.51 164.26 160.59 164.18 159.5 164.93"/><polygon class="cls-3" points="290.43 326.43 290.43 326.43 289.17 326.76 287.92 327.52 286.75 328.19 286 328.85 285.08 329.86 284.91 331.11 284.33 333.28 285.08 334.12 285.5 335.04 285.66 336.37 285.91 337.13 285.91 337.13 290.34 335.54 291.09 332.36 291.09 328.35 290.43 326.43"/><path class="cls-1" d="M285.5,335l-.42-.92-.75-.84.5-2.17.25-1.25.92-1,.75-.66,1.17-.67,1.25-.75,1.17-.34h0l-.5-1.25-2.76-6.35-2.42-3.18s-1.09.17-1.25.17a7,7,0,0,1-1.17-.84l-.59-1-.42-1.08-.58-1.17-2.51-.34-1.17-.5-.25-1.34-.42-.66.09-1-1.59-.42-1.67-1.33-1.92-.5-3,.5-.25,1.08.25,2.43V311l-.58,1.09.5,1,.41,1.42.42,1.76.42,1.08-.25.92-.25,1.51.83,1-.08.25.42.42.92.58,1,.67.17.84-.09.92-.08.91-.58,1.34V328l.41.75.67.67.25.75-.16.84.33.66.5,1.51.67,1.42.33,1.08.84.92.58.51.42.41.67.5.33.42v.17l6.27-.33,2.42-1.17-.33-.76Z"/><polyline class="cls-3" points="269.87 321 270.04 320.75 269.2 319.75 269.37 318.24 269.7 317.32 269.29 316.32 268.87 314.57 268.54 313.15 267.95 312.14 267.53 312.9 266.45 311.56 264.77 311.81 262.85 313.23 260.93 313.23 258.51 311.56 257.42 310.47 254.41 308.8 252.24 307.21 250.07 303.12 249.82 300.11 251.16 298.77 246.31 297.69 244.14 297.69 243.8 295.27 243.55 293.93 243.05 292.26 240.88 291.42 239.71 291.34 239.46 294.43 237.62 294.43 235.95 294.43 233.53 294.93 230.77 295.77 228.35 295.77 225.09 295.77 221.25 296.85 217.15 297.69 214.48 295.27 212.31 293.09 213.89 292.01 213.89 290.34 213.14 289.25 209.8 287.91 209.05 285.74 206.87 284.91 203.03 284.91 200.61 282.98 199.27 280.56 198.19 279.23 196.51 279.48 193.76 280.81 192.17 281.9 190.25 283.82 187.82 285.16 186.49 287.08 185.65 288.75 183.15 291.17 183.48 293.09 183.98 294.68 185.4 295.77 187.82 297.1 187.82 298.77 186.99 300.11 186.15 302.03 185.4 305.88 183.15 306.96 182.9 314.32 181.31 314.32 179.64 316.15 181.31 317.82 179.89 320 179.64 322.75 179.89 324.93 181.81 325.18 181.81 326.51 181.81 328.94 181.56 331.94 179.39 331.94 178.88 333.87 178.3 335.2 178.05 339.3 177.46 342.56 176.96 347.15 177.46 348.32 177.46 350.24 212.72 350.24 215.48 349.07 219.07 345.9 221.83 343.06 225.42 344.64 230.19 343.06 236.53 341.47 241.38 342.64 247.73 345.9 253.33 348.24 253.33 350.66 256.09 353 259.68 349.82 265.19 347.49 266.03 343.06 268.03 341.14 270.79 337.88 275.22 338.71 277.31 338.63 277.31 338.46 276.97 338.04 276.31 337.54 275.97 337.13 275.39 336.62 274.55 335.7 274.22 334.62 273.55 333.2 273.05 331.69 273.05 331.69 272.63 331.36 272.04 331.44 271.21 331.69 270.62 331.78 268.45 330.19 268.03 328.85 267.2 327.6 266.28 327.52 265.44 327.68 264.69 328.35 263.77 329.1 263.19 328.69 262.6 327.85 262.85 326.76 263.1 325.93 263.35 324.51 263.35 323.17 263.69 322.25 264.52 321.58 265.36 321 266.53 320.83 267.03 321.42 268.45 322 269.45 322.34 269.62 321.67 269.87 321"/><path class="cls-3" d="M184,200.35l-.25,1.92-.5,1.34-1.67.84h-1.34l-1.34.83-.83,1.67-.25,1.84v3.51l-.5,1.92-.25,1.92.5,1.34v1.34l-1.09,1.08L175.38,221l-1.93.25-1.92-.5-1.33,1.34h-1.68l-1.08-.84-1.34-1.09-1.67-.83-.84.83v3.26l.26,1.34.83,1.09-1.92,1.67v1.92l.5,3.51-.5,1.92,2.76,1.92,2.75,1.09,1.34,1.67.5,2.42,2.42,2.42,3,1.67.84,1.93.83,2.17,3,.25,2.42,1.34.51.5.66.67.25-1.26-.16-1.08.25-1.34.25-.42.92-.67,1.33-.75,1.34-1.25.75-1.34.5-1,.76-.34h1.33l2.09-1.67,2.09-1.58,1.17-.51h1.67l.75.51s.09,1.5.51,1.33a3.3,3.3,0,0,0,1.16-.75h1.68l.66.84-1.08.58.33,1.25h.92l2.42.51,1.09.25v1.33l-.5,2.18v1.92l-.08,1.08-.17,1.34.75,2.09.17.5.75-.08.84-.75,1-.84,1.59-1.75.83-.09.75-1,.34-.75.5-.76.25-.41.33-.5.09-.09.5-.75.75-.5h1.09l2.17-1.09,1.67-2.75,1.34-1.51-.51-1.5.17-.25.59-1,1.25-.08h1.09l1.67-1,1.33-1.59.84-.83-3.09-1.93-2.42-2-1.17-3.59-.84-1.59-.84-4-2-2.76.42-2.42-1.59-3.18-2.34-1.17-5.18-4.34-.42-3.59,1.17-2.43-.42-3.59h-3.17l-4.76-3.93-4.35-2-6.43-.84-2.34-3.92"/><path class="cls-1" d="M266,271.45l-1.59-5.18-5.6-.41-1.58-2-2-2.42-3.17-.84-4.35-4.34L245,252.66l-1.17-2.43,2-7.93v-4.77l-2,.84-2-.42-4.35-.42-2.34-3.59-4.34-.84-1.17,4.77-1.17-2.76-.84.84-1.33,1.58-1.67,1h-1.26l-1.25.08-.58,1,.41.67v1.09l-.25.41-1.08.92-1.67,2.76-2.18,1.09h-1.08l-1.34,1.25-.42.58-.75,1.17-.33.76-.76,1-.83.08-1.59,1.76-1,.83-.5.67-.34.08-.75.09-.17-.5-.75-2.09.17-1.34.08-1.09v-1.92l.5-2.17v-1.34l-1.08-.25-2.51-.58h-1l-.34-1.25,1.09-.59-.67-.84h-1.5c-.42.26-.75.51-1.17.76-.34.08-.5-1.34-.5-1.34l-.75-.5h-1.68l-1.17.5-2.08,1.59-2.09,1.67h-1.34l-.75.33-.5,1-.75,1.33-1.34,1.26-1.34.75-.92.67-.25.41-.25,1.34.17,1.09L183.9,253l.42.42-.84,3.51-.84,2.17.25,2.42-1.25,2.76L180,266.19l-2.76,1.67-1.08,1.92L174,270.87l1.34,4.59,3,.84,2.42,2.17,1.67,1.09,3.26-1.09,2.76-1.17,3-1.33,4.09,1.92,2.76,1.33,1.08,1.34,1.34,2.42,2.42,1.93H207l2.17.83.84,2.17,3.25,1.34.84,1.09V292l-1.67,1.08,2.17,2.18,2.76,2.42,4.09-.84,3.85-1.08h5.68l2.75-.84,2.43-.5h3.51l.25-3.09v-.17l-.25-5.43,1.67-3v-3.84l1.92-3,2.17-.83,2.42-1.34.25-2.17,2.76-1.67,1.34,1.08.83,1.67,2.18,1.09,1.33-1.34h1.09l1.09,1.92,1.67,1.34,1.92.25h3.26l.83-2.75Z"/><path class="cls-3" d="M281.07,301,280,302.87l-.25,2.17-1.09,1.67L277,308.05l-.33-.08-.08,1,.41.67.25,1.33,1.17.51,2.51.33.59,1.17.41,1.09.59,1s.92.83,1.17.83,1.25-.16,1.25-.16l1.59-6.35.42-3.18-.42-4-1.84-2-1.5,1.17Z"/><polygon class="cls-1" points="283.07 295.52 283.57 291.67 283.16 288.5 279.15 288.5 277.14 285.74 276.39 282.15 273.96 277.39 271.38 276.63 267.78 270.79 266.03 271.37 266.11 273.21 265.36 275.97 262.1 275.97 260.18 275.63 258.51 274.3 257.42 272.37 256.34 272.37 255 273.79 252.83 272.71 251.99 271.04 250.66 269.95 247.9 271.54 247.65 273.79 245.22 275.13 243.05 275.97 241.13 278.89 241.13 282.73 239.46 285.74 239.79 291.17 239.71 291.34 240.88 291.42 243.05 292.26 243.55 293.93 243.8 295.27 244.14 297.69 246.31 297.69 251.16 298.77 249.82 300.11 250.07 303.12 252.24 307.21 254.41 308.8 257.42 310.47 258.51 311.56 260.93 313.23 262.85 313.23 264.77 311.81 266.45 311.56 267.53 312.9 267.95 312.14 268.54 311.06 268.54 309.64 268.28 307.21 268.54 306.13 271.63 305.63 273.46 306.13 275.13 307.46 276.64 307.88 277.06 308.05 278.64 306.63 279.73 305.04 279.98 302.87 281.07 300.95 282.99 301.2 284.49 300.03 285.5 299.36 283.07 295.52"/><polygon class="cls-3" points="47.88 135.6 49.46 134.43 51.05 134.01 53.39 131.26 51.39 132.09 48.63 132.09 44.62 133.26 43.53 135.43 42.7 137.19 45.04 135.6 47.88 135.6"/><polygon class="cls-3" points="46.21 141.62 50.63 144.79 50.22 142.79 48.63 141.62 46.21 141.62"/><path class="cls-1" d="M288.92,318s.42-4.34.92-5.26c.42-1.09.75-2.17,1.09-3.34l.75,3.76L290.17,321Z"/><polygon class="cls-3" points="208.46 253.82 207.63 254.58 207.96 254.49 208.46 253.82"/><polygon class="cls-3" points="213.47 248.65 212.97 249.4 213.72 248.23 213.47 248.65"/><polygon class="cls-3" points="272.55 330.86 272.71 330.02 272.55 329.27 271.79 328.6 271.46 327.85 271.46 326.51 272.04 325.18 272.13 324.26 272.21 323.34 272.04 322.5 271.04 321.84 270.21 321.25 269.79 320.83 269.54 321.5 269.37 322.17 268.28 321.84 266.86 321.25 266.45 320.67 265.19 320.83 264.36 321.42 263.52 322.09 263.19 323.09 263.19 324.34 262.94 325.76 262.69 326.6 262.52 327.68 263.02 328.52 263.69 329.02 264.52 328.27 265.28 327.6 266.11 327.43 267.11 327.52 267.95 328.69 268.28 330.02 270.46 331.61 271.04 331.53 271.88 331.36 272.55 331.28 272.88 331.53 272.55 330.86"/><polygon class="cls-3" points="214.06 247.81 213.72 248.23 214.14 247.73 214.06 247.81"/><polygon class="cls-3" points="221.33 239.54 221.16 239.71 221.66 241.21 221.66 240.12 221.33 239.54"/><polygon class="cls-3" points="214.64 246.97 214.14 247.73 215.4 246.39 214.64 246.97"/><polygon class="cls-3" points="221.66 241.21 220.33 242.63 221.41 241.71 221.66 241.21"/><polygon class="cls-3" points="146.63 122.15 146.05 124.32 146.05 125.91 144.71 127.58 147.13 130 148.56 132.18 151.81 133.01 152.57 138.44 151.48 140.61 149.89 141.7 150.39 145.21 151.23 146.88 147.72 148.8 146.38 150.14 143.04 152.81 142.54 157.24 141.2 160.16 139.78 161 138.7 162.92 139.78 164.84 142.54 165.93 145.8 167.27 147.72 167.27 147.97 166.18 147.97 164.51 149.31 164.51 150.14 166.18 151.48 166.76 152.9 166.76 156.16 165.93 158 165.59 159.42 164.84 160.5 164.01 162.34 164.18 162.01 160.92 162.76 158.16 163.59 155.4 163.18 150.64 160.42 146.63 160.42 142.62 159.17 140.7 158.83 138.69 156.41 137.1 152.82 133.93 152.06 131.09 152.4 129.5 152.06 125.16 150.48 121.98 148.22 121.56 146.63 122.15"/><line class="cls-4" x1="183.73" y1="252.82" x2="183.06" y2="252.15"/><polyline class="cls-3" points="142.87 153.48 146.13 150.72 147.47 149.39 150.98 147.47 150.23 145.88 149.64 142.37 151.31 141.28 152.4 139.03 151.56 133.59 148.31 132.84 146.97 130.67 144.46 128.16 145.88 126.58 145.88 124.91 146.38 122.73 148.05 122.23 150.23 122.57 150.23 122.48 149.89 120.56 149.81 117.8 147.05 113.79 147.39 109.03 148.64 106.61 147.05 105.02 143.04 102.26 140.7 100.68 137.86 97.5 135.52 94.33 133.85 94.66 132.68 95.91 128.75 98.67 126.33 99.09 123.16 97.92 121.57 96.33 120.73 94.66 119.98 91.49 119.15 88.73 117.98 85.97 118.39 81.54 115.97 77.95 116.39 75.19 115.22 72.44 112.8 71.6 113.55 68.01 113.55 65.25 112.38 62.83 109.62 61.66 109.62 59.65 109.95 55.31 110.79 51.72 108.03 52.47 106.03 47.7 106.03 45.37 106.03 42.52 105.19 40.19 104.86 36.93 102.02 36.93 100.43 36.59 100.01 33 98.84 34.59 95.25 35.76 95.67 37.76 95.67 40.19 95.25 42.11 94.83 44.53 94.08 46.95 91.24 52.13 92.49 53.72 91.66 56.06 90.91 57.65 90.07 54.05 88.9 56.06 87.73 59.23 87.31 60.82 88.9 62.83 92.08 65.25 86.14 69.18 85.31 72.02 88.9 74.36 85.31 78.37 82.55 86.72 85.72 89.9 85.72 95.08 84.14 96.67 84.47 99.09 84.89 102.68 86.14 105.02 87.31 107.03 85.31 109.03 82.55 122.98 81.3 126.91 79.38 133.76 76.53 138.11 74.19 140.45 72.61 146.88 71.77 148.8 70.19 149.64 67.43 150.81 63 152.39 60.66 152.39 56.65 152.39 54.64 152.39 51.89 151.22 49.46 149.64 47.04 148.8 43.95 147.63 41.95 145.63 39.1 141.7 37.1 139.69 35.18 139.28 26.82 137.69 26.82 297.36 74.53 297.77 74.53 350.74 177.13 350.74 177.13 348.74 176.54 347.65 177.13 343.06 177.72 339.8 177.97 335.7 178.47 334.37 179.05 332.45 181.22 332.45 181.47 329.44 181.47 327.02 181.47 325.68 179.55 325.35 179.3 323.17 179.55 320.5 180.97 318.33 179.3 316.65 180.97 314.73 182.56 314.73 182.81 307.38 184.98 306.3 185.82 302.54 186.66 300.61 187.49 299.28 187.49 297.61 184.98 296.27 183.65 295.18 183.15 293.51 182.81 291.67 185.32 289.17 186.07 287.58 187.49 285.66 189.91 284.32 191.84 282.4 193.42 281.31 196.18 279.98 197.77 279.64 195.09 278.31 191 276.38 187.99 277.8 185.32 278.89 182.06 279.98 180.39 278.89 177.97 276.63 174.96 275.88 173.62 271.2 175.79 270.12 176.88 268.28 179.55 266.61 181.22 264.69 182.56 262.01 182.31 259.51 183.15 257.33 183.9 253.82 183.56 253.49"/><path class="cls-3" d="M285.41,334.87,285,334l-.75-.84.5-2.17.25-1.25.92-1,.76-.67,1.16-.67,1.26-.75,1.17-.34h0l-.5-1.25L287,318.66l-2.42-3.17s-1.09.16-1.26.16a7.39,7.39,0,0,1-1.17-.83l-.58-1-.42-1.08-.58-1.17-2.51-.34-1.17-.5-.25-1.33-.42-.67.08-1-1.58-.42L273.05,306l-1.93-.5-3,.5-.25,1.09.25,2.42v1.34l-.67,1.08.5,1,.42,1.42.42,1.75.41,1.09-.33.92-.25,1.5.83,1-.08.25.42.42.92.59,1,.66.17.84-.09.92-.08.92-.59,1.33v1.34l.42.75.67.67.25.75-.17.84.34.67.5,1.5.67,1.42.33,1.09.84.92.58.5.42.42.67.5.33.42v.16l6.27-.33,2.42-1.17-.33-.75Z"/><path class="cls-3" d="M265.94,271.29l-1.58-5.18-5.6-.42-1.59-2-1.92-2.42-3.17-.83L247.65,256l-2.76-3.6L243.72,250l2-7.94v-4.76l-2,.84-2-.42-4.34-.42L235,233.69l-4.35-.84-1.17,4.77-1.17-2.76-.83.83-1.34,1.59-1.67,1h-1.17l-1.25.09-.59,1,.42.67v1.09l-.25.41-1.09.92-1.67,2.76-2.17,1.09h-1.09l-1.42,1.42-.41.58-.76,1.17-.33.75-.75,1-.84.09-1.59,1.75-1,.84-.5.67-.33.08-.76.08-.16-.5-.75-2.09.16-1.33.09-1.09v-2l.5-2.18v-1.33l-1.09-.25-2.42-.51h-1l-.34-1.25,1.09-.58-.67-.84h-1.51c-.41.25-.75.5-1.16.75-.34.09-.51-1.33-.51-1.33l-.75-.51h-1.67l-1.17.51-2.09,1.58-2.09,1.67H190l-.76.34-.5,1-.75,1.34-1.42,1.25-1.34.75-.91.67-.26.42-.25,1.34.17,1.08-.25,1.26.42.41-.84,3.51-.75,2.18.25,2.42-1.34,2.76-1.67,1.92-2.75,1.67L176,269.7l-2.09,1.09,1.34,4.59,3,.84,2.42,2.17,1.67,1.09,3.26-1.09,2.76-1.09,3-1.33,4.1,1.92,2.75,1.33,1.09,1.34,1.34,2.42,2.42,1.93h3.76l2.17.83.84,2.17,3.26,1.34.83,1.09V292l-1.67,1.08,2.17,2.18,2.76,2.42,4.09-.84,3.85-1.08h5.68l2.76-.84,2.42-.5h3.51l.25-3.09v-.17l-.25-5.51,1.67-3v-3.84l1.92-3,2.17-.84,2.43-1.33.25-2.18,2.75-1.67,1.34,1.09.84,1.67,2.17,1.09,1.34-1.34h1.08l1.09,1.92,1.67,1.34,1.92.25h3.26l.84-2.76Z"/><polygon class="cls-3" points="282.99 295.35 283.41 291.59 282.99 288.42 279.06 288.42 277.06 285.57 276.31 281.98 273.88 277.22 271.29 276.47 267.62 270.62 265.94 271.29 266.03 273.04 265.19 275.8 261.93 275.8 260.01 275.55 258.43 274.13 257.34 272.29 256.25 272.29 254.83 273.63 252.66 272.54 251.82 270.87 250.49 269.78 247.81 271.45 247.48 273.63 245.06 274.96 242.88 275.8 240.96 278.81 240.96 282.57 239.38 285.57 239.63 291 239.63 291.17 240.71 291.26 242.88 292.09 243.47 293.76 243.72 295.1 243.97 297.52 246.14 297.52 251.07 298.61 249.65 299.94 249.99 302.95 252.16 307.05 254.33 308.72 257.34 310.31 258.43 311.39 260.85 313.06 262.77 313.06 264.61 311.64 266.28 311.39 267.37 312.81 267.87 311.98 268.45 310.89 268.45 309.47 268.2 307.05 268.45 305.96 271.46 305.46 273.38 305.96 274.97 307.3 276.56 307.8 276.89 307.88 278.56 306.55 279.65 304.88 279.9 302.7 280.98 300.78 282.9 301.12 284.41 299.86 285.33 299.19 282.99 295.35"/><polygon class="cls-3" points="47.71 135.52 49.3 134.26 50.88 133.93 53.31 131.09 51.3 131.92 48.55 131.92 44.53 133.09 43.45 135.35 42.53 137.1 44.95 135.52 47.71 135.52"/><polygon class="cls-3" points="46.12 141.45 50.47 144.62 50.13 142.62 48.55 141.45 46.12 141.45"/><path class="cls-5" d="M288.84,317.83s.42-4.35.92-5.27c.41-1.08.75-2.17,1.08-3.34l.75,3.76-1.5,7.85Z"/><polygon class="cls-3" points="151.98 141.95 154.07 145.46 160.5 146.8 160.5 142.79 159.33 140.78 158.92 138.78 152.31 133.26 151.56 133.59 152.31 138.78 151.65 140.78 151.98 141.95"/><polygon class="cls-3" points="281.65 313.9 280.73 318.58 281.65 322.75 283.32 321.92 284.33 325.51 287.75 327.35 290.26 326.26 287.58 318.66 284.66 315.49 281.65 313.9"/><path class="cls-3" d="M250,303l-1.76,3.68s1.17,5.26,1.76,5.26,2.25,5.85,2.25,5.85l-2,3.26,2,3.17,2.26,2-1.67,2.42,4.68,3.85,2.84-.76,3.59.17,2.26-4.34-1.26.25-1.25.5-1.09.33.59-2.59.08-2.34.17-1.5,2-1.09,1.17-.25.42.59,2.51.92-.25-1.67.25-1.09-.34-1.84.59-1.25-1.17-2.59-.42-1.34-1.17-.75-.83-.67-2.76,1.25-1.42.76-1.09-.09-1.5-1.33-1.42-.92-1.42-.92-1.59-.67-1.59-1.17-1.33-1.5Z"/><polygon class="cls-3" points="280.82 287.66 281.9 271.96 278.98 267.36 278.39 275.71 278.23 279.06 276.64 281.65 280.82 287.66"/><polygon class="cls-6" points="188.41 189.32 187.32 187.15 179.97 193.33 182.9 198.51 184.23 199.68 188.41 189.32"/><g id="Layer_4" data-name="Layer 4"><path class="cls-6" d="M182.48,249.56l2.84,2.59-.5,3.1-.92,1.67s-2.26,3.09-2.43,2.92-3.42-5.26-3.42-5.26Z"/><path class="cls-6" d="M179.55,264.69l1.51,2.59s-5.18,7.43-5.35,7.43-2.17,1.09-2.17,1.09l-3.85-6.6s3.18-3.59,4.1-4C174.79,264.94,179.55,264.69,179.55,264.69Z"/><path class="cls-6" d="M179.05,279.48c.17-.09,10.61-2.43,10.61-2.43l1.26-2.67a39.09,39.09,0,0,1,2.25,4.18L184.82,283s-5.85.09-5.85-.5S179.05,279.48,179.05,279.48Z"/><polygon class="cls-6" points="195.43 279.23 196.51 281.48 192.84 283.32 189.58 294.01 192.09 304.04 187.32 320.5 183.06 326.35 177.46 324.34 170.19 314.65 174.46 283.15 191.08 279.64 195.43 279.23"/><path class="cls-6" d="M176.46,341.14l1.17.83h1.76l.33,2.59v5.1l-2.09.5a10,10,0,0,1-2.25,0c.08-.17-2.76-7.6-2.76-7.6Z"/><path class="cls-6" d="M240.71,292.93l.75-1.34-3-6.93.25-14.63s11.11-3.59,11.61-3.59,12.12,3.26,12.12,3.26l2.67,1.59.42.92,1.25-.34s1.5,3.76,1.67,4.43-.92,5.51-.92,5.51l16.8,17.38-.84.84,1.09,1.59L284,305l-1.84,4.1,2.18,5.68-.34,1.75,5.35,9.53.83,1.83-3.92,8.44-2,.59-7,.92-1.67.33-8.44-4.09L254.25,341l-8.19-22.23s1.59-12.11,1.5-12.28-7.43-9.77-7.43-9.77l-.67-.67Z"/><polygon class="cls-6" points="228.35 237.28 227.59 235.53 226.59 234.94 220.99 236.78 221.25 238.7 223.17 241.38 228.35 237.28"/><polygon class="cls-6" points="160.17 148.05 160.17 147.38 159.67 145.29 154.49 142.79 152.82 134.93 152.06 134.1 150.48 134.1 151.31 140.03 154.15 144.88 154.91 146.29 159.25 148.55 160.17 148.05"/><polygon class="cls-6" points="148.97 130.84 149.31 133.76 151.56 136.6 152.82 134.51 151.98 133.68 151.31 131.26 148.97 130.84"/></g><g id="Layer_3" data-name="Layer 3"><path class="cls-5" d="M165.68,171.53l-2,5.09v5.94l5.68,5.43,3.59,5.68,6.1,2.5,4.93,4.1h5l2.51,2.51,6.27,3.09,4.84,7.93-4.84,1.42s2.34,7.27,3.17,7,6.69,3.51,6.69,3.51l-3.51,3.43,3.51,3.76H213l6,3.34,4.18,6.35,3.84,5.51.17-7,4.51,3.09s-2.84,5.09-1.42,6.51,1.42,5.69,1.42,5.69h-9.86l1.34,8.68s2.59,3.51,2.25,4.68-4.26,7.61-4.26,7.61l-.83,8.35,1.5,3.09,9.86-1.33,6.52-2.09,2.59,5.85-2.93,6.18,2.93,2.25v3.1l-4.93,2.42,3.42,5.18,4.85,2.42-2.84,4.6-.59,2.92L231,319.16l-4-3.76-3.68,4.93.25,1.51-5.93-1.51v3.43s1.92,4.84,4.1,4.51S228,327,228,327l-3.26,9.6s-1.67.59-.58,1.59.83,3.34.83,3.34-3.5,5.68-3.34,5.43-10.61,1.68-10.61,1.68l-13.37,1.08L195.26,345l-4.43,1.42-1.92-4.51-3.76-5.1-1.42,3.09L177.55,341l-3.76-2.84,5.09-8.77-2.08-4.85,6.93,2.51,5.18-1.09,4.51-.17,1.76-5.51-2-7.44,4.51-3.84,7.44,2.09,3.26-6,.08-5.35-4.59-5.43h-6.19l-4.51-7,.84-2.93,1.17-1.67,2.5-.58-2.34-4.6-2.5-1.25-2-3.76-1.92,4-8.35,1.58-3.76.76-2-3.35,5.26-2.75,3.26-3.26-4.09-6.94,3.42-3.42,3.68-4.51v-2.76l-5.1-4.43-5.76-1.67L173.79,240l3-4,4.93-.25-2.26-5.1-2.67-4.26v-4.34L176,219l-4.84,1.26-4.43-3.85,1.25-2.5-1.25-4.51-4.43-4s2-3.68,1-4-7.26,1.67-7.26,1.67l-5,.25-4.68-1.42-4.09-2.93-6.68-.5L133,195.84l-3.68-3.68,6.27-2.42,5.09-2.17.25-2.84-.25-5.68s-.83-6.44-1.25-7.94,5-10.28,5-10.28l2.59-4s-4-2.09-4.18-2.67a29,29,0,0,0-2.34-3l4.52-3.09.83-3.68-.25-1.75,4.26-3L147.64,135s-4.85-1.51-6.85-1.34a42.05,42.05,0,0,0-5.94,1.34l-2.92-5.94a53,53,0,0,0,5.43-3.42c.84-.84,3.09-2.59,3.09-2.59l.84-4.51L140.12,114l-.25-5.68s2.84,2,3.67.84-1.25-6.69-1.25-6.69l4.85,3.6,2.67,10.27-2,11.37.59,6.1,2.92,8.94,9,11.69,1.58,8.27.5,7Z"/><path class="cls-3" d="M189.16,231.52c.92,0,3.84-2.26,3.84-2.26l2.43,1.67,1.25,2.17h5.68l-.25,2.43-5.51,4.09c-3.26,1.25-4.68.84-4.68.84l-5-3.85-1.26-4.84Z"/><path class="cls-3" d="M194,262l5.51-1.42L204,262l1.67-1.42,2.76-3.67,4.43,1.17v4l.08,3.34-2.75.17s-.84,3.92,0,4.34,0,3.26,0,3.26l-4.52-1.42-5.09-4.26-2.84-3.68Z"/><path class="cls-3" d="M202.36,317.66c.25-1.09,3.68-2.51,3.68-2.51l2.51,4-2.26,2.93-4-1.51v-2.92Z"/></g></svg>