<svg xmlns="http://www.w3.org/2000/svg" viewBox="0 0 318.51 385.97"><defs><style>.cls-1,.cls-3,.cls-6{fill:#7cb5ab;}.cls-1,.cls-2,.cls-3,.cls-4,.cls-5{stroke:#fff;stroke-miterlimit:10;stroke-width:1.5px;}.cls-1,.cls-2{opacity:0.5;isolation:isolate;}.cls-2,.cls-4{fill:none;}.cls-5{fill:#009786;}</style></defs><title>Remote Queensland</title><g id="Layer_2" data-name="Layer 2"><g id="Layer_1-2" data-name="Layer 1"><polygon class="cls-1" points="218.25 266.48 217.25 267.38 217.75 267.28 218.25 266.48"/><polygon class="cls-1" points="224.25 260.28 223.75 261.18 224.65 259.78 224.25 260.28"/><polygon class="cls-1" points="295.05 358.68 295.25 357.68 294.95 356.78 294.15 355.98 293.75 355.08 293.75 353.48 294.45 351.88 294.55 350.78 294.55 349.68 294.45 348.68 293.25 347.88 292.15 347.18 291.65 346.68 291.35 347.48 291.15 348.28 289.95 347.88 288.25 347.18 287.65 346.48 286.25 346.68 285.25 347.38 284.25 348.18 283.85 349.28 283.85 350.88 283.55 352.58 283.25 353.58 282.95 354.88 283.65 355.88 284.35 356.38 285.45 355.48 286.35 354.68 287.35 354.48 288.45 354.58 289.45 356.08 289.95 357.68 292.55 359.58 293.25 359.48 294.25 359.18 294.95 359.08 295.45 359.48 295.05 358.68"/><polygon class="cls-1" points="225.05 259.18 224.65 259.78 225.15 259.08 225.05 259.18"/><polygon class="cls-1" points="233.65 249.38 233.45 249.58 234.15 251.38 234.15 250.08 233.65 249.38"/><polygon class="cls-1" points="225.75 258.18 225.15 259.08 226.65 257.58 225.75 258.18"/><polygon class="cls-1" points="234.15 251.38 232.45 253.08 233.75 251.98 234.15 251.38"/><polygon class="cls-1" points="144.25 108.78 143.65 111.48 143.65 113.38 142.05 115.38 144.95 118.28 146.55 120.88 150.45 121.88 151.45 128.38 150.15 130.98 148.15 132.28 148.85 136.48 149.85 138.48 145.55 140.78 143.95 142.38 140.05 145.58 139.45 150.78 137.75 154.38 136.15 155.38 134.85 157.68 136.15 159.88 139.45 161.28 143.35 162.88 145.55 162.88 145.95 161.58 145.95 159.58 147.55 159.58 148.55 161.58 150.15 162.18 151.75 162.18 155.65 161.28 157.95 160.88 159.55 159.88 160.85 158.98 163.15 159.08 162.65 155.28 163.65 151.98 164.55 148.68 164.15 142.88 160.75 138.18 160.75 133.38 159.35 130.98 158.85 128.58 156.05 126.68 151.75 122.88 150.75 119.58 151.25 117.68 150.75 112.38 148.85 108.58 146.25 108.18 144.25 108.78"/><line class="cls-2" x1="188.75" y1="265.28" x2="187.85" y2="264.38"/><polyline class="cls-1" points="187.85 264.38 187.25 263.78 184.35 262.18 180.75 261.78 179.75 259.18 178.75 256.98 175.25 254.98 172.25 252.08 171.65 249.08 169.95 247.18 166.75 245.88 163.45 243.58 164.15 241.28 163.45 237.08"/><polygon class="cls-3" points="159.55 159.88 157.95 160.88 155.65 161.28 151.75 162.18 150.15 162.18 148.55 161.58 147.55 159.58 145.95 159.58 145.95 161.58 145.55 162.88 143.35 162.88 139.45 161.28 136.15 159.88 134.85 157.68 134.55 161.28 135.15 165.48 136.15 169.08 135.85 172.98 135.15 175.28 132.85 177.48 128.95 181.78 126.75 182.68 127.05 186.98 128.35 190.58 130.25 192.18 132.25 191.88 134.85 194.48 138.45 199.68 141.65 205.18 143.65 207.08 145.55 211.08 145.55 216.58 147.55 220.78 149.45 222.38 151.75 226.68 153.75 230.58 155.65 233.18 156.65 236.38 160.55 237.08 163.45 237.08 163.45 234.78 165.75 232.88 164.75 231.58 164.45 229.88 164.45 227.68 164.45 225.98 165.45 225.08 167.35 225.98 169.05 227.28 170.35 228.28 172.25 228.28 173.95 226.68 176.15 227.28 178.45 226.98 179.75 225.68 181.05 224.38 181.05 222.78 180.45 221.08 180.75 218.88 181.35 216.58 181.35 214.58 181.35 212.38 181.75 210.08 182.75 208.08 184.35 207.08 185.95 207.08 187.85 206.18 188.55 204.58 188.85 202.28 189.25 199.98 188.55 197.68 187.55 196.08 189.85 194.78 190.55 196.38 192.75 195.38 192.75 192.78 192.75 191.48 195.05 190.08 193.15 184.38 190.35 182.48 185.05 181.58 176.95 177.28 172.65 174.38 170.35 170.08 169.85 167.28 168.85 164.38 165.55 162.98 163.15 159.08 160.85 158.98 159.55 159.88"/><polygon class="cls-3" points="316.25 353.18 316.25 353.18 314.75 353.58 313.25 354.48 311.85 355.28 310.95 356.08 309.85 357.28 309.65 358.78 308.95 361.38 309.85 362.38 310.35 363.48 310.55 365.08 310.85 365.98 310.85 365.98 316.15 364.08 317.05 360.28 317.05 355.48 316.25 353.18"/><path class="cls-1" d="M310.35,363.48l-.5-1.1-.9-1,.6-2.6.3-1.5,1.1-1.2.9-.8,1.4-.8,1.5-.9,1.4-.4h0l-.6-1.5-3.3-7.6-2.9-3.8s-1.3.2-1.5.2a8.47,8.47,0,0,1-1.4-1l-.7-1.2-.5-1.3-.7-1.4-3-.4-1.4-.6-.3-1.6-.5-.8.1-1.2-1.9-.5-2-1.6-2.3-.6-3.6.6-.3,1.3.3,2.9v1.6L289,336l.6,1.2.5,1.7.5,2.1.5,1.3-.3,1.1-.3,1.8,1,1.2-.1.3.5.5,1.1.7,1.2.8.2,1-.1,1.1-.1,1.1-.7,1.6v1.6l.5.9.8.8.3.9-.2,1,.4.8.6,1.8.8,1.7.4,1.3,1,1.1.7.6.5.5.8.6.4.5v.2l7.5-.4,2.9-1.4-.4-.9Z"/><polyline class="cls-3" points="291.65 346.68 291.85 346.38 290.85 345.18 291.05 343.38 291.45 342.28 290.95 341.08 290.45 338.98 290.05 337.28 289.35 336.08 288.85 336.98 287.55 335.38 285.55 335.68 283.25 337.38 280.95 337.38 278.05 335.38 276.75 334.08 273.15 332.08 270.55 330.18 267.95 325.28 267.65 321.68 269.25 320.08 263.45 318.78 260.85 318.78 260.45 315.88 260.15 314.28 259.55 312.28 256.95 311.28 255.55 311.18 255.25 314.88 253.05 314.88 251.05 314.88 248.15 315.48 244.85 316.48 241.95 316.48 238.05 316.48 233.45 317.78 228.55 318.78 225.35 315.88 222.75 313.28 224.65 311.98 224.65 309.98 223.75 308.68 219.75 307.08 218.85 304.48 216.25 303.48 211.65 303.48 208.75 301.18 207.15 298.28 205.85 296.68 203.85 296.98 200.55 298.58 198.65 299.88 196.35 302.18 193.45 303.78 191.85 306.08 190.85 308.08 187.85 310.98 188.25 313.28 188.85 315.18 190.55 316.48 193.45 318.08 193.45 320.08 192.45 321.68 191.45 323.98 190.55 328.58 187.85 329.88 187.55 338.68 185.65 338.68 183.65 340.88 185.65 342.88 183.95 345.48 183.65 348.78 183.95 351.38 186.25 351.68 186.25 353.28 186.25 356.18 185.95 359.78 183.35 359.78 182.75 362.08 182.05 363.68 181.75 368.58 181.05 372.48 180.45 377.98 181.05 379.38 181.05 381.68 223.25 381.68 226.55 380.28 230.85 376.48 234.15 373.08 238.45 374.98 244.15 373.08 251.75 371.18 257.55 372.58 265.15 376.48 271.85 379.28 271.85 382.18 275.15 384.98 279.45 381.18 286.05 378.38 287.05 373.08 289.45 370.78 292.75 366.88 298.05 367.88 300.55 367.78 300.55 367.58 300.15 367.08 299.35 366.48 298.95 365.98 298.25 365.38 297.25 364.28 296.85 362.98 296.05 361.28 295.45 359.48 295.45 359.48 294.95 359.08 294.25 359.18 293.25 359.48 292.55 359.58 289.95 357.68 289.45 356.08 288.45 354.58 287.35 354.48 286.35 354.68 285.45 355.48 284.35 356.38 283.65 355.88 282.95 354.88 283.25 353.58 283.55 352.58 283.85 350.88 283.85 349.28 284.25 348.18 285.25 347.38 286.25 346.68 287.65 346.48 288.25 347.18 289.95 347.88 291.15 348.28 291.35 347.48 291.65 346.68"/><path class="cls-3" d="M188.85,202.28l-.3,2.3-.6,1.6-2,1h-1.6l-1.6,1-1,2-.3,2.2v4.2l-.6,2.3-.3,2.3.6,1.6v1.6l-1.3,1.3-1.3,1.3-2.3.3-2.3-.6-1.6,1.6h-2l-1.3-1-1.6-1.3-2-1-1,1v3.9l.3,1.6,1,1.3-2.3,2v2.3l.6,4.2-.6,2.3,3.3,2.3,3.3,1.3,1.6,2,.6,2.9,2.9,2.9,3.6,2,1,2.3,1,2.6,3.6.3,2.9,1.6.6.6.8.8.3-1.5-.2-1.3.3-1.6.3-.5,1.1-.8,1.6-.9,1.6-1.5.9-1.6.6-1.2.9-.4h1.6l2.5-2,2.5-1.9,1.4-.6h2l.9.6s.1,1.8.6,1.6a4.19,4.19,0,0,0,1.4-.9h2l.8,1-1.3.7.4,1.5H212l2.9.6,1.3.3v1.6l-.6,2.6v2.3l-.1,1.3-.2,1.6.9,2.5.2.6.9-.1,1-.9,1.2-1,1.9-2.1,1-.1.9-1.2.4-.9.6-.9.3-.5.4-.6.1-.1.6-.9.9-.6h1.3l2.6-1.3,2-3.3,1.6-1.8-.6-1.8.2-.3.7-1.2,1.5-.1h1.3l2-1.2,1.6-1.9,1-1-3.7-2.3-2.9-2.4-1.4-4.3-1-1.9-1-4.8-2.4-3.3.5-2.9-1.9-3.8-2.8-1.4-6.2-5.2-.5-4.3,1.4-2.9-.5-4.3h-3.8l-5.7-4.7-5.2-2.4-7.7-1-2.8-4.7"/><path class="cls-1" d="M287.05,287.38l-1.9-6.2-6.7-.5-1.9-2.4-2.4-2.9-3.8-1-5.2-5.2-3.3-4.3-1.4-2.9,2.4-9.5v-5.7l-2.4,1-2.4-.5-5.2-.5-2.8-4.3-5.2-1-1.4,5.7-1.4-3.3-1,1-1.6,1.9-2,1.2H236l-1.5.1-.7,1.2.5.8v1.3l-.3.5-1.3,1.1-2,3.3-2.6,1.3h-1.3l-1.6,1.5-.5.7-.9,1.4-.4.9-.9,1.2-1,.1-1.9,2.1-1.2,1-.6.8-.4.1-.9.1-.2-.6-.9-2.5.2-1.6.1-1.3v-2.3l.6-2.6V255l-1.3-.3-3-.7h-1.2l-.4-1.5,1.3-.7-.8-1h-1.8c-.5.3-.9.6-1.4.9-.4.1-.6-1.6-.6-1.6l-.9-.6h-2l-1.4.6-2.5,1.9-2.5,2h-1.6l-.9.4-.6,1.2-.9,1.6-1.6,1.5-1.6.9-1.1.8-.3.5-.3,1.6.2,1.3-.3,1.5.5.5-1,4.2-1,2.6.3,2.9-1.5,3.3-2,2.3-3.3,2-1.3,2.3-2.6,1.3,1.6,5.5,3.6,1,2.9,2.6,2,1.3,3.9-1.3,3.3-1.4,3.6-1.6,4.9,2.3,3.3,1.6,1.3,1.6,1.6,2.9,2.9,2.3h4.6l2.6,1,1,2.6,3.9,1.6,1,1.3v2l-2,1.3,2.6,2.6,3.3,2.9,4.9-1,4.6-1.3h6.8l3.3-1,2.9-.6h4.2l.3-3.7V311l-.3-6.5,2-3.6v-4.6l2.3-3.6,2.6-1,2.9-1.6.3-2.6,3.3-2,1.6,1.3,1,2,2.6,1.3,1.6-1.6H277l1.3,2.3,2,1.6,2.3.3h3.9l1-3.3Z"/><path class="cls-3" d="M305.05,322.68l-1.3,2.3-.3,2.6-1.3,2-2,1.6-.4-.1-.1,1.2.5.8.3,1.6,1.4.6,3,.4.7,1.4.5,1.3.7,1.2s1.1,1,1.4,1,1.5-.2,1.5-.2l1.9-7.6.5-3.8-.5-4.8-2.2-2.4-1.8,1.4Z"/><polygon class="cls-1" points="307.45 316.18 308.05 311.58 307.55 307.78 302.75 307.78 300.35 304.48 299.45 300.18 296.55 294.48 293.45 293.58 289.15 286.58 287.05 287.28 287.15 289.48 286.25 292.78 282.35 292.78 280.05 292.38 278.05 290.78 276.75 288.48 275.45 288.48 273.85 290.18 271.25 288.88 270.25 286.88 268.65 285.58 265.35 287.48 265.05 290.18 262.15 291.78 259.55 292.78 257.25 296.28 257.25 300.88 255.25 304.48 255.65 310.98 255.55 311.18 256.95 311.28 259.55 312.28 260.15 314.28 260.45 315.88 260.85 318.78 263.45 318.78 269.25 320.08 267.65 321.68 267.95 325.28 270.55 330.18 273.15 332.08 276.75 334.08 278.05 335.38 280.95 337.38 283.25 337.38 285.55 335.68 287.55 335.38 288.85 336.98 289.35 336.08 290.05 334.78 290.05 333.08 289.75 330.18 290.05 328.88 293.75 328.28 295.95 328.88 297.95 330.48 299.75 330.98 300.25 331.18 302.15 329.48 303.45 327.58 303.75 324.98 305.05 322.68 307.35 322.98 309.15 321.58 310.35 320.78 307.45 316.18"/><polygon class="cls-3" points="25.95 124.78 27.85 123.38 29.75 122.88 32.55 119.58 30.15 120.58 26.85 120.58 22.05 121.98 20.75 124.58 19.75 126.68 22.55 124.78 25.95 124.78"/><polygon class="cls-3" points="23.95 131.98 29.25 135.78 28.75 133.38 26.85 131.98 23.95 131.98"/><path class="cls-1" d="M314.45,343.08s.5-5.2,1.1-6.3c.5-1.3.9-2.6,1.3-4l.9,4.5-1.8,9.4Z"/><polygon class="cls-3" points="218.15 266.28 217.15 267.18 217.55 267.08 218.15 266.28"/><polygon class="cls-3" points="224.15 260.08 223.55 260.98 224.45 259.58 224.15 260.08"/><polygon class="cls-3" points="294.85 358.48 295.05 357.48 294.85 356.58 293.95 355.78 293.55 354.88 293.55 353.28 294.25 351.68 294.35 350.58 294.45 349.48 294.25 348.48 293.05 347.68 292.05 346.98 291.55 346.48 291.25 347.28 291.05 348.08 289.75 347.68 288.05 346.98 287.55 346.28 286.05 346.48 285.05 347.18 284.05 347.98 283.65 349.18 283.65 350.68 283.35 352.38 283.05 353.38 282.85 354.68 283.45 355.68 284.25 356.28 285.25 355.38 286.15 354.58 287.15 354.38 288.35 354.48 289.35 355.88 289.75 357.48 292.35 359.38 293.05 359.28 294.05 359.08 294.85 358.98 295.25 359.28 294.85 358.48"/><polygon class="cls-3" points="224.85 259.08 224.45 259.58 224.95 258.98 224.85 259.08"/><polygon class="cls-3" points="233.55 249.18 233.35 249.38 233.95 251.18 233.95 249.88 233.55 249.18"/><polygon class="cls-3" points="225.55 258.08 224.95 258.98 226.45 257.38 225.55 258.08"/><polygon class="cls-3" points="233.95 251.18 232.35 252.88 233.65 251.78 233.95 251.18"/><polygon class="cls-3" points="144.15 108.68 143.45 111.28 143.45 113.18 141.85 115.18 144.75 118.08 146.45 120.68 150.35 121.68 151.25 128.18 149.95 130.78 148.05 132.08 148.65 136.28 149.65 138.28 145.45 140.58 143.85 142.18 139.85 145.38 139.25 150.68 137.65 154.18 135.95 155.18 134.65 157.48 135.95 159.78 139.25 161.08 143.15 162.68 145.45 162.68 145.75 161.38 145.75 159.38 147.35 159.38 148.35 161.38 149.95 162.08 151.65 162.08 155.55 161.08 157.75 160.68 159.45 159.78 160.75 158.78 162.95 158.98 162.55 155.08 163.45 151.78 164.45 148.48 163.95 142.78 160.65 137.98 160.65 133.18 159.15 130.88 158.75 128.48 155.85 126.58 151.55 122.78 150.65 119.38 151.05 117.48 150.65 112.28 148.75 108.48 146.05 107.98 144.15 108.68"/><line class="cls-4" x1="188.55" y1="265.08" x2="187.75" y2="264.28"/><polyline class="cls-3" points="139.65 146.18 143.55 142.88 145.15 141.28 149.35 138.98 148.45 137.08 147.75 132.88 149.75 131.58 151.05 128.88 150.05 122.38 146.15 121.48 144.55 118.88 141.55 115.88 143.25 113.98 143.25 111.98 143.85 109.38 145.85 108.78 148.45 109.18 148.45 109.08 148.05 106.78 147.95 103.48 144.65 98.68 145.05 92.98 146.55 90.08 144.65 88.18 139.85 84.88 137.05 82.98 133.65 79.18 130.85 75.38 128.85 75.78 127.45 77.28 122.75 80.58 119.85 81.08 116.05 79.68 114.15 77.78 113.15 75.78 112.25 71.98 111.25 68.68 109.85 65.38 110.35 60.08 107.45 55.78 107.95 52.48 106.55 49.18 103.65 48.18 104.55 43.88 104.55 40.58 103.15 37.68 99.85 36.28 99.85 33.88 100.25 28.68 101.25 24.38 97.95 25.28 95.55 19.58 95.55 16.78 95.55 13.38 94.55 10.58 94.15 6.68 90.75 6.68 88.85 6.28 88.35 1.98 86.95 3.88 82.65 5.28 83.15 7.68 83.15 10.58 82.65 12.88 82.15 15.78 81.25 18.68 77.85 24.88 79.35 26.78 78.35 29.58 77.45 31.48 76.45 27.18 75.05 29.58 73.65 33.38 73.15 35.28 75.05 37.68 78.85 40.58 71.75 45.28 70.75 48.68 75.05 51.48 70.75 56.28 67.45 66.28 71.25 70.08 71.25 76.28 69.35 78.18 69.75 81.08 70.25 85.38 71.75 88.18 73.15 90.58 70.75 92.98 67.45 109.68 65.95 114.38 63.65 122.58 60.25 127.78 57.45 130.58 55.55 138.28 54.55 140.58 52.65 141.58 49.35 142.98 44.05 144.88 41.25 144.88 36.45 144.88 34.05 144.88 30.75 143.48 27.85 141.58 24.95 140.58 21.25 139.18 18.85 136.78 15.45 132.08 13.05 129.68 10.75 129.18 0.75 127.28 0.75 318.38 57.85 318.88 57.85 382.28 180.65 382.28 180.65 379.88 179.95 378.58 180.65 373.08 181.35 369.18 181.65 364.28 182.25 362.68 182.95 360.38 185.55 360.38 185.85 356.78 185.85 353.88 185.85 352.28 183.55 351.88 183.25 349.28 183.55 346.08 185.25 343.48 183.25 341.48 185.25 339.18 187.15 339.18 187.45 330.38 190.05 329.08 191.05 324.58 192.05 322.28 193.05 320.68 193.05 318.68 190.05 317.08 188.45 315.78 187.85 313.78 187.45 311.58 190.45 308.58 191.35 306.68 193.05 304.38 195.95 302.78 198.25 300.48 200.15 299.18 203.45 297.58 205.35 297.18 202.15 295.58 197.25 293.28 193.65 294.98 190.45 296.28 186.55 297.58 184.55 296.28 181.65 293.58 178.05 292.68 176.45 287.08 179.05 285.78 180.35 283.58 183.55 281.58 185.55 279.28 187.15 276.08 186.85 273.08 187.85 270.48 188.75 266.28 188.35 265.88"/><path class="cls-3" d="M310.25,363.28l-.5-1.1-.9-1,.6-2.6.3-1.5,1.1-1.2.9-.8,1.4-.8,1.5-.9,1.4-.4h0l-.6-1.5-3.3-7.6-2.9-3.8s-1.3.2-1.5.2a8.47,8.47,0,0,1-1.4-1l-.7-1.2-.5-1.3-.7-1.4-3-.4-1.4-.6-.3-1.6-.5-.8.1-1.2-1.9-.5-2-1.6-2.3-.6-3.6.6-.3,1.3.3,2.9v1.6l-.8,1.3.6,1.2.5,1.7.5,2.1.5,1.3-.4,1.1-.3,1.8,1,1.2-.1.3.5.5,1.1.7,1.2.8.2,1-.1,1.1-.1,1.1-.7,1.6v1.6l.5.9.8.8.3.9-.2,1,.4.8.6,1.8.8,1.7.4,1.3,1,1.1.7.6.5.5.8.6.4.5v.2l7.5-.4,2.9-1.4-.4-.9Z"/><path class="cls-3" d="M287,287.18l-1.9-6.2-6.7-.5-1.9-2.4-2.3-2.9-3.8-1-5.3-5.3-3.3-4.3-1.4-2.9,2.4-9.5v-5.7l-2.4,1L258,247l-5.2-.5-2.9-4.3-5.2-1-1.4,5.7-1.4-3.3-1,1-1.6,1.9-2,1.2h-1.4l-1.5.1-.7,1.2.5.8v1.3l-.3.5-1.3,1.1-2,3.3-2.6,1.3h-1.3L225,259l-.5.7-.9,1.4-.4.9-.9,1.2-1,.1-1.9,2.1-1.2,1-.6.8-.4.1-.9.1-.2-.6-.9-2.5.2-1.6.1-1.3V259l.6-2.6v-1.6l-1.3-.3-2.9-.6h-1.2l-.4-1.5,1.3-.7-.8-1H209c-.5.3-.9.6-1.4.9-.4.1-.6-1.6-.6-1.6l-.9-.6h-2l-1.4.6-2.5,1.9-2.5,2h-1.6l-.9.4-.6,1.2-.9,1.6-1.7,1.5-1.6.9-1.1.8-.3.5-.3,1.6.2,1.3-.3,1.5.5.5-1,4.2-.9,2.6.3,2.9-1.6,3.3-2,2.3-3.3,2-1.3,2.3-2.5,1.3,1.6,5.5,3.6,1,2.9,2.6,2,1.3,3.9-1.3,3.3-1.3,3.6-1.6,4.9,2.3,3.3,1.6,1.3,1.6,1.6,2.9,2.9,2.3h4.5l2.6,1,1,2.6,3.9,1.6,1,1.3v2l-2,1.3,2.6,2.6,3.3,2.9,4.9-1,4.6-1.3h6.8l3.3-1,2.9-.6h4.2l.3-3.7V311l-.3-6.6,2-3.6v-4.6l2.3-3.6,2.6-1,2.9-1.6.3-2.6,3.3-2,1.6,1.3,1,2,2.6,1.3,1.6-1.6h1.3l1.3,2.3,2,1.6,2.3.3h3.9l1-3.3Z"/><polygon class="cls-3" points="307.35 315.98 307.85 311.48 307.35 307.68 302.65 307.68 300.25 304.28 299.35 299.98 296.45 294.28 293.35 293.38 288.95 286.38 286.95 287.18 287.05 289.28 286.05 292.58 282.15 292.58 279.85 292.28 277.95 290.58 276.65 288.38 275.35 288.38 273.65 289.98 271.05 288.68 270.05 286.68 268.45 285.38 265.25 287.38 264.85 289.98 261.95 291.58 259.35 292.58 257.05 296.18 257.05 300.68 255.15 304.28 255.45 310.78 255.45 310.98 256.75 311.08 259.35 312.08 260.05 314.08 260.35 315.68 260.65 318.58 263.25 318.58 269.15 319.88 267.45 321.48 267.85 325.08 270.45 329.98 273.05 331.98 276.65 333.88 277.95 335.18 280.85 337.18 283.15 337.18 285.35 335.48 287.35 335.18 288.65 336.88 289.25 335.88 289.95 334.58 289.95 332.88 289.65 329.98 289.95 328.68 293.55 328.08 295.85 328.68 297.75 330.28 299.65 330.88 300.05 330.98 302.05 329.38 303.35 327.38 303.65 324.78 304.95 322.48 307.25 322.88 309.05 321.38 310.15 320.58 307.35 315.98"/><polygon class="cls-3" points="25.75 124.68 27.65 123.18 29.55 122.78 32.45 119.38 30.05 120.38 26.75 120.38 21.95 121.78 20.65 124.48 19.55 126.58 22.45 124.68 25.75 124.68"/><polygon class="cls-3" points="23.85 131.78 29.05 135.58 28.65 133.18 26.75 131.78 23.85 131.78"/><path class="cls-5" d="M314.35,342.88s.5-5.2,1.1-6.3c.5-1.3.9-2.6,1.3-4l.9,4.5-1.8,9.4Z"/><polygon class="cls-3" points="150.55 132.38 153.05 136.58 160.75 138.18 160.75 133.38 159.35 130.98 158.85 128.58 150.95 121.98 150.05 122.38 150.95 128.58 150.15 130.98 150.55 132.38"/><polygon class="cls-3" points="305.75 338.18 304.65 343.78 305.75 348.78 307.75 347.78 308.95 352.08 313.05 354.28 316.05 352.98 312.85 343.88 309.35 340.08 305.75 338.18"/><path class="cls-3" d="M267.85,325.08l-2.1,4.4s1.4,6.3,2.1,6.3,2.7,7,2.7,7l-2.4,3.9,2.4,3.8,2.7,2.4-2,2.9,5.6,4.6,3.4-.9,4.3.2,2.7-5.2-1.5.3-1.5.6-1.3.4.7-3.1.1-2.8.2-1.8,2.4-1.3,1.4-.3.5.7,3,1.1-.3-2,.3-1.3-.4-2.2.7-1.5-1.4-3.1-.5-1.6-1.4-.9-1-.8-3.3,1.5-1.7.9-1.3-.1-1.8-1.6-1.7-1.1-1.7-1.1-1.9-.8-1.9-1.4-1.6-1.8Z"/><polygon class="cls-3" points="304.75 306.78 306.05 287.98 302.55 282.48 301.85 292.48 301.65 296.48 299.75 299.58 304.75 306.78"/><polygon class="cls-6" points="194.15 189.08 192.85 186.48 184.05 193.88 187.55 200.08 189.15 201.48 194.15 189.08"/><g id="Layer_4" data-name="Layer 4"><path class="cls-6" d="M187.05,261.18l3.4,3.1-.6,3.7-1.1,2s-2.7,3.7-2.9,3.5-4.1-6.3-4.1-6.3Z"/><path class="cls-6" d="M183.55,279.28l1.8,3.1s-6.2,8.9-6.4,8.9-2.6,1.3-2.6,1.3l-4.6-7.9s3.8-4.3,4.9-4.8C177.85,279.58,183.55,279.28,183.55,279.28Z"/><path class="cls-6" d="M183,297c.2-.1,12.7-2.9,12.7-2.9l1.5-3.2s2.9,4.9,2.7,5l-10,5.3s-7,.1-7-.6S183,297,183,297Z"/><polygon class="cls-6" points="202.55 296.68 203.85 299.38 199.45 301.58 195.55 314.38 198.55 326.38 192.85 346.08 187.75 353.08 181.05 350.68 172.35 339.08 177.45 301.38 197.35 297.18 202.55 296.68"/><path class="cls-6" d="M179.85,370.78l1.4,1h2.1l.4,3.1V381l-2.5.6s-2.8.2-2.7,0-3.3-9.1-3.3-9.1Z"/><path class="cls-6" d="M256.75,313.08l.9-1.6-3.6-8.3.3-17.5s13.3-4.3,13.9-4.3,14.5,3.9,14.5,3.9l3.2,1.9.5,1.1,1.5-.4s1.8,4.5,2,5.3-1.1,6.6-1.1,6.6l20.1,20.8-1,1,1.3,1.9-.7,4.1-2.2,4.9,2.6,6.8-.4,2.1,6.4,11.4,1,2.2-4.7,10.1-2.4.7-8.4,1.1-2,.4-10.1-4.9-15.4,8.2-9.8-26.6s1.9-14.5,1.8-14.7-8.9-11.7-8.9-11.7l-.8-.8Z"/><polygon class="cls-6" points="241.95 246.48 241.05 244.38 239.85 243.68 233.15 245.88 233.45 248.18 235.75 251.38 241.95 246.48"/><polygon class="cls-6" points="160.35 139.68 160.35 138.88 159.75 136.38 153.55 133.38 151.55 123.98 150.65 122.98 148.75 122.98 149.75 130.08 153.15 135.88 154.05 137.58 159.25 140.28 160.35 139.68"/><polygon class="cls-6" points="146.95 119.08 147.35 122.58 150.05 125.98 151.55 123.48 150.55 122.48 149.75 119.58 146.95 119.08"/></g><g id="Layer_3" data-name="Layer 3"><path class="cls-5" d="M167,167.78l-2.4,6.1V181l6.8,6.5,4.3,6.8,7.3,3,5.9,4.9h6l3,3,7.5,3.7,5.8,9.5-5.8,1.7s2.8,8.7,3.8,8.4,8,4.2,8,4.2l-4.2,4.1,4.2,4.5h6.4l7.2,4,5,7.6,4.6,6.6.2-8.4,5.4,3.7s-3.4,6.1-1.7,7.8,1.7,6.8,1.7,6.8h-11.8l1.6,10.4s3.1,4.2,2.7,5.6-5.1,9.1-5.1,9.1l-1,10,1.8,3.7,11.8-1.6,7.8-2.5,3.1,7-3.5,7.4,3.5,2.7v3.7l-5.9,2.9,4.1,6.2,5.8,2.9-3.4,5.5-.7,3.5-11.6-1.4-4.8-4.5-4.4,5.9.3,1.8-7.1-1.8V350s2.3,5.8,4.9,5.4,7.5-1.5,7.5-1.5l-3.9,11.5s-2,.7-.7,1.9,1,4,1,4-4.2,6.8-4,6.5-12.7,2-12.7,2l-16,1.3-2.9-5.7-5.3,1.7-2.3-5.4-4.5-6.1-1.7,3.7-7.4,1.3-4.5-3.4,6.1-10.5-2.5-5.8,8.3,3,6.2-1.3,5.4-.2,2.1-6.6-2.4-8.9,5.4-4.6,8.9,2.5,3.9-7.2.1-6.4-5.5-6.5h-7.4l-5.4-8.4,1-3.5,1.4-2,3-.7-2.8-5.5-3-1.5-2.4-4.5-2.3,4.8-10,1.9-4.5.9-2.4-4,6.3-3.3,3.9-3.9-4.9-8.3,4.1-4.1,4.4-5.4v-3.3l-6.1-5.3-6.9-2-2-6.8,3.6-4.8,5.9-.3-2.7-6.1-3.2-5.1v-5.2l-.9-3.7-5.8,1.5-5.3-4.6,1.5-3-1.5-5.4-5.3-4.8s2.4-4.4,1.2-4.8-8.7,2-8.7,2l-6,.3-5.6-1.7-4.9-3.5-8-.6-3.1-3.1-4.4-4.4,7.5-2.9,6.1-2.6.3-3.4-.3-6.8s-1-7.7-1.5-9.5,6-12.3,6-12.3l3.1-4.8s-4.8-2.5-5-3.2a35.44,35.44,0,0,0-2.8-3.6l5.4-3.7,1-4.4-.3-2.1,5.1-3.6-2.7-5.5s-5.8-1.8-8.2-1.6a50,50,0,0,0-7.1,1.6l-3.5-7.1s5.5-3.1,6.5-4.1,3.7-3.1,3.7-3.1l1-5.4-1.4-5.4-.3-6.8s3.4,2.4,4.4,1-1.5-8-1.5-8l5.8,4.3,3.2,12.3-2.4,13.6.7,7.3,3.5,10.7,10.8,14,1.9,9.9.6,8.4Z"/><path class="cls-3" d="M195.05,239.58c1.1,0,4.6-2.7,4.6-2.7l2.9,2,1.5,2.6h6.8l-.3,2.9-6.6,4.9c-3.9,1.5-5.6,1-5.6,1l-6-4.6-1.5-5.8Z"/><path class="cls-3" d="M200.85,276.08l6.6-1.7,5.4,1.7,2-1.7,3.3-4.4,5.3,1.4v4.8l.1,4-3.3.2s-1,4.7,0,5.2,0,3.9,0,3.9l-5.4-1.7-6.1-5.1-3.4-4.4Z"/><path class="cls-3" d="M210.85,342.68c.3-1.3,4.4-3,4.4-3l3,4.8-2.7,3.5-4.8-1.8v-3.5Z"/></g></g></g></svg>