<svg id="Layer_1" data-name="Layer 1" xmlns="http://www.w3.org/2000/svg" viewBox="0 0 318.5 386"><defs><style>.cls-1,.cls-3{fill:#7cb5ab;}.cls-1,.cls-2,.cls-3,.cls-4,.cls-5{stroke:#fff;stroke-miterlimit:10;stroke-width:1.25px;}.cls-1,.cls-2{opacity:0.5;isolation:isolate;}.cls-2,.cls-4{fill:none;}.cls-5{fill:#009786;}</style></defs><title>queensland map</title><polygon class="cls-1" points="208.59 253.99 207.75 254.74 208.09 254.66 208.59 253.99"/><polygon class="cls-1" points="213.6 248.81 213.1 249.56 213.85 248.39 213.6 248.81"/><polygon class="cls-1" points="272.67 331.03 272.84 330.19 272.59 329.44 271.92 328.77 271.58 328.02 271.58 326.68 272.17 325.35 272.25 324.43 272.34 323.51 272.17 322.67 271.25 322 270.33 321.42 269.91 321 269.58 321.67 269.5 322.34 268.41 322 266.99 321.42 266.57 320.83 265.32 321 264.48 321.58 263.73 322.25 263.31 323.17 263.31 324.51 263.06 325.93 262.89 326.76 262.64 327.85 263.15 328.69 263.73 329.1 264.65 328.35 265.4 327.68 266.24 327.52 267.24 327.6 268.07 328.85 268.41 330.19 270.58 331.78 271.25 331.69 272 331.44 272.59 331.36 273 331.69 272.67 331.03"/><polygon class="cls-1" points="214.19 247.89 213.85 248.39 214.27 247.81 214.19 247.89"/><polygon class="cls-1" points="221.45 239.71 221.29 239.87 221.79 241.38 221.79 240.29 221.45 239.71"/><polygon class="cls-1" points="214.77 247.06 214.27 247.81 215.52 246.56 214.77 247.06"/><polygon class="cls-1" points="221.79 241.38 220.45 242.8 221.54 241.88 221.79 241.38"/><polygon class="cls-1" points="146.76 122.23 146.17 124.49 146.17 126.08 144.84 127.75 147.26 130.17 148.6 132.34 151.94 133.18 152.69 138.61 151.6 140.78 150.02 141.87 150.52 145.38 151.35 147.05 147.84 148.97 146.43 150.31 143.17 152.98 142.66 157.32 141.33 160.33 139.91 161.17 138.82 163.09 139.91 164.93 142.66 166.1 145.92 167.43 147.84 167.43 148.1 166.35 148.1 164.68 149.43 164.68 150.27 166.35 151.6 166.85 153.03 166.85 156.28 166.1 158.12 165.76 159.54 164.93 160.63 164.18 162.55 164.26 162.13 161.08 162.88 158.33 163.72 155.57 163.3 150.72 160.54 146.8 160.54 142.79 159.29 140.78 158.96 138.78 156.53 137.19 152.94 134.01 152.19 131.26 152.52 129.67 152.19 125.24 150.6 122.06 148.35 121.73 146.76 122.23"/><line class="cls-2" x1="183.86" y1="252.99" x2="183.19" y2="252.24"/><polyline class="cls-1" points="183.19 252.24 182.6 251.74 180.18 250.4 177.17 250.06 176.42 247.89 175.58 246.06 172.58 244.38 170.15 241.96 169.57 239.45 168.23 237.87 165.47 236.78 162.8 234.86 163.3 232.94 162.8 229.43"/><polygon class="cls-1" points="159.54 164.93 158.12 165.76 156.28 166.1 153.03 166.85 151.6 166.85 150.27 166.35 149.43 164.68 148.1 164.68 148.1 166.35 147.84 167.43 145.92 167.43 142.66 166.1 139.91 164.93 138.82 163.09 138.57 166.1 139.16 169.61 139.91 172.61 139.66 175.87 139.16 177.79 137.23 179.63 133.98 183.22 132.05 183.98 132.31 187.57 133.39 190.58 135.06 191.91 136.65 191.66 138.82 193.84 141.83 198.18 144.59 202.78 146.17 204.36 147.84 207.71 147.84 212.3 149.43 215.81 151.1 217.15 153.03 220.74 154.61 224 156.28 226.17 157.12 228.84 160.29 229.43 162.8 229.43 162.8 227.51 164.72 225.92 163.89 224.83 163.64 223.41 163.64 221.57 163.64 220.15 164.39 219.4 166.06 220.15 167.4 221.24 168.48 222.08 170.15 222.08 171.49 220.74 173.41 221.24 175.25 220.99 176.42 219.9 177.51 218.82 177.51 217.48 176.92 216.06 177.17 214.22 177.76 212.3 177.76 210.63 177.76 208.79 178.01 206.87 178.84 205.2 180.18 204.36 181.52 204.36 183.19 203.61 183.69 202.27 184.02 200.35 184.27 198.43 183.69 196.51 182.94 195.17 184.78 194.09 185.36 195.42 187.28 194.59 187.28 192.41 187.28 191.33 189.2 190.16 187.62 185.4 185.19 183.81 180.85 183.06 174.08 179.47 170.49 177.04 168.48 173.45 168.06 171.11 167.31 168.69 164.47 167.52 162.55 164.26 160.63 164.18 159.54 164.93"/><polygon class="cls-1" points="290.38 326.43 290.38 326.43 289.13 326.76 287.88 327.52 286.79 328.19 286.04 328.85 285.12 329.86 284.87 331.11 284.37 333.28 285.12 334.12 285.45 335.04 285.62 336.37 285.95 337.13 285.95 337.13 290.3 335.54 291.13 332.36 291.13 328.35 290.38 326.43"/><path class="cls-1" d="M285.45,335l-.41-.92-.76-.84.51-2.17.25-1.25.92-1,.75-.66,1.17-.67,1.25-.75,1.17-.34h0l-.5-1.25L287,318.83l-2.42-3.18s-1.09.17-1.26.17a6.34,6.34,0,0,1-1.08-.84l-.59-1-.41-1.08-.59-1.17-2.51-.34-1.08-.5-.25-1.34-.42-.66.17-1-1.59-.42-1.67-1.33-1.92-.5-3,.5-.25,1.08.25,2.43V311l-.67,1.09.5,1,.42,1.42.33,1.76.42,1.08-.25.92-.25,1.51.84,1-.09.25.42.42.92.58,1,.67.17.84-.08.92-.09.91-.58,1.34V328l.33.75.67.67.25.75-.17.84.34.66.5,1.51.67,1.42.33,1.08.84.92.58.51.34.41.66.5.34.42v.17l6.26-.33,2.34-1.17-.33-.76Z"/><polyline class="cls-1" points="269.91 321 270 320.75 269.16 319.75 269.41 318.24 269.66 317.32 269.25 316.32 268.83 314.57 268.49 313.15 267.91 312.14 267.49 312.9 266.4 311.56 264.73 311.81 262.89 313.23 260.97 313.23 258.55 311.56 257.46 310.47 254.46 308.8 252.28 307.21 250.11 303.12 249.78 300.11 251.2 298.77 246.27 297.69 244.1 297.69 243.84 295.27 243.59 293.93 243.01 292.26 240.84 291.42 239.75 291.34 239.5 294.43 237.58 294.43 235.91 294.43 233.49 294.93 230.81 295.77 228.31 295.77 225.05 295.77 221.29 296.85 217.19 297.69 214.44 295.27 212.26 293.09 213.93 292.01 213.93 290.34 213.1 289.25 209.84 287.91 209 285.74 206.83 284.91 203.07 284.91 200.57 282.98 199.23 280.56 198.14 279.23 196.47 279.48 193.8 280.81 192.13 281.9 190.29 283.82 187.78 285.16 186.45 287.08 185.61 288.75 183.19 291.17 183.44 293.09 184.02 294.68 185.36 295.77 187.78 297.1 187.78 298.77 186.95 300.11 186.19 302.03 185.36 305.88 183.19 306.96 182.94 314.32 181.27 314.32 179.68 316.15 181.27 317.82 179.93 320 179.68 322.75 179.93 324.93 181.85 325.18 181.85 326.51 181.85 328.94 181.52 331.94 179.34 331.94 178.84 333.87 178.26 335.2 178.01 339.3 177.51 342.56 176.92 347.15 177.51 348.32 177.51 350.24 212.68 350.24 215.44 349.07 219.03 345.9 221.87 343.06 225.38 344.64 230.23 343.06 236.58 341.47 241.34 342.64 247.69 345.9 253.29 348.24 253.29 350.66 256.04 353 259.64 349.82 265.23 347.49 266.07 343.06 267.99 341.14 270.83 337.88 275.18 338.71 277.35 338.63 277.27 338.46 277.01 338.04 276.35 337.54 275.93 337.13 275.34 336.62 274.51 335.7 274.17 334.62 273.51 333.2 273 331.69 273 331.69 272.59 331.36 272 331.44 271.25 331.69 270.58 331.78 268.41 330.19 268.07 328.85 267.24 327.6 266.24 327.52 265.4 327.68 264.65 328.35 263.73 329.1 263.15 328.69 262.64 327.85 262.89 326.76 263.06 325.93 263.31 324.51 263.31 323.17 263.73 322.25 264.48 321.58 265.32 321 266.57 320.83 266.99 321.42 268.41 322 269.5 322.34 269.58 321.67 269.91 321"/><path class="cls-1" d="M225,233.19l-2.42-2-1.17-3.59-.84-1.59-.83-4-2-2.76.42-2.42-1.59-3.17-2.34-1.17L209,208.12l-.41-3.59,1.17-2.42-.42-3.6h-3.18l-4.76-3.92-4.34-2-6.44-.83L189,190.16l-1.93,1.17v3.26l-1.92.83-.5-1.33-1.92,1.08.84,1.34.5,1.92-.25,1.92-.25,1.92-.59,1.34-1.67.84H180l-1.33.83-.84,1.67-.25,1.84v3.51l-.59,1.92-.25,1.92.59,1.34v1.34l-1.09,1.08L175.17,221l-1.93.25-1.92-.5L170,222.08h-1.68l-1.08-.84-1.34-1.09-1.67-.83-.83.83v3.26l.25,1.34.83,1.09-1.92,1.67v1.92l.58,3.51-.58,1.92,2.76,1.92,2.75,1.09,1.34,1.67.5,2.42,2.43,2.42,3,1.67.84,1.93.83,2.17,3,.25,2.43,1.34.58.5.67.67.25-1.26-.17-1.08.25-1.34.25-.42.92-.67,1.34-.75,1.34-1.25.75-1.34.5-1,.75-.34h1.34l2.09-1.67,2.09-1.58,1.17-.5h1.67l.75.5s.08,1.5.5,1.33a3.25,3.25,0,0,0,1.17-.75h1.59l.67.84-1.09.58.33,1.25h.92l2.43.51,1.08.25v1.33l-.5,2.18v1.92l-.08,1.08-.17,1.34.75,2.09.17.5.75-.08.84-.75,1-.84,1.59-1.75.83-.09.75-1,.34-.75.5-.76.25-.41.33-.5.09-.09.5-.75.75-.5h1.09l2.17-1.09,1.67-2.75,1.34-1.51-.5-1.5.16-.25.59-1,1.25-.08h1.09l1.67-1,1.33-1.59.84-.83Z"/><path class="cls-1" d="M266.07,271.45l-1.59-5.18-5.6-.41-1.58-2-2-2.42-3.17-.84-4.35-4.34L245,252.66l-1.17-2.43,2-7.93v-4.77l-2,.84-2-.42-4.34-.42-2.34-3.59-4.35-.84-1.17,4.77-1.17-2.76-.83.84-1.34,1.58-1.67,1h-1.09l-1.25.08-.59,1,.42.67v1.09l-.25.41-1.08.92-1.68,2.76-2.17,1.09h-1.08l-1.34,1.25-.42.58-.75,1.17-.33.76-.76,1-.83.08-1.59,1.76-1,.83-.5.67-.34.08-.75.09-.17-.5-.75-2.09.17-1.34.08-1.09v-1.92l.5-2.17v-1.34l-1.08-.25-2.51-.58h-1l-.34-1.25,1.09-.59-.67-.84h-1.5c-.42.26-.75.51-1.17.76-.34.08-.5-1.34-.5-1.34l-.75-.5H197l-1.17.5-2.08,1.59-2.09,1.67h-1.34l-.75.33-.5,1-.75,1.33L187,247.48l-1.34.75-.92.67-.25.41-.25,1.34.17,1.09-.25,1.25.41.42-.83,3.51-.84,2.17.25,2.42-1.25,2.76-1.67,1.92-2.76,1.67-1.08,1.92-2.18,1.09,1.34,4.59,3,.84,2.42,2.17,1.67,1.09,3.26-1.09,2.76-1.17,3-1.33,4.09,1.92,2.76,1.33,1.08,1.34L200.9,283l2.42,1.93h3.85l2.17.83.84,2.17,3.25,1.34.84,1.09V292l-1.67,1.08,2.17,2.18,2.76,2.42,4.09-.84,3.85-1.08h5.68l2.75-.84,2.43-.5h3.51l.25-3.09v-.17l-.25-5.43,1.67-3v-3.84l1.92-3,2.17-.83,2.42-1.34.25-2.17,2.76-1.67,1.34,1.08.83,1.67,2.18,1.09,1.33-1.34h1.09l1.09,1.92,1.67,1.34,1.92.25h3.26l.83-2.75Z"/><path class="cls-1" d="M281.11,301,280,302.87l-.25,2.17-1.08,1.67L277,308.05l-.33-.08-.08,1,.33.67.25,1.33,1.09.51,2.5.33.59,1.17.42,1.09.58,1a6.06,6.06,0,0,0,1.09.83c.17,0,1.25-.16,1.25-.16l1.59-6.35.42-3.18-.42-4-1.84-2-1.5,1.17Z"/><polygon class="cls-1" points="283.11 295.52 283.53 291.67 283.2 288.5 279.19 288.5 277.18 285.74 276.35 282.15 274.01 277.39 271.42 276.63 267.74 270.79 266.07 271.37 266.15 273.21 265.32 275.97 262.06 275.97 260.14 275.63 258.55 274.3 257.46 272.37 256.38 272.37 254.96 273.79 252.78 272.71 252.03 271.04 250.61 269.95 247.94 271.54 247.6 273.79 245.18 275.13 243.01 275.97 241.09 278.89 241.09 282.73 239.5 285.74 239.75 291.17 239.75 291.34 240.84 291.42 243.01 292.26 243.59 293.93 243.84 295.27 244.1 297.69 246.27 297.69 251.2 298.77 249.78 300.11 250.11 303.12 252.28 307.21 254.46 308.8 257.46 310.47 258.55 311.56 260.97 313.23 262.89 313.23 264.73 311.81 266.4 311.56 267.49 312.9 267.91 312.14 268.58 311.06 268.58 309.64 268.33 307.21 268.58 306.13 271.58 305.63 273.51 306.13 275.09 307.46 276.68 307.88 277.01 308.05 278.6 306.63 279.69 305.04 280.02 302.87 281.11 300.95 283.03 301.2 284.54 300.03 285.45 299.36 283.11 295.52"/><polygon class="cls-3" points="47.84 135.6 49.42 134.43 51.01 134.01 53.43 131.26 51.43 132.09 48.67 132.09 44.66 133.26 43.49 135.43 42.66 137.19 45.08 135.6 47.84 135.6"/><polygon class="cls-3" points="46.25 141.62 50.59 144.79 50.17 142.79 48.67 141.62 46.25 141.62"/><path class="cls-1" d="M289,318s.42-4.34.92-5.26c.42-1.09.75-2.17,1.09-3.34l.75,3.76-1.5,7.85Z"/><polygon class="cls-3" points="208.42 253.82 207.58 254.58 207.92 254.49 208.42 253.82"/><polygon class="cls-3" points="213.43 248.65 212.93 249.4 213.68 248.23 213.43 248.65"/><polygon class="cls-3" points="272.59 330.86 272.75 330.02 272.5 329.27 271.83 328.6 271.42 327.85 271.42 326.51 272.09 325.18 272.09 324.26 272.17 323.34 272.09 322.5 271.08 321.84 270.16 321.25 269.75 320.83 269.5 321.5 269.33 322.17 268.33 321.84 266.9 321.25 266.4 320.67 265.23 320.83 264.4 321.42 263.56 322.09 263.15 323.09 263.15 324.34 262.98 325.76 262.73 326.6 262.48 327.68 263.06 328.52 263.65 329.02 264.57 328.27 265.32 327.6 266.07 327.43 267.07 327.52 267.91 328.69 268.33 330.02 270.5 331.61 271.08 331.53 271.92 331.36 272.5 331.28 272.92 331.53 272.59 330.86"/><polygon class="cls-3" points="214.1 247.81 213.68 248.23 214.1 247.73 214.1 247.81"/><polygon class="cls-3" points="221.29 239.54 221.12 239.71 221.7 241.21 221.7 240.12 221.29 239.54"/><polygon class="cls-3" points="214.69 246.97 214.1 247.73 215.44 246.39 214.69 246.97"/><polygon class="cls-3" points="221.7 241.21 220.28 242.63 221.37 241.71 221.7 241.21"/><polygon class="cls-3" points="146.59 122.15 146.09 124.32 146.09 125.91 144.75 127.58 147.18 130 148.51 132.18 151.77 133.01 152.61 138.44 151.52 140.61 149.85 141.7 150.44 145.21 151.27 146.88 147.68 148.8 146.34 150.14 143.08 152.81 142.5 157.24 141.16 160.16 139.82 161 138.74 162.92 139.82 164.84 142.5 165.93 145.84 167.27 147.68 167.27 148.01 166.18 148.01 164.51 149.35 164.51 150.19 166.18 151.52 166.76 152.86 166.76 156.12 165.93 158.04 165.59 159.38 164.84 160.46 164.01 162.38 164.18 161.97 160.92 162.8 158.16 163.55 155.4 163.13 150.64 160.38 146.63 160.38 142.62 159.21 140.7 158.79 138.69 156.45 137.1 152.78 133.93 152.02 131.09 152.44 129.5 152.02 125.16 150.44 121.98 148.26 121.56 146.59 122.15"/><line class="cls-4" x1="183.77" y1="252.82" x2="183.02" y2="252.15"/><polyline class="cls-3" points="182.85 252.74 182.27 252.24 179.84 250.82 176.84 250.57 176 248.39 175.25 246.47 172.24 244.88 169.82 242.38 169.23 239.96 167.9 238.37 165.14 237.28 162.47 235.36 162.97 233.44 162.47 229.93 159.96 229.93 156.7 229.34 155.95 226.67 154.28 224.41 152.61 221.24 150.77 217.65 149.1 216.31 147.51 212.8 147.51 208.12 145.84 204.86 144.25 203.28 141.5 198.6 138.49 194.25 136.31 192.08 134.73 192.41 133.06 191 131.97 187.99 131.72 184.48 133.64 183.64 136.9 180.13 138.74 178.21 139.32 176.29 139.57 173.03 138.74 170.11 138.24 166.51 138.49 163.51 139.57 161.67 140.91 160.83 142.33 157.82 142.83 153.48 146.09 150.72 147.51 149.39 151.02 147.47 150.19 145.88 149.68 142.37 151.27 141.28 152.36 139.03 151.52 133.59 148.26 132.84 146.93 130.67 144.5 128.16 145.84 126.58 145.84 124.91 146.43 122.73 148.01 122.23 150.27 122.57 150.19 122.48 149.93 120.56 149.85 117.8 147.01 113.79 147.43 109.03 148.6 106.61 147.01 105.02 143.08 102.26 140.66 100.68 137.9 97.5 135.48 94.33 133.89 94.66 132.72 95.91 128.71 98.67 126.29 99.09 123.11 97.92 121.53 96.33 120.78 94.66 119.94 91.49 119.19 88.73 117.93 85.97 118.35 81.54 115.93 77.95 116.35 75.19 115.18 72.44 112.75 71.6 113.59 68.01 113.59 65.25 112.42 62.83 109.58 61.66 109.58 59.65 110 55.31 110.83 51.72 107.99 52.47 105.99 47.7 105.99 45.37 105.99 42.52 105.23 40.19 104.82 36.93 102.06 36.93 100.47 36.59 100.05 33 98.8 34.59 95.29 35.76 95.63 37.76 95.63 40.19 95.29 42.11 94.87 44.53 94.04 46.95 91.28 52.13 92.45 53.72 91.7 56.06 90.86 57.65 90.11 54.05 88.86 56.06 87.69 59.23 87.27 60.82 88.86 62.83 92.12 65.25 86.1 69.18 85.27 72.02 88.86 74.36 85.27 78.37 82.51 86.72 85.68 89.9 85.68 95.08 84.1 96.67 84.51 99.09 84.93 102.68 86.1 105.02 87.27 107.03 85.27 109.03 82.51 122.98 81.34 126.91 79.33 133.76 76.58 138.11 74.15 140.45 72.57 146.88 71.73 148.8 70.14 149.64 67.39 150.81 63.04 152.39 60.62 152.39 56.61 152.39 54.69 152.39 51.84 151.22 49.51 149.64 47.08 148.8 43.91 147.63 41.9 145.63 39.15 141.7 37.14 139.69 35.13 139.28 26.78 137.69 26.78 297.36 74.57 297.77 74.57 350.74 177.09 350.74 177.09 348.74 176.59 347.65 177.09 343.06 177.67 339.8 177.92 335.7 178.51 334.37 179.01 332.45 181.18 332.45 181.52 329.44 181.52 327.02 181.52 325.68 179.59 325.35 179.26 323.17 179.59 320.5 180.93 318.33 179.26 316.65 180.93 314.73 182.6 314.73 182.85 307.38 185.03 306.3 185.86 302.54 186.61 300.61 187.45 299.28 187.45 297.61 185.03 296.27 183.69 295.18 183.1 293.51 182.85 291.67 185.28 289.17 186.11 287.58 187.45 285.66 189.87 284.32 191.79 282.4 193.46 281.31 196.14 279.98 197.81 279.64 195.05 278.31 190.96 276.38 188.03 277.8 185.28 278.89 182.02 279.98 180.35 278.89 177.92 276.63 174.92 275.88 173.58 271.2 175.75 270.12 176.84 268.28 179.59 266.61 181.18 264.69 182.6 262.01 182.27 259.51 183.1 257.33 183.94 253.82 183.52 253.49"/><polygon class="cls-3" points="159.38 164.84 158.04 165.59 156.12 165.93 152.86 166.76 151.52 166.76 150.19 166.18 149.35 164.51 148.01 164.51 148.01 166.18 147.68 167.27 145.84 167.27 142.5 165.93 139.82 164.84 138.74 162.92 138.49 165.93 138.99 169.44 139.82 172.45 139.57 175.71 138.99 177.63 137.07 179.55 133.81 183.06 131.97 183.89 132.22 187.4 133.31 190.41 134.9 191.75 136.57 191.5 138.74 193.67 141.75 198.01 144.42 202.61 146.09 204.28 147.68 207.54 147.68 212.13 149.35 215.64 150.94 217.06 152.86 220.57 154.53 223.83 156.12 226 156.95 228.76 160.21 229.26 162.63 229.26 162.63 227.34 164.56 225.75 163.72 224.67 163.47 223.33 163.47 221.41 163.47 220.07 164.31 219.24 165.89 220.07 167.31 221.07 168.4 221.91 169.99 221.91 171.41 220.57 173.25 221.07 175.17 220.82 176.25 219.74 177.34 218.65 177.34 217.31 176.84 215.98 177.09 214.06 177.59 212.13 177.59 210.55 177.59 208.62 177.92 206.7 178.68 205.03 180.1 204.28 181.43 204.28 183.02 203.44 183.6 202.11 183.86 200.19 184.11 198.26 183.6 196.34 182.77 195 184.69 193.92 185.19 195.26 187.11 194.5 187.11 192.25 187.11 191.25 189.04 189.99 187.45 185.23 185.11 183.64 180.68 182.89 173.91 179.3 170.32 176.88 168.31 173.28 167.98 170.94 167.15 168.52 164.39 167.35 162.38 164.18 160.46 164.01 159.38 164.84"/><polygon class="cls-3" points="290.3 326.26 290.22 326.26 289.05 326.6 287.79 327.35 286.62 328.02 285.87 328.69 284.95 329.69 284.79 330.94 284.2 333.12 284.95 333.95 285.37 334.87 285.54 336.21 285.79 336.96 285.79 336.96 290.22 335.37 290.97 332.2 290.97 328.19 290.3 326.26"/><path class="cls-3" d="M285.37,334.87,285,334l-.76-.84.51-2.17.25-1.25.92-1,.75-.67,1.17-.67,1.25-.75,1.17-.34h0l-.5-1.25L287,318.66l-2.42-3.17s-1.09.16-1.26.16a7.27,7.27,0,0,1-1.16-.83l-.59-1-.33-1.08-.59-1.17-2.5-.34-1.17-.5-.26-1.33-.41-.67.16-1-1.58-.42L273.26,306l-1.93-.5-3,.5-.25,1.09.25,2.42v1.34l-.67,1.08.58,1,.34,1.42.33,1.75.42,1.09-.34.92-.25,1.5.84,1-.08.25.41.42.92.59,1,.66.17.84-.08.92-.09.92-.58,1.33v1.34l.33.75.67.67.25.75-.16.84.33.67.5,1.5.67,1.42.33,1.09.84.92.58.5.34.42.67.5.33.42v.16l6.27-.33,2.34-1.17-.34-.75Z"/><polyline class="cls-3" points="269.75 320.83 269.83 320.58 269.08 319.58 269.25 318.08 269.58 317.16 269.16 316.15 268.74 314.4 268.33 312.98 267.82 311.98 267.32 312.81 266.24 311.39 264.65 311.64 262.73 313.06 260.81 313.06 258.38 311.39 257.3 310.31 254.29 308.72 252.12 307.05 249.94 302.95 249.69 299.94 251.03 298.61 246.19 297.52 244.01 297.52 243.68 295.1 243.43 293.76 242.84 292.09 240.75 291.26 239.58 291.17 239.33 294.26 237.5 294.26 235.82 294.26 233.4 294.85 230.64 295.68 228.22 295.68 224.96 295.68 221.12 296.69 217.03 297.52 214.35 295.1 212.18 292.93 213.77 291.84 213.77 290.17 212.93 289.08 209.67 287.75 208.92 285.57 206.75 284.74 202.91 284.74 200.48 282.82 199.06 280.39 197.98 279.06 196.39 279.31 193.63 280.64 192.04 281.81 190.12 283.65 187.7 284.99 186.28 286.91 185.53 288.58 183.02 291 183.35 292.93 183.86 294.51 185.19 295.68 187.7 297.02 187.7 298.61 186.86 299.94 186.03 301.87 185.19 305.71 183.02 306.8 182.77 314.15 181.18 314.15 179.51 316.07 181.18 317.66 179.76 319.83 179.51 322.59 179.76 324.76 181.68 325.01 181.68 326.35 181.68 328.77 181.43 331.78 179.26 331.78 178.68 333.7 178.17 335.04 177.92 339.13 177.34 342.39 176.84 347.07 177.34 348.15 177.34 350.08 212.51 350.08 215.35 348.91 218.95 345.73 221.7 342.97 225.3 344.56 230.06 342.97 236.41 341.3 241.17 342.56 247.6 345.73 253.12 348.07 253.12 350.49 255.96 352.92 259.55 349.66 265.07 347.32 265.9 342.97 267.91 340.97 270.67 337.79 275.09 338.55 277.18 338.46 277.18 338.3 276.85 337.96 276.18 337.38 275.85 336.96 275.18 336.46 274.43 335.54 274.09 334.45 273.42 333.03 272.92 331.53 272.92 331.53 272.5 331.28 271.92 331.36 271.08 331.53 270.5 331.61 268.33 330.02 267.91 328.69 267.07 327.52 266.07 327.43 265.32 327.6 264.57 328.27 263.65 329.02 263.06 328.52 262.48 327.68 262.73 326.6 262.98 325.76 263.15 324.34 263.15 323.09 263.56 322.09 264.4 321.42 265.23 320.83 266.4 320.67 266.9 321.25 268.33 321.84 269.33 322.17 269.5 321.5 269.75 320.83"/><path class="cls-3" d="M224.88,233l-2.42-2-1.17-3.6-.84-1.58-.83-4-2-2.76.42-2.43-1.59-3.17L214,212.3,208.84,208l-.42-3.6,1.17-2.42-.42-3.59H206l-4.77-4-4.34-2-6.35-.83L189,189.91,187,191.08v3.26l-1.92.83-.5-1.33-1.92,1.08.83,1.34.5,1.92-.25,1.92-.25,1.92-.58,1.34-1.67.84h-1.34l-1.34.83-.83,1.67-.25,1.92v3.51l-.51,1.92-.25,1.93.59,1.33v1.34l-1.09,1.09-1.08,1.08-1.93.25-1.92-.5-1.25,1.34H168.4l-1.09-.84L166,220l-1.68-.84-.83.84v3.26l.25,1.33.84,1.09-1.93,1.67v1.92l.5,3.51-.5,1.92,2.76,1.92,2.76,1.09,1.33,1.67.51,2.51,2.5,2.42,3,1.67.84,1.92.83,2.18,3,.25,2.42,1.33.5.5.67.67.25-1.25-.16-1.09.25-1.33.25-.42.92-.67,1.33-.75,1.34-1.26.75-1.33.5-1,.76-.34h1.33l2.09-1.67,2.09-1.59,1.17-.5h1.67l.75.5s.09,1.51.5,1.34a3.55,3.55,0,0,0,1.17-.75h1.59l.67.83-1.09.59.34,1.25h1l2.42.5,1.09.25v1.34l-.59,2.17v1.92l-.08,1.09-.17,1.34.76,2.09.16.5.75-.09.84-.75,1-.83,1.59-1.76.84-.08.75-1,.33-.76.5-.75.25-.42.34-.5.08-.08.5-.75.75-.5h1.09l2.17-1.09,1.67-2.76,1.34-1.33-.5-1.51.17-.25.58-1,1.25-.09h1.09l1.67-1,1.34-1.59.83-.83Z"/><path class="cls-3" d="M265.9,271.29l-1.58-5.18-5.6-.42-1.59-2-1.92-2.42-3.18-.83L247.61,256l-2.76-3.6L243.68,250l2-7.94v-4.76l-2,.84-2-.42-4.34-.42-2.42-3.59-4.35-.84-1.17,4.77-1.17-2.76-.83.83-1.34,1.59-1.67,1h-1.17l-1.25.09-.59,1,.42.67v1.09l-.25.41-1.09.92-1.67,2.76-2.17,1.09h-1.09l-1.25,1.33-.42.59-.75,1.17-.34.75-.75,1-.83.09L209.59,253l-1,.84-.5.66-.34.09-.75.08-.17-.5-.75-2.09.17-1.34.08-1.08v-1.92l.59-2.18v-1.33l-1.09-.25-2.42-.51h-1l-.33-1.25,1.09-.58-.67-.84H200.9c-.42.25-.75.5-1.17.75-.33.09-.5-1.33-.5-1.33l-.75-.51h-1.67l-1.17.51-2.09,1.58-2.09,1.67h-1.34l-.75.34-.5,1-.75,1.34-1.42,1.25-1.34.75-.92.67-.25.42-.25,1.34.17,1.08-.25,1.26.41.41-.83,3.51-.75,2.18.25,2.42-1.34,2.76-1.67,1.92-2.76,1.67-1.08,1.92L174,270.79l1.33,4.59,3,.84,2.43,2.17,1.67,1.09,3.25-1.09,2.76-1.09,3-1.33,4.09,1.92,2.76,1.33,1.09,1.34,1.33,2.42,2.43,1.93h3.76l2.17.83.83,2.17,3.26,1.34.84,1.09V292l-1.67,1.08,2.17,2.18,2.76,2.42,4.09-.84,3.76-1.08h5.68l2.76-.84,2.42-.5h3.51l.25-3.09v-.17l-.25-5.51,1.67-3v-3.84l1.92-3,2.18-.84,2.42-1.33.25-2.18,2.76-1.67,1.33,1.09.84,1.67,2.17,1.09,1.34-1.34h1.09l1.08,1.92,1.67,1.34,1.92.25h3.26l.84-2.76Z"/><path class="cls-5" d="M280.94,300.78l-1.08,1.92-.26,2.17-1.08,1.68-1.67,1.33-.34-.08-.16,1,.33.67.25,1.34,1.17.5,2.51.33.58,1.17.34,1.09.58,1s.92.84,1.17.84,1.25-.17,1.25-.17l1.59-6.35.42-3.18-.42-4L284.28,300l-1.5,1.16Z"/><polygon class="cls-3" points="282.95 295.35 283.45 291.59 283.03 288.42 279.02 288.42 277.01 285.57 276.26 281.98 273.84 277.22 271.25 276.47 267.66 270.62 265.9 271.29 265.99 273.04 265.23 275.8 261.89 275.8 260.05 275.55 258.38 274.13 257.3 272.29 256.21 272.29 254.87 273.63 252.7 272.54 251.87 270.87 250.53 269.78 247.77 271.45 247.52 273.63 245.1 274.96 242.84 275.8 241 278.81 241 282.57 239.33 285.57 239.58 291 239.58 291.17 240.75 291.26 242.84 292.09 243.43 293.76 243.68 295.1 244.01 297.52 246.19 297.52 251.03 298.61 249.69 299.94 249.94 302.95 252.12 307.05 254.29 308.72 257.3 310.31 258.38 311.39 260.81 313.06 262.73 313.06 264.65 311.64 266.24 311.39 267.32 312.81 267.82 311.98 268.41 310.89 268.41 309.47 268.16 307.05 268.41 305.96 271.42 305.46 273.34 305.96 275.01 307.3 276.51 307.8 276.85 307.88 278.52 306.55 279.61 304.88 279.86 302.7 280.94 300.78 282.86 301.12 284.37 299.86 285.29 299.19 282.95 295.35"/><polygon class="cls-3" points="47.67 135.52 49.26 134.26 50.93 133.93 53.27 131.09 51.26 131.92 48.5 131.92 44.49 133.09 43.41 135.35 42.57 137.1 44.91 135.52 47.67 135.52"/><polygon class="cls-3" points="46.08 141.45 50.51 144.62 50.09 142.62 48.5 141.45 46.08 141.45"/><path class="cls-5" d="M288.8,317.83s.41-4.35.91-5.27c.42-1.08.76-2.17,1.09-3.34l.75,3.76-1.5,7.85Z"/><polygon class="cls-3" points="280.77 287.66 281.86 271.96 279.02 267.36 278.35 275.71 278.19 279.06 276.6 281.65 280.77 287.66"/><path id="path9286" d="M302.33,274a18.84,18.84,0,0,0-37.68,0,18.34,18.34,0,0,0,4.83,12.37l14,17.91,12.17-15.62,1.85-2.29A18.29,18.29,0,0,0,302.33,274Zm-18.83,9.84a9.84,9.84,0,1,1,10-9.83,9.82,9.82,0,0,1-10,9.83h0Z"/></svg>