<svg xmlns="http://www.w3.org/2000/svg" viewBox="0 0 318.61 385.96"><defs><style>.cls-1,.cls-3{fill:#7cb5ab;}.cls-1,.cls-2,.cls-3,.cls-4,.cls-5{stroke:#fff;stroke-miterlimit:10;stroke-width:1.5px;}.cls-1,.cls-2{opacity:0.5;isolation:isolate;}.cls-2,.cls-5{fill:none;}.cls-4{fill:#009786;}</style></defs><title>Toowoomba</title><g id="Layer_2" data-name="Layer 2"><g id="Layer_1-2" data-name="Layer 1"><polygon class="cls-1" points="218.35 266.48 217.35 267.38 217.75 267.28 218.35 266.48"/><polygon class="cls-1" points="224.35 260.28 223.75 261.18 224.65 259.78 224.35 260.28"/><polygon class="cls-1" points="295.15 358.68 295.35 357.68 295.05 356.78 294.25 355.98 293.75 355.08 293.75 353.48 294.45 351.88 294.55 350.78 294.65 349.68 294.45 348.68 293.35 347.88 292.25 347.18 291.75 346.68 291.45 347.48 291.25 348.28 289.95 347.88 288.25 347.18 287.75 346.48 286.35 346.68 285.35 347.38 284.35 348.18 283.85 349.28 283.85 350.88 283.65 352.58 283.35 353.58 283.05 354.88 283.75 355.88 284.45 356.38 285.45 355.48 286.45 354.68 287.45 354.48 288.55 354.58 289.55 356.08 289.95 357.68 292.65 359.58 293.35 359.48 294.35 359.18 295.05 359.08 295.45 359.48 295.15 358.68"/><polygon class="cls-1" points="225.05 259.18 224.65 259.78 225.15 259.08 225.05 259.18"/><polygon class="cls-1" points="233.75 249.38 233.55 249.58 234.25 251.38 234.25 250.08 233.75 249.38"/><polygon class="cls-1" points="225.85 258.18 225.15 259.08 226.75 257.58 225.85 258.18"/><polygon class="cls-1" points="234.25 251.38 232.55 253.08 233.85 251.98 234.25 251.38"/><polygon class="cls-1" points="144.35 108.78 143.75 111.48 143.75 113.38 142.05 115.38 145.05 118.28 146.65 120.88 150.55 121.88 151.55 128.38 150.25 130.98 148.25 132.28 148.95 136.48 149.95 138.48 145.65 140.78 144.05 142.38 140.15 145.58 139.45 150.78 137.85 154.38 136.25 155.38 134.95 157.68 136.25 159.88 139.45 161.28 143.35 162.88 145.65 162.88 145.95 161.58 145.95 159.58 147.65 159.58 148.55 161.58 150.25 162.18 151.85 162.18 155.75 161.28 158.05 160.88 159.65 159.88 160.95 158.98 163.25 159.08 162.75 155.28 163.75 151.98 164.65 148.68 164.15 142.88 160.85 138.18 160.85 133.38 159.45 130.98 158.95 128.58 156.05 126.68 151.75 122.88 150.85 119.58 151.35 117.68 150.85 112.38 148.95 108.58 146.35 108.18 144.35 108.78"/><line class="cls-2" x1="188.85" y1="265.28" x2="187.95" y2="264.38"/><polyline class="cls-1" points="187.95 264.38 187.35 263.78 184.45 262.18 180.85 261.78 179.85 259.18 178.85 256.98 175.25 254.98 172.35 252.08 171.75 249.08 170.05 247.18 166.85 245.88 163.55 243.58 164.25 241.28 163.55 237.08"/><polygon class="cls-1" points="159.65 159.88 158.05 160.88 155.75 161.28 151.85 162.18 150.25 162.18 148.55 161.58 147.65 159.58 145.95 159.58 145.95 161.58 145.65 162.88 143.35 162.88 139.45 161.28 136.25 159.88 134.95 157.68 134.55 161.28 135.25 165.48 136.25 169.08 135.95 172.98 135.25 175.28 132.95 177.48 129.05 181.78 126.75 182.68 127.15 186.98 128.45 190.58 130.35 192.18 132.35 191.88 134.95 194.48 138.55 199.68 141.75 205.18 143.75 207.08 145.65 211.08 145.65 216.58 147.65 220.78 149.55 222.38 151.85 226.68 153.85 230.58 155.75 233.18 156.75 236.38 160.65 237.08 163.55 237.08 163.55 234.78 165.85 232.88 164.85 231.58 164.55 229.88 164.55 227.68 164.55 225.98 165.55 225.08 167.45 225.98 169.15 227.28 170.45 228.28 172.35 228.28 173.95 226.68 176.25 227.28 178.55 226.98 179.85 225.68 181.15 224.38 181.15 222.78 180.45 221.08 180.85 218.88 181.45 216.58 181.45 214.58 181.45 212.38 181.75 210.08 182.75 208.08 184.45 207.08 186.05 207.08 187.95 206.18 188.65 204.58 188.95 202.28 189.25 199.98 188.65 197.68 187.65 196.08 189.95 194.78 190.55 196.38 192.85 195.38 192.85 192.78 192.85 191.48 195.15 190.08 193.25 184.38 190.45 182.48 185.15 181.58 177.05 177.28 172.75 174.38 170.35 170.08 169.95 167.28 168.95 164.38 165.65 162.98 163.25 159.08 160.95 158.98 159.65 159.88"/><polygon class="cls-1" points="316.25 353.18 316.25 353.18 314.85 353.58 313.35 354.48 311.95 355.28 311.05 356.08 309.95 357.28 309.75 358.78 309.05 361.38 309.95 362.38 310.45 363.48 310.65 365.08 310.95 365.98 310.95 365.98 316.25 364.08 317.15 360.28 317.15 355.48 316.25 353.18"/><path class="cls-1" d="M310.45,363.48l-.5-1.1-.9-1,.6-2.6.3-1.5,1.1-1.2.9-.8,1.3-.8,1.5-.9,1.4-.4h0l-.6-1.5-3.3-7.6-2.9-3.8s-1.3.2-1.5.2a8.47,8.47,0,0,1-1.4-1l-.7-1.2-.5-1.3-.7-1.4-3-.4-1.3-.6L300,333l-.5-.8.2-1.2-1.9-.5-2-1.6-2.3-.6-3.6.6-.3,1.3.3,2.9v1.6l-.8,1.3.7,1.2.5,1.7.5,2.1.5,1.3-.3,1.1-.3,1.8,1,1.2-.1.3.5.5,1.1.7,1.2.8.2,1-.1,1.1-.1,1.1-.7,1.6v1.6l.5.9.8.8.3.9-.2,1,.4.8.6,1.8.8,1.7.4,1.3,1,1.1.7.6.5.5.8.6.4.5v.2l7.5-.4L311,366l-.4-.9Z"/><polyline class="cls-1" points="291.75 346.68 291.85 346.38 290.95 345.18 291.15 343.38 291.55 342.28 290.95 341.08 290.55 338.98 290.05 337.28 289.45 336.08 288.85 336.98 287.55 335.38 285.65 335.68 283.35 337.38 281.05 337.38 278.15 335.38 276.85 334.08 273.25 332.08 270.65 330.18 268.05 325.28 267.75 321.68 269.35 320.08 263.45 318.78 260.95 318.78 260.55 315.88 260.25 314.28 259.55 312.28 256.95 311.28 255.65 311.18 255.35 314.88 253.05 314.88 251.15 314.88 248.15 315.48 244.95 316.48 242.05 316.48 238.15 316.48 233.55 317.78 228.65 318.78 225.45 315.88 222.85 313.28 224.75 311.98 224.75 309.98 223.75 308.68 219.85 307.08 218.95 304.48 216.25 303.48 211.75 303.48 208.85 301.18 207.15 298.28 205.85 296.68 203.95 296.98 200.65 298.58 198.75 299.88 196.45 302.18 193.55 303.78 191.85 306.08 190.95 308.08 187.95 310.98 188.35 313.28 188.95 315.18 190.55 316.48 193.55 318.08 193.55 320.08 192.55 321.68 191.55 323.98 190.55 328.58 187.95 329.88 187.65 338.68 185.75 338.68 183.75 340.88 185.75 342.88 184.05 345.48 183.75 348.78 184.05 351.38 186.35 351.68 186.35 353.28 186.35 356.18 186.05 359.78 183.45 359.78 182.75 362.08 182.15 363.68 181.75 368.58 181.15 372.48 180.45 377.98 181.15 379.38 181.15 381.68 223.25 381.68 226.65 380.28 230.95 376.48 234.25 373.08 238.55 374.98 244.25 373.08 251.85 371.18 257.55 372.58 265.25 376.48 271.85 379.28 271.85 382.18 275.25 384.98 279.55 381.18 286.15 378.38 287.15 373.08 289.55 370.78 292.85 366.88 298.15 367.88 300.65 367.78 300.65 367.58 300.25 367.08 299.45 366.48 298.95 365.98 298.25 365.38 297.25 364.28 296.95 362.98 296.15 361.28 295.45 359.48 295.45 359.48 295.05 359.08 294.35 359.18 293.35 359.48 292.65 359.58 289.95 357.68 289.55 356.08 288.55 354.58 287.45 354.48 286.45 354.68 285.45 355.48 284.45 356.38 283.75 355.88 283.05 354.88 283.35 353.58 283.65 352.58 283.85 350.88 283.85 349.28 284.35 348.18 285.35 347.38 286.35 346.68 287.75 346.48 288.25 347.18 289.95 347.88 291.25 348.28 291.45 347.48 291.75 346.68"/><path class="cls-1" d="M238.05,241.58l-2.9-2.4-1.4-4.3-1-1.9-1-4.8-2.4-3.3.5-2.9-1.9-3.8-2.8-1.4-6.2-5.2-.5-4.3,1.4-2.9-.5-4.3h-3.8l-5.7-4.7-5.2-2.4-7.7-1-1.9-1.9-2.3,1.4v3.9l-2.3,1-.7-1.6-2.3,1.3,1,1.6.7,2.3-.3,2.3-.3,2.3-.7,1.6-2,1h-1.6l-1.6,1-1,2-.3,2.2v4.2l-.7,2.3-.3,2.3.6,1.6v1.6l-1.3,1.3-1.3,1.3-2.3.3-2.3-.6-1.6,1.6h-2l-1.3-1-1.6-1.3-2-1-1,1v3.9l.3,1.6,1,1.3-2.3,2v2.3l.6,4.2-.6,2.3,3.3,2.3,3.3,1.3,1.6,2,.6,2.9L175,255l3.6,2,1,2.3,1,2.6,3.6.3,2.9,1.6.7.6.8.8.3-1.5-.2-1.3.3-1.6.3-.5,1.1-.8,1.6-.9,1.6-1.5.9-1.6.6-1.2.9-.4h1.6l2.5-2,2.5-1.9,1.4-.6h2l.9.6s.1,1.8.6,1.6a4.19,4.19,0,0,0,1.4-.9h1.9l.8,1-1.3.7.4,1.5h1.1l2.9.6,1.3.3v1.6l-.7,2.6v2.3l-.1,1.3-.2,1.6.9,2.5.2.6.9-.1,1-.9,1.2-1,1.9-2.1,1-.1.9-1.2.4-.9.6-.9.3-.5.4-.6.1-.1.6-.9.9-.6h1.3l2.6-1.3,2-3.3,1.6-1.8-.6-1.8.2-.3.7-1.2,1.5-.1h1.3l2-1.2,1.6-1.9,1-1Z"/><path class="cls-1" d="M287.15,287.38l-1.9-6.2-6.7-.5-1.9-2.4-2.4-2.9-3.8-1-5.2-5.2-3.3-4.3-1.4-2.9,2.4-9.5v-5.7l-2.4,1-2.4-.5-5.2-.5-2.8-4.3-5.2-1-1.4,5.7-1.4-3.3-1,1-1.6,1.9-2,1.2h-1.3l-1.5.1-.7,1.2.5.8v1.3l-.3.5L233,253l-2,3.3-2.6,1.3h-1.3l-1.6,1.5-.5.7-.9,1.4-.4.9-.9,1.2-1,.1-1.9,2.1-1.2,1-.6.8-.4.1-.9.1-.2-.6-.9-2.5.2-1.6.1-1.3v-2.3l.7-2.6V255l-1.3-.3-3-.7h-1.2l-.4-1.5,1.3-.7-.8-1h-1.8c-.5.3-.9.6-1.4.9-.4.1-.6-1.6-.6-1.6l-.9-.6h-2l-1.4.6-2.5,1.9-2.5,2h-1.6l-.9.4-.6,1.2-.9,1.6-1.6,1.5-1.6.9-1.1.8-.3.5-.3,1.6.2,1.3-.3,1.5.5.5-1,4.2-1,2.6.3,2.9-1.5,3.3-2,2.3-3.3,2-1.3,2.3-2.6,1.3,1.6,5.5,3.6,1,2.9,2.6,2,1.3,3.9-1.3,3.3-1.4,3.6-1.6,4.9,2.3,3.3,1.6,1.3,1.6,1.6,2.9,2.9,2.3h4.6l2.6,1,1,2.6,3.9,1.6,1,1.3v2l-2,1.3,2.6,2.6,3.3,2.9,4.9-1,4.5-1.3h6.8l3.3-1,2.9-.6h4.2l.3-3.7V311l-.3-6.5,2-3.6v-4.6l2.3-3.6,2.6-1,2.9-1.6.3-2.6,3.3-2,1.6,1.3,1,2,2.6,1.3,1.6-1.6h1.3l1.3,2.3,2,1.6,2.3.3h3.9l1-3.3Z"/><path class="cls-1" d="M305.15,322.68l-1.3,2.3-.3,2.6-1.3,2-2,1.6-.4-.1-.1,1.2.5.8.3,1.6,1.4.6,3,.4.7,1.4.5,1.3.7,1.2a7.34,7.34,0,0,0,1.3,1c.2,0,1.5-.2,1.5-.2l1.9-7.6.5-3.8-.5-4.8-2.2-2.4-1.8,1.4Z"/><polygon class="cls-1" points="307.55 316.18 308.15 311.58 307.65 307.78 302.85 307.78 300.45 304.48 299.55 300.18 296.65 294.48 293.55 293.58 289.25 286.58 287.15 287.28 287.25 289.48 286.25 292.78 282.35 292.78 280.05 292.38 278.15 290.78 276.85 288.48 275.55 288.48 273.95 290.18 271.35 288.88 270.35 286.88 268.75 285.58 265.45 287.48 265.15 290.18 262.25 291.78 259.55 292.78 257.35 296.28 257.35 300.88 255.35 304.48 255.65 310.98 255.65 311.18 256.95 311.28 259.55 312.28 260.25 314.28 260.55 315.88 260.95 318.78 263.45 318.78 269.35 320.08 267.75 321.68 268.05 325.28 270.65 330.18 273.25 332.08 276.85 334.08 278.15 335.38 281.05 337.38 283.35 337.38 285.65 335.68 287.55 335.38 288.85 336.98 289.45 336.08 290.15 334.78 290.15 333.08 289.85 330.18 290.15 328.88 293.75 328.28 296.05 328.88 297.95 330.48 299.85 330.98 300.25 331.18 302.25 329.48 303.55 327.58 303.85 324.98 305.15 322.68 307.45 322.98 309.25 321.58 310.35 320.78 307.55 316.18"/><polygon class="cls-3" points="25.95 124.78 27.85 123.38 29.75 122.88 32.65 119.58 30.25 120.58 26.95 120.58 22.15 121.98 20.85 124.58 19.75 126.68 22.65 124.78 25.95 124.78"/><polygon class="cls-3" points="24.05 131.98 29.35 135.78 28.85 133.38 26.95 131.98 24.05 131.98"/><path class="cls-1" d="M314.55,343.08s.5-5.2,1.1-6.3c.5-1.3.9-2.6,1.3-4l.9,4.5-1.8,9.4Z"/><polygon class="cls-3" points="218.25 266.28 217.25 267.18 217.65 267.08 218.25 266.28"/><polygon class="cls-3" points="224.25 260.08 223.65 260.98 224.55 259.58 224.25 260.08"/><polygon class="cls-4" points="294.95 358.48 295.15 357.48 294.85 356.58 294.05 355.78 293.65 354.88 293.65 353.28 294.35 351.68 294.45 350.58 294.55 349.48 294.35 348.48 293.15 347.68 292.05 346.98 291.65 346.48 291.25 347.28 291.15 348.08 289.85 347.68 288.15 346.98 287.55 346.28 286.15 346.48 285.15 347.18 284.15 347.98 283.75 349.18 283.75 350.68 283.45 352.38 283.15 353.38 282.95 354.68 283.55 355.68 284.25 356.28 285.35 355.38 286.25 354.58 287.25 354.38 288.45 354.48 289.45 355.88 289.85 357.48 292.45 359.38 293.15 359.28 294.15 359.08 294.85 358.98 295.35 359.28 294.95 358.48"/><polygon class="cls-3" points="224.95 259.08 224.55 259.58 225.05 258.98 224.95 259.08"/><polygon class="cls-3" points="233.55 249.18 233.45 249.38 234.05 251.18 234.05 249.88 233.55 249.18"/><polygon class="cls-3" points="225.65 258.08 225.05 258.98 226.55 257.38 225.65 258.08"/><polygon class="cls-3" points="234.05 251.18 232.45 252.88 233.75 251.78 234.05 251.18"/><polygon class="cls-3" points="144.25 108.68 143.55 111.28 143.55 113.18 141.95 115.18 144.85 118.08 146.45 120.68 150.45 121.68 151.35 128.18 150.05 130.78 148.15 132.08 148.75 136.28 149.75 138.28 145.55 140.58 143.85 142.18 139.95 145.38 139.35 150.68 137.65 154.18 136.05 155.18 134.75 157.48 136.05 159.78 139.35 161.08 143.25 162.68 145.55 162.68 145.85 161.38 145.85 159.38 147.45 159.38 148.45 161.38 150.05 162.08 151.65 162.08 155.65 161.08 157.85 160.68 159.55 159.78 160.85 158.78 163.05 158.98 162.65 155.08 163.55 151.78 164.55 148.48 164.05 142.78 160.65 137.98 160.65 133.18 159.25 130.88 158.75 128.48 155.95 126.58 151.65 122.78 150.65 119.38 151.15 117.48 150.65 112.28 148.85 108.48 146.15 107.98 144.25 108.68"/><line class="cls-5" x1="188.65" y1="265.08" x2="187.85" y2="264.28"/><polyline class="cls-3" points="187.55 264.98 186.95 264.38 183.95 262.68 180.45 262.38 179.45 259.78 178.45 257.48 174.85 255.58 171.95 252.58 171.25 249.68 169.65 247.78 166.45 246.48 163.15 244.18 163.85 241.88 163.15 237.68 160.25 237.68 156.35 236.98 155.35 233.78 153.35 231.08 151.45 227.28 149.15 222.98 147.25 221.38 145.25 217.18 145.25 211.58 143.25 207.68 141.35 205.78 138.05 200.18 134.55 194.98 131.95 192.38 129.95 192.78 127.95 191.08 126.65 187.48 126.35 183.28 128.65 182.28 132.55 178.08 134.85 175.78 135.45 173.48 135.85 169.58 134.85 166.08 134.15 161.78 134.55 158.18 135.85 155.98 137.45 154.98 139.05 151.38 139.75 146.18 143.65 142.88 145.25 141.28 149.45 138.98 148.55 137.08 147.85 132.88 149.85 131.58 151.15 128.88 150.15 122.38 146.25 121.48 144.65 118.88 141.65 115.88 143.25 113.98 143.25 111.98 143.95 109.38 145.95 108.78 148.55 109.18 148.55 109.08 148.15 106.78 148.05 103.48 144.75 98.68 145.15 92.98 146.65 90.08 144.75 88.18 139.95 84.88 137.05 82.98 133.75 79.18 130.85 75.38 128.95 75.78 127.55 77.28 122.75 80.58 119.95 81.08 116.15 79.68 114.25 77.78 113.25 75.78 112.35 71.98 111.35 68.68 109.95 65.38 110.35 60.08 107.55 55.78 108.05 52.48 106.55 49.18 103.75 48.18 104.65 43.88 104.65 40.58 103.25 37.68 99.95 36.28 99.95 33.88 100.35 28.68 101.35 24.38 98.05 25.28 95.65 19.58 95.65 16.78 95.65 13.38 94.65 10.58 94.15 6.68 90.85 6.68 88.95 6.28 88.45 1.98 87.05 3.88 82.75 5.28 83.25 7.68 83.25 10.58 82.75 12.88 82.25 15.78 81.35 18.68 77.95 24.88 79.45 26.78 78.45 29.58 77.55 31.48 76.55 27.18 75.15 29.58 73.65 33.38 73.25 35.28 75.15 37.68 78.95 40.58 71.75 45.28 70.85 48.68 75.15 51.48 70.85 56.28 67.55 66.28 71.35 70.08 71.35 76.28 69.45 78.18 69.85 81.08 70.35 85.38 71.75 88.18 73.25 90.58 70.85 92.98 67.55 109.68 66.05 114.38 63.65 122.58 60.35 127.78 57.45 130.58 55.55 138.28 54.65 140.58 52.75 141.58 49.35 142.98 44.15 144.88 41.25 144.88 36.55 144.88 34.15 144.88 30.85 143.48 27.95 141.58 25.05 140.58 21.25 139.18 18.85 136.78 15.55 132.08 13.15 129.68 10.75 129.18 0.75 127.28 0.75 318.38 57.95 318.88 57.95 382.28 180.75 382.28 180.75 379.88 180.05 378.58 180.75 373.08 181.35 369.18 181.75 364.28 182.35 362.68 183.05 360.38 185.65 360.38 185.95 356.78 185.95 353.88 185.95 352.28 183.65 351.88 183.35 349.28 183.65 346.08 185.25 343.48 183.35 341.48 185.25 339.18 187.25 339.18 187.55 330.38 190.15 329.08 191.15 324.58 192.15 322.28 193.05 320.68 193.05 318.68 190.15 317.08 188.55 315.78 187.85 313.78 187.55 311.58 190.45 308.58 191.45 306.68 193.05 304.38 196.05 302.78 198.35 300.48 200.25 299.18 203.55 297.58 205.45 297.18 202.25 295.58 197.35 293.28 193.75 294.98 190.45 296.28 186.55 297.58 184.65 296.28 181.75 293.58 178.15 292.68 176.55 287.08 179.15 285.78 180.45 283.58 183.65 281.58 185.65 279.28 187.25 276.08 186.95 273.08 187.85 270.48 188.85 266.28 188.45 265.88"/><polygon class="cls-3" points="159.55 159.78 157.85 160.68 155.65 161.08 151.65 162.08 150.05 162.08 148.45 161.38 147.45 159.38 145.85 159.38 145.85 161.38 145.55 162.68 143.25 162.68 139.35 161.08 136.05 159.78 134.75 157.48 134.45 161.08 135.05 165.28 136.05 168.88 135.75 172.78 135.05 175.08 132.85 177.38 128.95 181.58 126.65 182.58 126.95 186.78 128.25 190.38 130.25 191.98 132.15 191.68 134.75 194.28 138.35 199.48 141.65 204.98 143.55 206.98 145.55 210.88 145.55 216.38 147.45 220.58 149.45 222.28 151.65 226.48 153.65 230.38 155.65 232.98 156.55 236.28 160.45 236.88 163.45 236.88 163.45 234.58 165.65 232.68 164.75 231.38 164.45 229.78 164.45 227.48 164.45 225.88 165.35 224.88 167.35 225.88 168.95 227.08 170.25 228.08 172.25 228.08 173.85 226.48 176.15 227.08 178.35 226.78 179.65 225.48 181.05 224.18 181.05 222.58 180.35 220.98 180.65 218.68 181.35 216.38 181.35 214.48 181.35 212.18 181.65 209.88 182.65 207.88 184.25 206.98 185.85 206.98 187.85 205.98 188.45 204.38 188.85 202.08 189.15 199.78 188.45 197.48 187.55 195.88 189.75 194.58 190.45 196.18 192.75 195.28 192.75 192.58 192.75 191.38 195.05 189.88 193.15 184.18 190.25 182.28 185.05 181.38 176.95 177.08 172.65 174.18 170.25 169.88 169.75 167.08 168.75 164.18 165.45 162.78 163.05 158.98 160.85 158.78 159.55 159.78"/><polygon class="cls-3" points="316.15 352.98 316.15 352.98 314.65 353.38 313.15 354.28 311.85 355.08 310.95 355.88 309.85 357.08 309.55 358.58 308.95 361.18 309.85 362.18 310.25 363.28 310.45 364.88 310.85 365.78 310.85 365.78 316.05 363.88 317.05 360.08 317.05 355.28 316.15 352.98"/><path class="cls-3" d="M310.25,363.28l-.5-1.1-.9-1,.6-2.6.3-1.5,1.1-1.2.9-.8,1.4-.8,1.5-.9,1.4-.4h0l-.6-1.5-3.3-7.6-2.9-3.8s-1.3.2-1.5.2a7.34,7.34,0,0,1-1.3-1l-.7-1.2-.5-1.3-.7-1.4-3-.4-1.4-.6-.3-1.6-.5-.8.2-1.2-1.9-.5-2-1.6-2.3-.6-3.6.6-.3,1.3.3,2.9v1.6l-.8,1.3.7,1.2.5,1.7.5,2.1.5,1.3-.4,1.1-.3,1.8,1,1.2-.1.3.5.5,1.1.7,1.2.8.2,1-.1,1.1-.1,1.1-.7,1.6v1.6l.5.9.8.8.3.9-.2,1,.4.8.6,1.8.8,1.7.4,1.3,1,1.1.7.6.5.5.8.6.4.5v.2l7.5-.4,2.8-1.4-.4-.9Z"/><polyline class="cls-3" points="291.65 346.48 291.75 346.18 290.75 344.98 291.05 343.18 291.35 342.08 290.85 340.88 290.35 338.78 289.95 337.08 289.25 335.88 288.75 336.88 287.45 335.18 285.45 335.48 283.25 337.18 280.95 337.18 277.95 335.18 276.75 333.88 273.15 331.98 270.55 329.98 267.95 325.08 267.55 321.48 269.25 319.88 263.35 318.58 260.75 318.58 260.45 315.68 260.05 314.08 259.45 312.08 256.85 311.08 255.55 310.98 255.25 314.68 252.95 314.68 250.95 314.68 248.05 315.38 244.75 316.38 241.85 316.38 237.95 316.38 233.45 317.58 228.55 318.58 225.25 315.68 222.65 313.08 224.65 311.78 224.65 309.78 223.65 308.48 219.75 306.88 218.75 304.28 216.15 303.28 211.55 303.28 208.65 300.98 207.05 298.08 205.75 296.48 203.75 296.78 200.55 298.38 198.55 299.78 196.25 301.98 193.35 303.58 191.75 305.88 190.75 307.88 187.85 310.78 188.15 313.08 188.85 314.98 190.45 316.38 193.35 317.98 193.35 319.88 192.35 321.48 191.45 323.78 190.45 328.38 187.85 329.68 187.55 338.48 185.55 338.48 183.55 340.78 185.55 342.68 183.95 345.28 183.55 348.58 183.95 351.18 186.25 351.48 186.25 353.08 186.25 355.98 185.85 359.58 183.25 359.58 182.65 361.88 181.95 363.48 181.65 368.38 181.05 372.28 180.35 377.88 181.05 379.18 181.05 381.48 223.15 381.48 226.45 380.08 230.75 376.28 234.05 372.98 238.35 374.88 244.05 372.98 251.75 370.98 257.45 372.48 265.05 376.28 271.75 379.08 271.75 381.98 275.05 384.88 279.35 380.98 286.05 378.18 286.95 372.98 289.35 370.58 292.75 366.78 297.95 367.68 300.45 367.58 300.45 367.38 300.15 366.98 299.25 366.28 298.85 365.78 298.15 365.18 297.15 364.08 296.75 362.78 295.95 361.08 295.35 359.28 295.35 359.28 294.85 358.98 294.15 359.08 293.15 359.28 292.45 359.38 289.85 357.48 289.45 355.88 288.45 354.48 287.25 354.38 286.25 354.58 285.35 355.38 284.25 356.28 283.55 355.68 282.95 354.68 283.15 353.38 283.45 352.38 283.75 350.68 283.75 349.18 284.15 347.98 285.15 347.18 286.15 346.48 287.55 346.28 288.15 346.98 289.85 347.68 291.15 348.08 291.25 347.28 291.65 346.48"/><path class="cls-3" d="M238,241.38l-2.9-2.4-1.4-4.3-1-1.9-1-4.8-2.4-3.3.5-2.9-1.9-3.8-2.9-1.4-6.2-5.2-.5-4.3,1.4-2.9-.5-4.3h-3.8l-5.7-4.8-5.2-2.4-7.6-1-1.9-1.9-2.3,1.4v3.9l-2.3,1-.7-1.6-2.3,1.3,1,1.6.7,2.3-.3,2.3-.3,2.3-.7,1.6-2,1h-1.6l-1.6,1-1,2-.3,2.3v4.2l-.7,2.3-.3,2.3.7,1.6v1.6l-1.3,1.3-1.3,1.3-2.3.3-2.3-.6-1.5,1.6h-2l-1.3-1-1.6-1.3-2-1-1,1v3.9l.3,1.6,1,1.3-2.3,2v2.3l.6,4.2-.6,2.3,3.3,2.3L170,247l1.6,2,.6,3,3,2.9,3.6,2,1,2.3,1,2.6,3.6.3,2.9,1.6.7.6.8.8.3-1.5-.2-1.3.3-1.6.3-.5,1.1-.8,1.6-.9,1.6-1.5.9-1.6.6-1.2.9-.4h1.6l2.5-2,2.5-1.9,1.4-.6h2l.9.6s.2,1.8.6,1.6a4.19,4.19,0,0,0,1.4-.9H211l.8,1-1.3.7.4,1.5h1.2l2.9.6,1.3.3v1.6l-.7,2.6v2.3l-.1,1.3-.2,1.6.9,2.5.2.6.9-.1,1-.9,1.2-1,1.9-2.1,1-.1.9-1.2.4-.9.6-.9.3-.5.4-.6.1-.1.6-.9.9-.6h1.3l2.6-1.3,2-3.3,1.6-1.6-.6-1.8.2-.3.7-1.2,1.5-.1h1.3l2-1.2,1.6-1.9,1-1Z"/><path class="cls-3" d="M287.05,287.18l-1.9-6.2-6.7-.5-1.9-2.4-2.3-2.9-3.8-1-5.3-5.3-3.3-4.3-1.4-2.9,2.4-9.5v-5.7l-2.4,1-2.4-.5-5.2-.5-2.9-4.3-5.2-1-1.4,5.7-1.4-3.3-1,1-1.6,1.9-2,1.2H236l-1.5.1-.7,1.2.5.8v1.3l-.3.5-1.3,1.1-2,3.3-2.6,1.3h-1.3l-1.5,1.6-.5.7-.9,1.4-.4.9-.9,1.2-1,.1-1.9,2.1-1.2,1-.6.8-.4.1-.9.1-.2-.6-.9-2.5.2-1.6.1-1.3V259l.7-2.6v-1.6l-1.3-.3-2.9-.6h-1.2l-.4-1.5,1.3-.7-.8-1h-1.9c-.5.3-.9.6-1.4.9-.4.1-.6-1.6-.6-1.6l-.9-.6h-2l-1.4.6-2.5,1.9-2.5,2h-1.5l-.9.4-.6,1.2-.9,1.6-1.7,1.5-1.6.9-1.1.8-.3.5-.3,1.6.2,1.3-.3,1.5.5.5-1,4.2-.9,2.6.3,2.9-1.6,3.3-2,2.3-3.3,2-1.3,2.3-2.5,1.3,1.6,5.5,3.6,1,2.9,2.6,2,1.3,3.9-1.3,3.3-1.3,3.6-1.6,4.9,2.3,3.3,1.6,1.3,1.6,1.6,2.9,2.9,2.3h4.5l2.6,1,1,2.6,3.9,1.6,1,1.3v2l-2,1.3,2.6,2.6,3.3,2.9,4.9-1,4.5-1.3h6.8l3.3-1,2.9-.6h4.2l.3-3.7V311l-.3-6.6,2-3.6v-4.6l2.3-3.6,2.6-1,2.9-1.6.3-2.6,3.3-2,1.6,1.3,1,2,2.6,1.3,1.6-1.6h1.3l1.3,2.3,2,1.6,2.3.3h3.9l1-3.3Z"/><path class="cls-3" d="M305.05,322.48l-1.3,2.3-.3,2.6-1.3,2-2,1.6-.4-.1-.2,1.2.5.8.3,1.6,1.3.6,3,.4.7,1.4.5,1.3.7,1.2s1.1,1,1.4,1,1.5-.2,1.5-.2l1.9-7.6.5-3.8-.5-4.8-2.2-2.5-1.8,1.4Z"/><polygon class="cls-3" points="307.45 315.98 307.95 311.48 307.45 307.68 302.75 307.68 300.35 304.28 299.35 299.98 296.55 294.28 293.45 293.38 289.05 286.38 286.95 287.18 287.15 289.28 286.15 292.58 282.25 292.58 279.95 292.28 277.95 290.58 276.75 288.38 275.45 288.38 273.75 289.98 271.15 288.68 270.15 286.68 268.55 285.38 265.25 287.38 264.95 289.98 262.05 291.58 259.45 292.58 257.15 296.18 257.15 300.68 255.25 304.28 255.55 310.78 255.55 310.98 256.85 311.08 259.45 312.08 260.05 314.08 260.45 315.68 260.75 318.58 263.35 318.58 269.25 319.88 267.55 321.48 267.95 325.08 270.55 329.98 273.15 331.98 276.75 333.88 277.95 335.18 280.95 337.18 283.25 337.18 285.45 335.48 287.45 335.18 288.75 336.88 289.25 335.88 290.05 334.58 290.05 332.88 289.75 329.98 290.05 328.68 293.65 328.08 295.95 328.68 297.85 330.28 299.75 330.88 300.15 330.98 302.05 329.38 303.35 327.38 303.75 324.78 305.05 322.48 307.25 322.88 309.15 321.38 310.25 320.58 307.45 315.98"/><polygon class="cls-3" points="25.85 124.68 27.75 123.18 29.65 122.78 32.55 119.38 30.15 120.38 26.75 120.38 22.05 121.78 20.65 124.48 19.65 126.58 22.45 124.68 25.85 124.68"/><polygon class="cls-3" points="23.95 131.78 29.15 135.58 28.65 133.18 26.75 131.78 23.95 131.78"/><path class="cls-4" d="M314.45,342.88s.5-5.2,1.1-6.3c.5-1.3.9-2.6,1.3-4l.9,4.5-1.8,9.4Z"/><polygon class="cls-3" points="150.65 132.38 153.15 136.58 160.85 138.18 160.85 133.38 159.45 130.98 158.95 128.58 151.05 121.98 150.15 122.38 151.05 128.58 150.25 130.98 150.65 132.38"/><polygon class="cls-3" points="170.25 169.88 168.55 172.98 169.35 176.68 169.35 180.18 172.45 180.98 176.45 179.38 176.95 177.08 172.65 174.18 170.25 169.88"/><polygon class="cls-3" points="222.65 215.08 221.85 218.38 222.65 221.48 222.25 225.08 224.25 227.58 228.15 228.68 230.85 226.98 229.25 224.68 229.75 221.88 227.75 217.98 222.65 215.08"/><polygon class="cls-3" points="305.75 338.18 304.75 343.78 305.85 348.78 307.85 347.78 309.05 352.08 313.15 354.28 316.15 352.98 312.95 343.88 309.35 340.08 305.75 338.18"/><path class="cls-3" d="M268,325.08l-2.1,4.4s1.4,6.3,2.1,6.3,2.7,7,2.7,7l-2.4,3.9,2.4,3.8,2.7,2.4-2,2.9,5.6,4.6,3.4-.9,4.3.2,2.7-5.2-1.5.3-1.5.6-1.3.4.7-3.1.1-2.8.2-1.8,2.4-1.3,1.4-.3.5.7,3,1.1-.3-2,.3-1.3-.4-2.2.7-1.5-1.4-3.1-.5-1.6-1.4-.9-1-.8-3.3,1.5-1.7.9-1.3-.1-1.8-1.6-1.7-1.1-1.7-1.1-1.9-.8-1.9-1.4-1.6-1.8Z"/><polygon class="cls-3" points="304.85 306.78 306.15 287.98 302.65 282.48 301.95 292.48 301.75 296.48 299.75 299.58 304.85 306.78"/></g></g></svg>