<svg xmlns="http://www.w3.org/2000/svg" viewBox="0 0 41.32 47.72"><defs><style>.cls-1{fill:#e1f0ef;}.cls-2{fill:#009887;}.cls-3,.cls-4{fill:#fff;}.cls-3{opacity:0.7;isolation:isolate;}</style></defs><title>Arts, Culture and Recreation</title><g id="Layer_2" data-name="Layer 2"><g id="svg8"><polygon class="cls-1" points="20.66 47.72 0 35.79 0 11.93 20.66 0 41.32 11.93 41.32 35.79 20.66 47.72"/><g id="layer6"><g id="g8811"><g id="_Group_" data-name=" Group "><circle id="circle8173" class="cls-2" cx="20.65" cy="23.87" r="14.5"/><circle id="circle8175" class="cls-2" cx="20.65" cy="23.87" r="13.33"/></g><polygon id="polygon8178" class="cls-3" points="29.12 18.22 29.12 18.89 12 18.89 12 18.22 29.12 18.22"/><rect id="rect8180" class="cls-3" x="17.87" y="19.2" width="1.2" height="8"/><rect id="rect8182" class="cls-3" x="22.05" y="19.2" width="1.2" height="8"/><rect id="rect8184" class="cls-3" x="26.22" y="19.2" width="1.2" height="8"/><polygon id="polygon8186" class="cls-3" points="19.63 19.2 19.4 20.22 17.55 20.22 17.31 19.2 19.63 19.2"/><polygon id="polygon8188" class="cls-3" points="19.6 27.19 19.38 26.17 17.57 26.17 17.34 27.19 19.6 27.19"/><rect id="rect8190" class="cls-3" x="13.7" y="19.2" width="1.2" height="8"/><polygon id="polygon8192" class="cls-3" points="15.46 19.2 15.23 20.22 13.37 20.22 13.14 19.2 15.46 19.2"/><polygon id="polygon8194" class="cls-3" points="15.43 27.19 15.2 26.17 13.39 26.17 13.17 27.19 15.43 27.19"/><polygon id="polygon8196" class="cls-3" points="23.81 19.2 23.58 20.22 21.72 20.22 21.49 19.2 23.81 19.2"/><polygon id="polygon8198" class="cls-3" points="23.78 27.19 23.55 26.17 21.74 26.17 21.52 27.19 23.78 27.19"/><polygon id="polygon8200" class="cls-3" points="27.98 19.2 27.75 20.22 25.89 20.22 25.66 19.2 27.98 19.2"/><polygon id="polygon8202" class="cls-3" points="27.95 27.19 27.73 26.17 25.92 26.17 25.69 27.19 27.95 27.19"/><polygon id="polygon8204" class="cls-3" points="12 18.3 20.56 15.16 29.13 18.3 12 18.3"/><polygon id="polygon8206" class="cls-3" points="10.73 28.39 30.39 28.39 30.39 28.4 30.39 28.9 10.73 28.9 10.73 28.4 10.73 28.39"/><polygon id="polygon8208" class="cls-3" points="12.12 27.49 12.13 27.49 28.99 27.49 28.99 27.99 12.13 27.99 12.12 27.99 12.12 27.49"/><polygon id="polygon8210" class="cls-3" points="31.6 29.29 31.6 29.79 9.53 29.79 9.52 29.79 9.52 29.29 9.53 29.29 31.59 29.29 31.6 29.29"/></g><g id="g9638"><polygon id="polygon9604" class="cls-4" points="29.12 18.22 29.12 18.89 12 18.89 12 18.22 29.12 18.22"/><rect id="rect9606" class="cls-4" x="17.87" y="19.2" width="1.2" height="8"/><rect id="rect9608" class="cls-4" x="22.05" y="19.2" width="1.2" height="8"/><rect id="rect9610" class="cls-4" x="26.22" y="19.2" width="1.2" height="8"/><polygon id="polygon9612" class="cls-4" points="19.63 19.2 19.4 20.22 17.55 20.22 17.31 19.2 19.63 19.2"/><polygon id="polygon9614" class="cls-4" points="19.6 27.19 19.38 26.17 17.57 26.17 17.34 27.19 19.6 27.19"/><rect id="rect9616" class="cls-4" x="13.7" y="19.2" width="1.2" height="8"/><polygon id="polygon9618" class="cls-4" points="15.46 19.2 15.23 20.22 13.37 20.22 13.14 19.2 15.46 19.2"/><polygon id="polygon9620" class="cls-4" points="15.43 27.19 15.2 26.17 13.39 26.17 13.17 27.19 15.43 27.19"/><polygon id="polygon9622" class="cls-4" points="23.81 19.2 23.58 20.22 21.72 20.22 21.49 19.2 23.81 19.2"/><polygon id="polygon9624" class="cls-4" points="23.78 27.19 23.55 26.17 21.74 26.17 21.52 27.19 23.78 27.19"/><polygon id="polygon9626" class="cls-4" points="27.98 19.2 27.75 20.22 25.89 20.22 25.66 19.2 27.98 19.2"/><polygon id="polygon9628" class="cls-4" points="27.95 27.19 27.73 26.17 25.92 26.17 25.69 27.19 27.95 27.19"/><polygon id="polygon9630" class="cls-4" points="29.13 18.3 12 18.3 20.56 15.16 29.13 18.3"/><polygon id="polygon9632" class="cls-4" points="30.39 28.4 30.39 28.9 10.73 28.9 10.73 28.4 10.73 28.39 30.39 28.39 30.39 28.4"/><polygon id="polygon9634" class="cls-4" points="28.99 27.49 28.99 27.99 12.13 27.99 12.12 27.99 12.12 27.49 12.13 27.49 28.99 27.49"/><polygon id="polygon9636" class="cls-4" points="31.6 29.29 31.6 29.79 9.53 29.79 9.52 29.79 9.52 29.29 9.53 29.29 31.59 29.29 31.6 29.29"/></g></g></g></g></svg>