<svg xmlns="http://www.w3.org/2000/svg" viewBox="0 0 41.32 47.72"><defs><style>.cls-1{fill:#e1f0ef;}.cls-2{fill:#009887;}.cls-3,.cls-4{fill:#fff;}.cls-3{opacity:0.7;isolation:isolate;}</style></defs><title>Cross Government</title><g id="Layer_2" data-name="Layer 2"><g id="svg8"><polygon class="cls-1" points="20.66 47.72 0 35.79 0 11.93 20.66 0 41.32 11.93 41.32 35.79 20.66 47.72"/><g id="layer8"><g id="g10890"><circle id="circle10279" class="cls-2" cx="20.66" cy="23.86" r="14.5"/><circle id="circle10281" class="cls-2" cx="20.66" cy="23.86" r="13.33"/><path id="path10284" class="cls-3" d="M15.61,20.19a.73.73,0,0,0-.26.17c-.08.11,0,.16,0,.14a.49.49,0,0,1,.17,0c.05,0,.12.08.12,0s.11-.08.18-.1.07-.06,0-.11a.24.24,0,0,0-.23,0"/><path id="path10286" class="cls-3" d="M15.64,20.71a.06.06,0,0,1-.07.06c-.07,0-.06.14,0,.1s.13,0,.15,0,0,0,0-.08-.06-.1-.09-.08"/><path id="path10288" class="cls-3" d="M18,14.59H18c-.06,0,0,0,0,.05s0,.09.12.07.1,0,.08-.08"/><path id="path10290" class="cls-3" d="M18,14.94s0,.08-.07.07-.07.12,0,.12.08-.07.12-.09,0-.07,0-.1,0,0-.07,0"/><path id="path10292" class="cls-3" d="M25.27,25.55h0c0-.06-.05,0,0,.07s.12.11.1.16,0,.12,0,.09.07-.09.09-.09,0-.09-.06-.13a.23.23,0,0,1-.1-.13s-.06,0-.05,0"/><path id="path10294" class="cls-3" d="M25.79,26.84s-.09-.06-.06,0l.09.16a.1.1,0,0,0,.13.09c.05,0,0-.05,0-.14s-.1-.14-.14-.12"/><path id="path10296" class="cls-3" d="M27.76,28a.3.3,0,0,1-.08.08v.1a.15.15,0,0,1,0,.2c-.06.08-.12.12-.11.17s.05.17,0,.23-.06.08,0,.17,0,.2.07.15,0-.31.07-.39a1.15,1.15,0,0,0,.12-.25c0-.07.12-.14,0-.2a.12.12,0,0,1,0-.16v-.09"/><path id="path10298" class="cls-3" d="M27.94,30.26a.11.11,0,0,0,0,.13c0,.08,0,.24.07.19s0-.18,0-.23-.07-.08-.07-.08"/><path id="path10300" class="cls-3" d="M28,30.58v.47h0a.49.49,0,0,1,.05-.27.23.23,0,0,0,0-.2H28"/><path id="path10302" class="cls-3" d="M24.05,32.08c.1-.08.28-.29.45-.2a.27.27,0,0,0,.32,0,1.14,1.14,0,0,1,.52,0c.13,0,.43.11.49.26s.18.3.29.09a.7.7,0,0,1,.42-.33,4.73,4.73,0,0,0,.45-.23.6.6,0,0,1,.5-.09c.17.08.35-.24.45-.31h0a1.13,1.13,0,0,1,0-.26.85.85,0,0,0-.15-.37c-.07-.12-.14-.14-.08-.32s0-.19,0-.39-.09-.14-.08-.31.07-.2.08-.31-.07-.11-.11-.07,0-.12-.06-.2-.13-.15-.06-.21a.11.11,0,0,0,0-.17.09.09,0,0,0-.06,0,.42.42,0,0,1-.31-.22c-.09-.16,0-.25-.17-.31s-.37-.19-.32-.23,0-.16-.05-.24a.36.36,0,0,0-.34-.23c-.21,0-.24-.13-.34-.24a1.12,1.12,0,0,1-.28-.33,1.67,1.67,0,0,1-.05-.5c0-.11.08-.26,0-.34s0,0-.09,0a.09.09,0,0,1-.13,0,.07.07,0,0,1-.05,0c-.06-.09-.29-.18-.32-.29s0-.14-.14-.18-.12.05-.07.1a.14.14,0,0,1,.07.17.19.19,0,0,0,0,.18h0a.14.14,0,0,0-.14-.15c-.05,0,0,.06-.12,0s-.07-.19-.12-.3a.64.64,0,0,1-.07-.33.3.3,0,0,0-.06-.22.24.24,0,0,1-.1-.27c0-.11,0-.17-.08-.17s-.09-.05-.1-.11,0,0-.11,0a.26.26,0,0,1-.17-.15c0-.09-.08-.24,0-.19s.14.11.14.06a.5.5,0,0,0-.2-.29c-.13-.1-.11-.06-.12-.11s0,0-.09,0l0,0a.18.18,0,0,1-.15-.1c-.05-.1-.1-.1-.21-.1s-.1,0-.13-.08-.11-.07-.12,0-.17,0-.18-.05a.93.93,0,0,0,0-.34c-.05-.14,0,0-.11,0s-.28.05-.3-.09-.11-.08-.15-.15-.1,0-.16,0-.38-.11-.36-.28a1.82,1.82,0,0,0,0-.33V22c0-.08-.15-.07-.16,0s-.12,0-.08-.14a.71.71,0,0,0,.1-.47c0-.13-.2-.45-.15-.54a.15.15,0,0,0,0-.2h0a.69.69,0,0,1-.34-.29,1.67,1.67,0,0,0-.05-.47.56.56,0,0,1-.11-.45v-.35c0-.05.05-.09,0-.19a1.82,1.82,0,0,0-.38-.29c-.15-.08-.08-.12-.08-.21a.12.12,0,0,0-.19-.1c-.09.07-.17,0-.21.07a.24.24,0,0,1-.22.16c-.13,0-.21,0-.2-.19a.46.46,0,0,0-.1-.32.34.34,0,0,1,0-.28.42.42,0,0,0,0-.27,2.94,2.94,0,0,1,0-.42c0-.09,0,0-.08,0s0-.12,0-.17-.09-.08-.13-.13-.06-.17-.16-.17,0-.14,0-.23,0-.14-.07-.14-.19,0-.2-.18,0-.24,0-.32a.45.45,0,0,0-.09-.31c-.09-.11-.21-.07-.15-.16s0-.12-.08-.1-.07.15-.21.18-.14.13-.14.23V16a.23.23,0,0,0,0,.2v.13c0-.05-.1-.08-.13,0s-.05.17-.07.21-.07.17,0,.2.18,0,.17.11,0,.18,0,.09-.08-.09-.09,0a.2.2,0,0,1-.09.17c-.07,0-.07.07,0,.15s.13.18.09.21-.17,0-.18.15-.06.38,0,.45a.31.31,0,0,1-.24.3.92.92,0,0,0,0,.33,1,1,0,0,1,.09.27c0,.11-.06.17-.11.26a1.69,1.69,0,0,0-.13.31v.18a.14.14,0,0,0,0,.15.14.14,0,0,1,0,.15.58.58,0,0,0-.12.25c0,.1-.06.31-.17.36s-.09.22-.11.3a.51.51,0,0,1-.2.32c-.12.06-.43.23-.6.16s-.39-.14-.43-.25-.26,0-.29-.15a.49.49,0,0,0-.31-.4,1.79,1.79,0,0,1-.59-.16l-.19-.08v9h2.61v2.91H23.8a1,1,0,0,0,.25-.14"/></g><path id="path4524" class="cls-4" d="M24.05,32.08c.1-.08.28-.29.45-.2a.27.27,0,0,0,.32,0,1.14,1.14,0,0,1,.52,0c.13,0,.43.11.49.26s.18.3.29.09a.7.7,0,0,1,.42-.33,4.73,4.73,0,0,0,.45-.23.6.6,0,0,1,.5-.09c.17.08.35-.24.45-.31h0a1.13,1.13,0,0,1,0-.26.85.85,0,0,0-.15-.37c-.07-.12-.14-.14-.08-.32s0-.19,0-.39-.09-.14-.08-.31.07-.2.08-.31-.07-.11-.11-.07,0-.12-.06-.2-.13-.15-.06-.21a.11.11,0,0,0,0-.17.09.09,0,0,0-.06,0,.42.42,0,0,1-.31-.22c-.09-.16,0-.25-.17-.31s-.37-.19-.32-.23,0-.16-.05-.24a.36.36,0,0,0-.34-.23c-.21,0-.24-.13-.34-.24a1.12,1.12,0,0,1-.28-.33,1.67,1.67,0,0,1-.05-.5c0-.11.08-.26,0-.34s0,0-.09,0a.09.09,0,0,1-.13,0,.07.07,0,0,1-.05,0c-.06-.09-.29-.18-.32-.29s0-.14-.14-.18-.12.05-.07.1a.14.14,0,0,1,.07.17.19.19,0,0,0,0,.18h0a.14.14,0,0,0-.14-.15c-.05,0,0,.06-.12,0s-.07-.19-.12-.3a.64.64,0,0,1-.07-.33.3.3,0,0,0-.06-.22.24.24,0,0,1-.1-.27c0-.11,0-.17-.08-.17s-.09-.05-.1-.11,0,0-.11,0a.26.26,0,0,1-.17-.15c0-.09-.08-.24,0-.19s.14.11.14.06a.5.5,0,0,0-.2-.29c-.13-.1-.11-.06-.12-.11s0,0-.09,0l0,0a.18.18,0,0,1-.15-.1c-.05-.1-.1-.1-.21-.1s-.1,0-.13-.08-.11-.07-.12,0-.17,0-.18-.05a.93.93,0,0,0,0-.34c-.05-.14,0,0-.11,0s-.28.05-.3-.09-.11-.08-.15-.15-.1,0-.16,0-.38-.11-.36-.28a1.82,1.82,0,0,0,0-.33V22c0-.08-.15-.07-.16,0s-.12,0-.08-.14a.71.71,0,0,0,.1-.47c0-.13-.2-.45-.15-.54a.15.15,0,0,0,0-.2h0a.69.69,0,0,1-.34-.29,1.67,1.67,0,0,0-.05-.47.56.56,0,0,1-.11-.45v-.35c0-.05.05-.09,0-.19a1.82,1.82,0,0,0-.38-.29c-.15-.08-.08-.12-.08-.21a.12.12,0,0,0-.19-.1c-.09.07-.17,0-.21.07a.24.24,0,0,1-.22.16c-.13,0-.21,0-.2-.19a.46.46,0,0,0-.1-.32.34.34,0,0,1,0-.28.42.42,0,0,0,0-.27,2.94,2.94,0,0,1,0-.42c0-.09,0,0-.08,0s0-.12,0-.17-.09-.08-.13-.13-.06-.17-.16-.17,0-.14,0-.23,0-.14-.07-.14-.19,0-.2-.18,0-.24,0-.32a.45.45,0,0,0-.09-.31c-.09-.11-.21-.07-.15-.16s0-.12-.08-.1-.07.15-.21.18-.14.13-.14.23V16a.23.23,0,0,0,0,.2v.13c0-.05-.1-.08-.13,0s-.05.17-.07.21-.07.17,0,.2.18,0,.17.11,0,.18,0,.09-.08-.09-.09,0a.2.2,0,0,1-.09.17c-.07,0-.07.07,0,.15s.13.18.09.21-.17,0-.18.15-.06.38,0,.45a.31.31,0,0,1-.24.3.92.92,0,0,0,0,.33,1,1,0,0,1,.09.27c0,.11-.06.17-.11.26a1.69,1.69,0,0,0-.13.31v.18a.14.14,0,0,0,0,.15.14.14,0,0,1,0,.15.58.58,0,0,0-.12.25c0,.1-.06.31-.17.36s-.09.22-.11.3a.51.51,0,0,1-.2.32c-.12.06-.43.23-.6.16s-.39-.14-.43-.25-.26,0-.29-.15a.49.49,0,0,0-.31-.4,1.79,1.79,0,0,1-.59-.16l-.19-.08v9h2.61v2.91H23.8a1,1,0,0,0,.25-.14"/></g></g></g></svg>