<svg xmlns="http://www.w3.org/2000/svg" viewBox="0 0 41.32 47.72"><defs><style>.cls-1{fill:#e1f0ef;}.cls-2{fill:#009887;}.cls-3{fill:#fff;}</style></defs><title>Digital</title><g id="Layer_2" data-name="Layer 2"><g id="svg8"><polygon class="cls-1" points="20.66 47.72 0 35.79 0 11.93 20.66 0 41.32 11.93 41.32 35.79 20.66 47.72"/><g id="_Group_" data-name=" Group "><circle id="circle11962" class="cls-2" cx="20.66" cy="23.86" r="14.5"/><circle id="circle11964" class="cls-2" cx="20.66" cy="23.86" r="13.33"/></g><g id="layer11"><g id="g12619"><path id="path12611" class="cls-3" d="M21.8,29.36a1.11,1.11,0,1,1-1.11-1.11,1.11,1.11,0,0,1,1.11,1.11h0"/><path id="path12613" class="cls-3" d="M29.29,23.06a1.21,1.21,0,0,1-.84-.35,11,11,0,0,0-15.54,0,1.17,1.17,0,0,1-1.79-1.51l.12-.12a13.37,13.37,0,0,1,18.89,0,1.17,1.17,0,0,1,0,1.65,1.19,1.19,0,0,1-.85.35"/><path id="path12615" class="cls-3" d="M26.42,25.46a1.19,1.19,0,0,1-.8-.32,7.34,7.34,0,0,0-9.87,0,1.17,1.17,0,0,1-1.61-1.69,9.67,9.67,0,0,1,13.1,0,1.17,1.17,0,0,1,0,1.65,1.2,1.2,0,0,1-.82.35"/><path id="path12617" class="cls-3" d="M17.75,27.94A1.17,1.17,0,0,1,17,25.86a6.09,6.09,0,0,1,7.23-.08,1.17,1.17,0,1,1-1.42,1.86,3.74,3.74,0,0,0-4.35,0,1.12,1.12,0,0,1-.73.26"/></g></g></g></g></svg>