<svg xmlns="http://www.w3.org/2000/svg" viewBox="0 0 41.32 47.72"><defs><style>.cls-1{fill:#e1f0ef;}.cls-2{fill:#009887;}.cls-3,.cls-4{fill:#fff;}.cls-3{opacity:0.7;isolation:isolate;}</style></defs><title>Education</title><g id="Layer_2" data-name="Layer 2"><g id="svg8"><polygon class="cls-1" points="20.66 47.72 0 35.79 0 11.93 20.66 0 41.32 11.93 41.32 35.79 20.66 47.72"/><g id="layer5"><g id="g8151"><g id="_Group_" data-name=" Group "><circle id="circle7558" class="cls-2" cx="20.66" cy="23.86" r="14.5"/><circle id="circle7560" class="cls-2" cx="20.66" cy="23.86" r="13.33"/></g><path id="path7563" class="cls-3" d="M14.12,24.16v2.91h0v.06h0c0,1.49,3,2.69,6.6,2.69s6.6-1.2,6.6-2.69h0v-.06h0V24.16l-6.6,2Z"/><path id="path7565" class="cls-3" d="M30,24.65v-.21a.19.19,0,0,0-.1-.19V22.56l2-.63L20.76,18.49,9.54,21.93l11.22,3.43,8.84-2.72v1.6a.23.23,0,0,0-.1.19v.21a.25.25,0,0,0,.08.18l-.34,1.88h1l-.34-1.88a.19.19,0,0,0,.08-.18"/></g><g id="g8246"><path id="path8242" class="cls-4" d="M14.12,24.16v2.91h0v.06h0c0,1.49,3,2.69,6.6,2.69s6.6-1.2,6.6-2.69h0v-.06h0V24.16l-6.6,2Z"/><path id="path8244" class="cls-4" d="M30,24.65v-.21a.19.19,0,0,0-.1-.19V22.56l2-.63L20.76,18.49,9.54,21.93l11.22,3.43,8.84-2.72v1.6a.23.23,0,0,0-.1.19v.21a.25.25,0,0,0,.08.18l-.34,1.88h1l-.34-1.88a.19.19,0,0,0,.08-.18"/></g></g></g></g></svg>