<svg xmlns="http://www.w3.org/2000/svg" viewBox="0 0 41.39 47.8"><defs><style>.cls-1{fill:#e1f0ef;opacity:0.99;isolation:isolate;}.cls-2{fill:#009887;}</style></defs><title>energy</title><g id="Layer_2" data-name="Layer 2"><g id="svg8"><g id="layer1"><path id="path4515" class="cls-1" d="M41.39,35.85,20.7,47.8,0,35.85V12L20.7,0,41.39,12Z"/></g><g id="layer8"><g id="g5554"><g id="layer8-9"><g id="g10100"><g id="g10085"><path id="path10025" class="cls-2" d="M23.94,28.43H18.08a.75.75,0,0,0-.8.72.7.7,0,0,0,0,.29h0a.68.68,0,0,0,.39.39,1.25,1.25,0,0,0,.43.07h5.77c.54,0,.86-.29.86-.75s-.23-.72-.83-.72"/><path id="path10027" class="cls-2" d="M23.8,31H18.24a.79.79,0,0,0-.89.66v.1a.67.67,0,0,0,0,.2.7.7,0,0,0,.5.5h5.89a.78.78,0,0,0,.89-.77.77.77,0,0,0-.8-.75h-.07"/><path id="path10029" class="cls-2" d="M18.35,33.5h-.11a3.71,3.71,0,0,0,1.39,1.39,3,3,0,0,0,1.39.34,3.61,3.61,0,0,0,2.78-1.66H18.24Z"/><path id="path10031" class="cls-2" d="M25.45,23.37,22,24.26v2.57a1.06,1.06,0,0,0,1.06,1.08h0a1.07,1.07,0,0,0,1.07-1.07h0v-.92l1.81-.48a1.07,1.07,0,0,0-.55-2.07h0"/><path id="path10033" class="cls-2" d="M25.45,20.08l-8.53,2.23-.82.22a1.09,1.09,0,0,0-.8,1.17,1.14,1.14,0,0,0,.1.6,1.1,1.1,0,0,0,.51.51h0l2.19,1v1a.91.91,0,0,0,.75,1h.28a1.08,1.08,0,0,0,1-1.1h0V24.39l-1-.48,6.8-1.68a1.1,1.1,0,0,0-.48-2.15"/><path id="path10035" class="cls-2" d="M25.45,16.93l-5.8,1.5-2.78.72-.79.21a1.07,1.07,0,0,0-.76,1.31h0a.38.38,0,0,0,0,.15,1,1,0,0,0,.55.56,1.07,1.07,0,0,0,.43.09h.27l2-.52,2.79-.73L25.93,19a1.07,1.07,0,1,0-.55-2.07h0"/><path id="path10037" class="cls-2" d="M15.4,17.68a1.08,1.08,0,0,0,1,.58.57.57,0,0,0,.26,0l2.24-.58,7.08-1.89a1.07,1.07,0,0,0,.83-1.27h0v-.16a1.09,1.09,0,0,0-.53-.53,1.08,1.08,0,0,0-.71,0L25,14l-7.88,1.94-1,.27a1.06,1.06,0,0,0-.76,1.3h0a.92.92,0,0,0,.09.23"/><path id="path10039" class="cls-2" d="M15.32,14.23a1,1,0,0,0,.94.79h.36l5.9-1.53a1.07,1.07,0,0,0,.78-1.25h0a1.09,1.09,0,0,0-.82-.78,1,1,0,0,0-.49,0L16.1,13a1.08,1.08,0,0,0-.8,1.13v.18"/></g></g></g></g></g></g></g></svg>