<svg xmlns="http://www.w3.org/2000/svg" viewBox="0 0 41.32 47.72"><defs><style>.cls-1{fill:#e1f0ef;}.cls-2{fill:#009887;}.cls-3{fill:#fff;}</style></defs><title>Health</title><g id="Layer_2" data-name="Layer 2"><g id="svg8"><polygon class="cls-1" points="20.66 47.72 0 35.79 0 11.93 20.66 0 41.32 11.93 41.32 35.79 20.66 47.72"/><g id="layer9"><g id="g11293"><g id="_Group_" data-name=" Group "><circle id="circle10712" class="cls-2" cx="20.66" cy="23.86" r="14.5"/><circle id="circle10714" class="cls-2" cx="20.66" cy="23.86" r="13.33"/></g></g><g id="g11378"><path id="path11372" class="cls-3" d="M27.73,25.93h-14V24.69H27a.67.67,0,0,1,.7.64h0Zm-14.1-3.12H16a.44.44,0,0,1,.44.44h0v.53H13.64Zm15,3.12v-.57A1.57,1.57,0,0,0,27,23.82h-9.9v-.53A1.1,1.1,0,0,0,16,22.17H13.5V20.73H11.69v10.4H13.5V27.74H27.19v3.39H29v-5.2Z"/><polygon id="polygon11374" class="cls-3" points="25.6 17.95 25.6 16.73 24.01 16.73 24.01 17.95 22.83 17.95 22.83 19.64 24.01 19.64 24.01 20.72 25.6 20.72 25.6 19.64 26.84 19.64 26.84 17.95 25.6 17.95"/><path id="path11376" class="cls-3" d="M24.87,15.36a3.37,3.37,0,1,1-3.37,3.37h0a3.37,3.37,0,0,1,3.37-3.37m0,7.85a4.49,4.49,0,1,0-4.49-4.49h0a4.5,4.5,0,0,0,4.48,4.5h0"/></g></g></g></g></svg>