<svg xmlns="http://www.w3.org/2000/svg" viewBox="0 0 41.32 47.72"><defs><style>.cls-1{fill:#e1f0ef;}.cls-2{fill:#009887;}.cls-3,.cls-4{fill:#fff;}.cls-3{opacity:0.95;isolation:isolate;}</style></defs><title>Justice and Public Safety</title><g id="Layer_2" data-name="Layer 2"><g id="svg8"><polygon class="cls-1" points="20.66 47.72 0 35.79 0 11.93 20.66 0 41.32 11.93 41.32 35.79 20.66 47.72"/><g id="layer13"><g id="g13785"><g id="_Group_" data-name=" Group "><circle id="circle13208" class="cls-2" cx="20.66" cy="23.86" r="14.5"/><circle id="circle13210" class="cls-2" cx="20.66" cy="23.86" r="13.33"/></g><path id="path13213" class="cls-3" d="M14.73,19.8,17.3,26H12.16Zm11.82,0L29.12,26h-5ZM12,26.64l.14.08h.06l.13.07h.07a5.24,5.24,0,0,0,.78.3,5.9,5.9,0,0,0,3.12,0,5.24,5.24,0,0,0,.78-.3,3.85,3.85,0,0,0,.39-.21,3.11,3.11,0,0,0,.4-.22h0v-.31h0l-2.69-6.48h.39c.52.06,1.08.11,1.7.15,1,.07,1.94.1,3,.11-.05.52-.1,1-.15,1.54L20,23l-.11,1.64a3.33,3.33,0,0,1-.07.81v.29l-.06.54v.83c0,.28,0,.55,0,.83a6.8,6.8,0,0,0,.16,1.2h-.35a6.65,6.65,0,0,0-1.17.28,4.24,4.24,0,0,0-.59.23,6.45,6.45,0,0,0-.59.29,5.27,5.27,0,0,0-.59.37,4.65,4.65,0,0,0-.59.49h0v.39l1.29.06h8.19v-.39h0a3.94,3.94,0,0,0-.59-.49,4.49,4.49,0,0,0-.59-.37,6.13,6.13,0,0,0-1.17-.52,7,7,0,0,0-1.28-.29h-.32c.07-.39.12-.79.16-1.21a5.63,5.63,0,0,0,0-.83v-.83a1.23,1.23,0,0,0-.06-.53c-.06-.17,0-.19,0-.29,0-.29-.05-.56-.07-.81l-.11-1.64-.23-1.7c0-.51-.1-1-.15-1.54A25.74,25.74,0,0,0,24,19.71a14,14,0,0,0,1.7-.15l.43,0L23.45,26h-.1v.36h0a2.76,2.76,0,0,0,.39.28l.14.08H24l.13.06h.07a5.24,5.24,0,0,0,.78.3,5.9,5.9,0,0,0,3.12,0,5.24,5.24,0,0,0,.78-.3l.39-.21a2.86,2.86,0,0,0,.4-.28h.05V26h-.08L26.93,19.5h.22l.4.05h.39a1.14,1.14,0,0,0,.45,0,3,3,0,0,0,.43-.12,2.13,2.13,0,0,0,.44-.07h0v-.21h0a1.43,1.43,0,0,0-.43-.25,1.62,1.62,0,0,0-.43-.12,1.14,1.14,0,0,0-.45,0h-.39l-.4,0-.4.06h-.23l-.81-.1c-.52-.06-1.08-.11-1.7-.15-.93-.06-1.88-.1-2.91-.11l.09-.76a.89.89,0,0,1,.06-.39v-.2a1.71,1.71,0,0,0,0-.32,1.71,1.71,0,0,0,0-.32,2.69,2.69,0,0,0-.16-.62,1.69,1.69,0,0,0-.13-.31,2.14,2.14,0,0,0-.2-.32v-.06h-.24v.06a3.45,3.45,0,0,0-.2.32,2.88,2.88,0,0,0-.13.31,3.32,3.32,0,0,0-.16.62,1.71,1.71,0,0,0,0,.32,1.71,1.71,0,0,0,0,.32v.19a.91.91,0,0,0,.06.4v.3l.06.46a26.81,26.81,0,0,0-3,.11,14.15,14.15,0,0,0-1.7.15l-.74.1h-.19l-.41-.06-.4,0h-.39a1.14,1.14,0,0,0-.45,0,1.62,1.62,0,0,0-.43.12,1.48,1.48,0,0,0-.44.25h0v.21h0a1.73,1.73,0,0,0,.44.25,3,3,0,0,0,.43.12,1.14,1.14,0,0,0,.45,0h.39l.4-.05h.14l-2.68,6.45h-.1v.23h0a3.6,3.6,0,0,0,.4.28"/></g><path id="path13866" class="cls-4" d="M14.73,19.8,17.3,26H12.16Zm11.82,0L29.12,26h-5ZM12,26.64l.14.08h.06l.13.07h.07a5.24,5.24,0,0,0,.78.3,5.9,5.9,0,0,0,3.12,0,5.24,5.24,0,0,0,.78-.3,3.85,3.85,0,0,0,.39-.21,3.11,3.11,0,0,0,.4-.22h0v-.31h0l-2.69-6.48h.39c.52.06,1.08.11,1.7.15,1,.07,1.94.1,3,.11-.05.52-.1,1-.15,1.54L20,23l-.11,1.64a3.33,3.33,0,0,1-.07.81v.29l-.06.54v.83c0,.28,0,.55,0,.83a6.8,6.8,0,0,0,.16,1.2h-.35a6.65,6.65,0,0,0-1.17.28,4.24,4.24,0,0,0-.59.23,6.45,6.45,0,0,0-.59.29,5.27,5.27,0,0,0-.59.37,4.65,4.65,0,0,0-.59.49h0v.39l1.29.06h8.19v-.39h0a3.94,3.94,0,0,0-.59-.49,4.49,4.49,0,0,0-.59-.37,6.13,6.13,0,0,0-1.17-.52,7,7,0,0,0-1.28-.29h-.32c.07-.39.12-.79.16-1.21a5.63,5.63,0,0,0,0-.83v-.83a1.23,1.23,0,0,0-.06-.53c-.06-.17,0-.19,0-.29,0-.29-.05-.56-.07-.81l-.11-1.64-.23-1.7c0-.51-.1-1-.15-1.54A25.74,25.74,0,0,0,24,19.71a14,14,0,0,0,1.7-.15l.43,0L23.45,26h-.1v.36h0a2.76,2.76,0,0,0,.39.28l.14.08H24l.13.06h.07a5.24,5.24,0,0,0,.78.3,5.9,5.9,0,0,0,3.12,0,5.24,5.24,0,0,0,.78-.3l.39-.21a2.86,2.86,0,0,0,.4-.28h.05V26h-.08L26.93,19.5h.22l.4.05h.39a1.14,1.14,0,0,0,.45,0,3,3,0,0,0,.43-.12,2.13,2.13,0,0,0,.44-.07h0v-.21h0a1.43,1.43,0,0,0-.43-.25,1.62,1.62,0,0,0-.43-.12,1.14,1.14,0,0,0-.45,0h-.39l-.4,0-.4.06h-.23l-.81-.1c-.52-.06-1.08-.11-1.7-.15-.93-.06-1.88-.1-2.91-.11l.09-.76a.89.89,0,0,1,.06-.39v-.2a1.71,1.71,0,0,0,0-.32,1.71,1.71,0,0,0,0-.32,2.69,2.69,0,0,0-.16-.62,1.69,1.69,0,0,0-.13-.31,2.14,2.14,0,0,0-.2-.32v-.06h-.24v.06a3.45,3.45,0,0,0-.2.32,2.88,2.88,0,0,0-.13.31,3.32,3.32,0,0,0-.16.62,1.71,1.71,0,0,0,0,.32,1.71,1.71,0,0,0,0,.32v.19a.91.91,0,0,0,.06.4v.3l.06.46a26.81,26.81,0,0,0-3,.11,14.15,14.15,0,0,0-1.7.15l-.74.1h-.19l-.41-.06-.4,0h-.39a1.14,1.14,0,0,0-.45,0,1.62,1.62,0,0,0-.43.12,1.48,1.48,0,0,0-.44.25h0v.21h0a1.73,1.73,0,0,0,.44.25,3,3,0,0,0,.43.12,1.14,1.14,0,0,0,.45,0h.39l.4-.05h.14l-2.68,6.45h-.1v.23h0a3.6,3.6,0,0,0,.4.28"/></g></g></g></svg>