<svg xmlns="http://www.w3.org/2000/svg" viewBox="0 0 41.32 47.72"><defs><style>.cls-1{fill:#e1f0ef;}.cls-2{fill:#009887;}.cls-3{fill:#fff;}</style></defs><title>Social Housing</title><g id="Layer_2" data-name="Layer 2"><g id="svg8"><polygon class="cls-1" points="20.66 47.72 0 35.79 0 11.93 20.66 0 41.32 11.93 41.32 35.79 20.66 47.72"/><g id="layer1"><g id="_Group_" data-name=" Group "><circle id="circle4491" class="cls-2" cx="20.66" cy="23.86" r="14.5"/><circle id="circle4493" class="cls-2" cx="20.66" cy="23.86" r="13.33"/></g><g id="g4706"><path id="path4700" class="cls-3" d="M30.6,29.17H11.33a.27.27,0,0,0-.27.27h0v.42a.27.27,0,0,0,.27.27H30.6a.27.27,0,0,0,.27-.27h0v-.42a.27.27,0,0,0-.27-.27h0"/><path id="path4702" class="cls-3" d="M12.11,20.55a.27.27,0,0,0,.36.12L21,16.33l8.62,4.28a.26.26,0,0,0,.36-.12l.14-.29a.26.26,0,0,0-.12-.36l-8.8-4.36H21.1a.26.26,0,0,0-.27,0l-8.76,4.45a.28.28,0,0,0-.12.36Z"/><path id="path4704" class="cls-3" d="M21.89,20.48a.27.27,0,0,1-.27.27H20.31a.27.27,0,0,1-.27-.27h0V19.17a.27.27,0,0,1,.27-.27h1.31a.27.27,0,0,1,.27.27h0ZM20.27,24a.27.27,0,0,1-.27.27H18.44a.27.27,0,0,1-.27-.27h0V22.44a.27.27,0,0,1,.27-.27H20a.27.27,0,0,1,.27.27h0Zm0,2.56a.27.27,0,0,1-.27.27H18.44a.27.27,0,0,1-.27-.27h0V25a.27.27,0,0,1,.27-.27H20a.27.27,0,0,1,.27.27h0ZM17.54,24a.27.27,0,0,1-.27.27H15.71a.27.27,0,0,1-.27-.27h0V22.44a.27.27,0,0,1,.27-.27h1.56a.27.27,0,0,1,.27.27h0Zm0,2.56a.27.27,0,0,1-.27.27H15.71a.27.27,0,0,1-.27-.27h0V25a.27.27,0,0,1,.27-.27h1.56a.27.27,0,0,1,.27.27h0Zm9,2.11h2.22A.27.27,0,0,0,29,28.4h0V21.33a.44.44,0,0,0-.24-.39l-7.57-3.75a.66.66,0,0,0-.48,0l-7.57,3.75a.5.5,0,0,0-.28.39v7.08a.27.27,0,0,0,.27.27h9a.27.27,0,0,0,.27-.27h0v-6a.27.27,0,0,1,.27-.27h3.24a.27.27,0,0,1,.27.27h0v6a.27.27,0,0,0,.27.27h0"/></g></g></g></g></svg>