<svg xmlns="http://www.w3.org/2000/svg" viewBox="0 0 41.32 47.72"><defs><style>.cls-1{fill:#e1f0ef;}.cls-2{fill:#009887;}.cls-3,.cls-4{fill:#fff;}.cls-3{opacity:0.7;isolation:isolate;}</style></defs><title>Transport</title><g id="Layer_2" data-name="Layer 2"><g id="svg8"><polygon class="cls-1" points="20.66 47.72 0 35.79 0 11.93 20.66 0 41.32 11.93 41.32 35.79 20.66 47.72"/><g id="layer5"><g id="g5950"><circle id="circle5303" class="cls-2" cx="20.66" cy="23.86" r="14.5"/><circle id="circle5305" class="cls-2" cx="20.66" cy="23.86" r="13.33"/><path id="path5307" class="cls-3" d="M18.32,16.52,9.1,27.3c-.18.23.25.61.43.84a.39.39,0,0,0,.54.11.38.38,0,0,0,.11-.11l9-11.62Z"/><path id="path5309" class="cls-3" d="M32.85,27.14l-9.1-10.62h-.87L31.77,28a.43.43,0,0,0,.33.17.43.43,0,0,0,.32-.17c.18-.23.61-.61.43-.84"/><polygon id="polygon5311" class="cls-3" points="25.84 21.31 16.31 21.31 17.22 20.22 24.93 20.22 25.84 21.31"/><polygon id="polygon5313" class="cls-3" points="24.03 19.14 18.12 19.14 18.68 18.46 23.47 18.46 24.03 19.14"/><polygon id="polygon5315" class="cls-3" points="19.51 17.23 19.13 17.68 23.01 17.68 22.65 17.23 19.51 17.23"/><polygon id="polygon5317" class="cls-3" points="28.12 24.58 14.03 24.58 15.38 22.97 26.77 22.97 28.12 24.58"/><polygon id="polygon5319" class="cls-3" points="31.12 28.4 11.03 28.4 12.95 26.1 29.2 26.1 31.12 28.4"/></g><g id="g6080"><path id="path6066" class="cls-4" d="M18.32,16.52,9.1,27.3c-.18.23.25.61.43.84a.39.39,0,0,0,.54.11.38.38,0,0,0,.11-.11l9-11.62Z"/><path id="path6068" class="cls-4" d="M32.85,27.14l-9.1-10.62h-.87L31.77,28a.43.43,0,0,0,.33.17.43.43,0,0,0,.32-.17c.18-.23.61-.61.43-.84"/><polygon id="polygon6070" class="cls-4" points="24.93 20.22 25.84 21.31 16.31 21.31 17.22 20.22 24.93 20.22"/><polygon id="polygon6072" class="cls-4" points="23.47 18.46 24.03 19.14 18.12 19.14 18.68 18.46 23.47 18.46"/><polygon id="polygon6074" class="cls-4" points="22.65 17.23 19.51 17.23 19.13 17.68 23.01 17.68 22.65 17.23"/><polygon id="polygon6076" class="cls-4" points="26.77 22.97 28.12 24.58 14.03 24.58 15.38 22.97 26.77 22.97"/><polygon id="polygon6078" class="cls-4" points="29.2 26.1 31.12 28.4 11.03 28.4 12.95 26.1 29.2 26.1"/></g></g></g></g></svg>