<svg xmlns="http://www.w3.org/2000/svg" viewBox="0 0 41.32 47.72"><defs><style>.cls-1{fill:#e1f0ef;}.cls-2{fill:#009887;}.cls-3,.cls-4{fill:#fff;}.cls-3{opacity:0.7;isolation:isolate;}</style></defs><title>water</title><g id="Layer_2" data-name="Layer 2"><g id="svg8"><polygon class="cls-1" points="20.66 47.72 0 35.79 0 11.93 20.66 0 41.32 11.93 41.32 35.79 20.66 47.72"/><g id="layer8"><g id="g7256"><g id="_Group_" data-name=" Group "><circle id="circle6681" class="cls-2" cx="20.66" cy="23.86" r="14.5"/><circle id="circle6683" class="cls-2" cx="20.66" cy="23.86" r="13.33"/></g><path id="path6686" class="cls-3" d="M21,32a2.54,2.54,0,0,1-2.52-2.52.57.57,0,0,1,.57-.57.56.56,0,0,1,.57.57h0A1.4,1.4,0,0,0,21,30.89a.56.56,0,0,1,.57.57A.57.57,0,0,1,21,32M23.21,26c-.65-1.07-1.28-1.95-1.31-2l-.47-.61L21,22.73l-.46.63-.46.63s-.67.92-1.31,2a7.81,7.81,0,0,0-1.42,3.52,3.66,3.66,0,0,0,7.32,0A7.7,7.7,0,0,0,23.22,26"/><path id="path6688" class="cls-3" d="M15.58,26.18a2.14,2.14,0,0,1-2.13-2.13h0a.5.5,0,0,1,.5-.5.5.5,0,0,1,.5.5,1.17,1.17,0,0,0,1.13,1.17.5.5,0,0,1,.5.5.5.5,0,0,1-.5.5m1.88-5.11c-.54-.9-1.08-1.64-1.11-1.67L16,18.9l-.38-.54-.39.53-.41.47s-.56.77-1.11,1.67a6.63,6.63,0,0,0-1.2,3,3.09,3.09,0,0,0,6.17,0,6.41,6.41,0,0,0-1.2-3"/><path id="path6690" class="cls-3" d="M25.21,22.88a2.14,2.14,0,0,1-2.13-2.13h0a.5.5,0,0,1,.5-.5.5.5,0,0,1,.5.5,1.18,1.18,0,0,0,1.17,1.17.5.5,0,0,1,.5.5.5.5,0,0,1-.5.5m1.88-5.11c-.54-.9-1.08-1.64-1.11-1.67l-.44-.58L25.19,15l-.39.54-.39.54s-.56.77-1.11,1.67a6.52,6.52,0,0,0-1.2,3,3.09,3.09,0,0,0,6.17,0,6.41,6.41,0,0,0-1.2-3"/></g><g id="g7363"><path id="path7357" class="cls-4" d="M21,32a2.54,2.54,0,0,1-2.52-2.52.57.57,0,0,1,.57-.57.56.56,0,0,1,.57.57h0A1.4,1.4,0,0,0,21,30.89a.56.56,0,0,1,.57.57A.57.57,0,0,1,21,32M23.21,26c-.65-1.07-1.28-1.95-1.31-2l-.47-.61L21,22.73l-.46.63-.46.63s-.67.92-1.31,2a7.81,7.81,0,0,0-1.42,3.52,3.66,3.66,0,0,0,7.32,0A7.7,7.7,0,0,0,23.22,26"/><path id="path7359" class="cls-4" d="M15.58,26.18a2.14,2.14,0,0,1-2.13-2.13h0a.5.5,0,0,1,.5-.5.5.5,0,0,1,.5.5,1.17,1.17,0,0,0,1.13,1.17.5.5,0,0,1,.5.5.5.5,0,0,1-.5.5m1.88-5.11c-.54-.9-1.08-1.64-1.11-1.67L16,18.9l-.38-.54-.39.53-.41.47s-.56.77-1.11,1.67a6.63,6.63,0,0,0-1.2,3,3.09,3.09,0,0,0,6.17,0,6.41,6.41,0,0,0-1.2-3"/><path id="path7361" class="cls-4" d="M25.21,22.88a2.14,2.14,0,0,1-2.13-2.13h0a.5.5,0,0,1,.5-.5.5.5,0,0,1,.5.5,1.18,1.18,0,0,0,1.17,1.17.5.5,0,0,1,.5.5.5.5,0,0,1-.5.5m1.88-5.11c-.54-.9-1.08-1.64-1.11-1.67l-.44-.58L25.19,15l-.39.54-.39.54s-.56.77-1.11,1.67a6.52,6.52,0,0,0-1.2,3,3.09,3.09,0,0,0,6.17,0,6.41,6.41,0,0,0-1.2-3"/></g></g></g></g></svg>